<svg xmlns="http://www.w3.org/2000/svg" width="1024" height="768" viewBox="0 0 1024 768"><symbol id="e" viewBox="-68.6 -66.9 137.2 133.801"><g stroke="#006DE9" stroke-linecap="round" stroke-linejoin="round" stroke-miterlimit="10"><g fill="none"><path d="M0 -11.1L0 0.7"/><path d="M5.9 -5.2L-5.9 -5.2"/></g><path fill="#FFF" stroke-width="6" d="M-29.2 -63.9L-65.6 -18.3 -52.6 38.6 0 63.9 52.6 38.6 65.6 -18.3 29.2 -63.9z"/></g></symbol><linearGradient id="a" gradientUnits="userSpaceOnUse" x1="232.655" y1="689.012" x2="590.645" y2="68.954"><stop offset="0" stop-color="#326de6"/><stop offset="1" stop-color="#10ffc6"/></linearGradient><path opacity=".2" fill="url(#a)" stroke="#000" stroke-miterlimit="10" d="M232.654 689.012L53.66 378.982 232.654 68.954 590.645 68.954 769.64 378.982 590.645 689.012z"/><path fill="#326CE5" d="M406.221,306.176c-1.219,0.062-2.415,0.364-3.514,0.89l-47.949,22.91c-2.515,1.201-4.34,3.471-4.962,6.169l-11.829,51.465 c-0.553,2.394-0.104,4.909,1.246,6.971c0.161,0.249,0.334,0.491,0.52,0.725l33.189,41.266c1.74,2.162,4.379,3.422,7.168,3.422 l53.225-0.012c2.789,0.002,5.428-1.254,7.168-3.416l33.177-41.272c1.742-2.164,2.394-4.996,1.772-7.696l-11.849-51.463 c-0.62-2.699-2.447-4.969-4.961-6.17l-47.956-22.898C409.284,306.404,407.755,306.099,406.221,306.176z"/><path fill="#FFF" stroke="#FFF" stroke-width=".25" d="M406.697,323.69c-1.585,0-2.871,1.427-2.87,3.188c0,0.027,0.005,0.053,0.006,0.08c-0.003,0.239-0.014,0.527-0.006,0.736 c0.038,1.016,0.259,1.793,0.392,2.729c0.242,2.003,0.444,3.663,0.319,5.206c-0.121,0.583-0.55,1.114-0.932,1.484l-0.068,1.214 c-1.722,0.144-3.457,0.404-5.188,0.798c-7.453,1.692-13.868,5.53-18.753,10.713c-0.317-0.215-0.872-0.613-1.036-0.736 c-0.512,0.07-1.03,0.227-1.705-0.166c-1.284-0.864-2.455-2.058-3.87-3.495c-0.648-0.688-1.119-1.342-1.888-2.005 c-0.175-0.15-0.442-0.354-0.639-0.509c-0.603-0.48-1.313-0.73-1.999-0.754c-0.882-0.03-1.731,0.314-2.287,1.013 c-0.989,1.239-0.672,3.133,0.705,4.23c0.014,0.01,0.028,0.02,0.042,0.031c0.189,0.153,0.42,0.35,0.595,0.479 c0.818,0.603,1.564,0.912,2.378,1.393c1.718,1.06,3.141,1.938,4.269,2.998c0.441,0.47,0.518,1.298,0.576,1.657l0.921,0.82 c-4.925,7.411-7.205,16.565-5.857,25.892l-1.203,0.35c-0.316,0.41-0.763,1.052-1.232,1.245c-1.477,0.465-3.138,0.636-5.146,0.846 c-0.941,0.079-1.755,0.031-2.753,0.221c-0.22,0.042-0.526,0.121-0.767,0.178c-0.008,0-0.017,0.005-0.024,0.005 c-0.014,0.003-0.031,0.01-0.044,0.013c-1.691,0.408-2.777,1.963-2.427,3.496c0.35,1.531,2.002,2.464,3.703,2.096 c0.013-0.003,0.032-0.003,0.044-0.005c0.018-0.005,0.034-0.015,0.054-0.02c0.237-0.051,0.535-0.108,0.742-0.164 c0.982-0.265,1.693-0.649,2.575-0.988c1.901-0.68,3.473-1.249,5.005-1.471c0.641-0.051,1.314,0.395,1.649,0.582l1.252-0.216 c2.879,8.928,8.912,16.143,16.551,20.667l-0.521,1.251c0.188,0.486,0.395,1.144,0.255,1.623c-0.558,1.443-1.511,2.969-2.597,4.669 c-0.527,0.784-1.065,1.396-1.54,2.292c-0.113,0.217-0.258,0.547-0.369,0.775c-0.736,1.577-0.196,3.395,1.222,4.077 c1.425,0.687,3.195-0.038,3.961-1.618c0-0.004,0.005-0.005,0.006-0.009c0-0.001,0-0.002,0-0.003 c0.109-0.226,0.264-0.521,0.355-0.729c0.407-0.933,0.542-1.73,0.829-2.633c0.758-1.906,1.176-3.908,2.222-5.157 c0.286-0.341,0.753-0.473,1.236-0.601l0.651-1.178c6.659,2.557,14.114,3.243,21.562,1.552c1.698-0.386,3.338-0.884,4.924-1.483 c0.182,0.324,0.522,0.946,0.613,1.103c0.493,0.162,1.028,0.245,1.467,0.889c0.781,1.337,1.315,2.917,1.968,4.827 c0.285,0.9,0.427,1.698,0.833,2.631c0.093,0.211,0.247,0.512,0.355,0.736c0.764,1.588,2.541,2.313,3.968,1.625 c1.417-0.682,1.959-2.501,1.22-4.077c-0.11-0.228-0.26-0.558-0.374-0.774c-0.475-0.898-1.013-1.499-1.539-2.287 c-1.088-1.7-1.989-3.111-2.546-4.557c-0.233-0.745,0.039-1.208,0.22-1.692c-0.108-0.124-0.341-0.828-0.479-1.161 c7.94-4.686,13.796-12.169,16.547-20.812c0.371,0.059,1.017,0.172,1.227,0.215c0.432-0.284,0.829-0.655,1.607-0.595 c1.532,0.222,3.104,0.791,5.003,1.472c0.883,0.339,1.594,0.73,2.576,0.994c0.208,0.056,0.505,0.107,0.742,0.16 c0.02,0.002,0.035,0.013,0.054,0.017c0.013,0.004,0.032,0.004,0.043,0.006c1.703,0.367,3.355-0.564,3.704-2.097 c0.35-1.532-0.736-3.086-2.427-3.495c-0.247-0.057-0.596-0.152-0.835-0.196c-0.999-0.189-1.812-0.143-2.753-0.222 c-2.007-0.21-3.668-0.381-5.145-0.845c-0.603-0.234-1.031-0.95-1.24-1.246l-1.159-0.337c0.601-4.348,0.439-8.872-0.602-13.4 c-1.049-4.569-2.904-8.749-5.378-12.431c0.298-0.271,0.859-0.768,1.019-0.913c0.047-0.516,0.006-1.056,0.54-1.625 c1.127-1.06,2.552-1.938,4.268-3c0.814-0.479,1.567-0.788,2.385-1.392c0.185-0.137,0.437-0.353,0.631-0.509 c1.376-1.098,1.694-2.992,0.705-4.231c-0.987-1.239-2.904-1.356-4.28-0.258c-0.197,0.156-0.462,0.358-0.639,0.51 c-0.77,0.662-1.247,1.318-1.895,2.004c-1.414,1.439-2.583,2.638-3.868,3.502c-0.558,0.323-1.373,0.211-1.743,0.189l-1.091,0.779 c-6.224-6.528-14.7-10.701-23.825-11.511c-0.025-0.382-0.06-1.074-0.068-1.282c-0.373-0.356-0.824-0.662-0.938-1.436 c-0.124-1.543,0.084-3.203,0.326-5.206c0.132-0.936,0.354-1.713,0.392-2.729c0.009-0.231-0.005-0.566-0.006-0.816 C409.566,325.117,408.282,323.69,406.697,323.69z M403.103,345.95l-0.852,15.056l-0.062,0.03 c-0.058,1.348-1.166,2.423-2.527,2.423c-0.557,0-1.072-0.18-1.49-0.485l-0.023,0.012l-12.345-8.75 c3.794-3.731,8.647-6.488,14.24-7.758C401.064,346.247,402.086,346.074,403.103,345.95z M410.296,345.95 c6.53,0.804,12.569,3.761,17.196,8.292l-12.265,8.695l-0.043-0.018c-1.088,0.795-2.623,0.598-3.471-0.467 c-0.347-0.436-0.53-0.948-0.552-1.465l-0.013-0.006L410.296,345.95z M381.326,359.859l11.272,10.083l-0.012,0.062 c1.017,0.884,1.167,2.418,0.318,3.482c-0.348,0.436-0.813,0.729-1.312,0.865l-0.012,0.049l-14.448,4.17 C376.396,371.845,377.981,365.309,381.326,359.859z M431.987,359.865c1.674,2.714,2.943,5.746,3.699,9.033 c0.745,3.249,0.933,6.489,0.625,9.623l-14.522-4.183l-0.012-0.062c-1.3-0.355-2.099-1.678-1.797-3.004 c0.124-0.544,0.413-1.004,0.803-1.343l-0.006-0.031L431.987,359.865z M404.384,370.721h4.618l2.869,3.586l-1.03,4.477 l-4.145,1.993l-4.158-1.999l-1.031-4.476L404.384,370.721z M419.188,382.997c0.196-0.01,0.392,0.007,0.584,0.044l0.024-0.032 l14.945,2.527c-2.187,6.144-6.373,11.468-11.964,15.03l-5.802-14.012l0.019-0.024c-0.533-1.239,0-2.691,1.226-3.282 C418.533,383.097,418.861,383.013,419.188,382.997L419.188,382.997z M394.088,383.058c1.141,0.016,2.164,0.808,2.43,1.969 c0.124,0.543,0.062,1.081-0.142,1.558l0.042,0.055l-5.74,13.873c-5.368-3.444-9.641-8.602-11.928-14.928l14.815-2.514l0.025,0.03 C393.757,383.071,393.925,383.057,394.088,383.058L394.088,383.058z M406.605,389.135c0.396-0.013,0.8,0.067,1.183,0.253 c0.502,0.241,0.891,0.624,1.136,1.077h0.055l7.303,13.2c-0.948,0.316-1.922,0.589-2.919,0.813 c-5.586,1.268-11.154,0.887-16.196-0.834l7.285-13.172h0.014C404.901,389.655,405.729,389.168,406.605,389.135z"/><path fill="#FFF" stroke="#326DE6" stroke-width="1.6" stroke-linecap="round" stroke-linejoin="round" stroke-miterlimit="10" d="M505.218 306.853L416.153 255.314 416.153 152.239 505.218 100.951 594.534 152.239 594.534 255.314z"/><path fill="#326DE6" d="M416.153 224.542L416.153 255.314 505.218 306.853 531.738 291.341z"/><path fill="#A0CAEA" d="M463.188 276.58L471.444 262.57 521.48 291.341 505.218 300.849z"/><g fill="#FFF"><path d="M477.948,271.326c1.001,0.501,1.501,1.251,1.751,2.252c0.25,1,0,1.751-0.5,2.752l-0.5,1.001 c-0.5,1.001-1.251,1.501-2.252,1.751c-1.001,0.25-1.751,0-2.751-0.5l-3.003-1.751l0.25-0.5l1.001,0.25l3.251-5.754l-0.75-0.5 l0.25-0.751l0.75,0.5L477.948,271.326z M476.447,271.326l-3.253,5.754l1.251,0.75c0.75,0.501,1.25,0.501,2.001,0.25 c0.75-0.25,1.25-0.75,1.502-1.25l0.5-1.001c0.5-0.75,0.5-1.251,0.5-2.001c-0.25-0.751-0.5-1.251-1.251-1.501L476.447,271.326z"/><path d="M479.449,278.081c0.5-0.75,1-1.25,1.751-1.501c0.75-0.25,1.502-0.25,2.252,0.25s1.25,1,1.25,1.751 c0.25,0.75,0,1.501-0.5,2.251l0,0c-0.5,0.75-1,1.25-1.751,1.5c-0.75,0.251-1.5,0.251-2.252-0.25c-0.75-0.5-1.25-1-1.25-1.75 C478.949,279.832,478.949,279.082,479.449,278.081L479.449,278.081z M480.45,278.832c-0.25,0.5-0.5,1-0.5,1.501 c0,0.5,0.25,1,0.751,1.25c0.5,0.25,1,0.25,1.25,0c0.5-0.25,0.751-0.75,1.251-1.25l0,0c0.25-0.501,0.5-1.001,0.5-1.501 s-0.25-1.001-0.75-1.251c-0.501-0.25-1.001-0.25-1.501,0C480.951,277.831,480.951,278.081,480.45,278.832L480.45,278.832z"/><path d="M486.455,284.837c0.25,0.25,0.751,0.25,1.001,0.25c0.25,0,0.5-0.25,0.75-0.501l1,0.501l0,0 c-0.25,0.5-0.75,0.75-1.25,0.75c-0.75,0-1.251,0-1.751-0.25c-0.75-0.5-1.251-1.001-1.251-1.751s0-1.501,0.501-2.251v-0.25 c0.5-0.75,1-1.25,1.751-1.502c0.75-0.25,1.5-0.25,2.25,0.251c0.501,0.25,0.751,0.5,1.001,1c0.25,0.25,0.5,0.75,0.5,1l-0.75,1.251 l-0.751-0.5l0.25-1.001c0-0.25-0.25-0.25-0.25-0.5c-0.25-0.25-0.25-0.25-0.5-0.5c-0.5-0.25-1-0.25-1.5,0 c-0.501,0.25-0.751,0.75-1.001,1.25v0.25c-0.25,0.501-0.5,1.001-0.5,1.501C485.704,284.335,485.954,284.585,486.455,284.837z"/><path d="M492.959,280.083l0.25-0.751l1.751,1.001l-2.501,4.503l0.5,0.25l2.001-0.751l-0.5-0.25l0.25-0.75 l2.252,1.25l-0.25,0.751l-0.751-0.25l-2.502,0.75l0.5,3.252l0.501,0.501l-0.251,0.5l-2.25-1.251l0.25-0.5l0.5,0.25l-0.5-2.502 l-0.751-0.25l-0.25,1.752l0.751,0.5l-0.251,0.5l-2.502-1.5l0.25-0.501l1.001,0.25l3.502-6.254L492.959,280.083z"/><path d="M497.463,292.342c-0.75-0.5-1.251-1.001-1.251-1.752c0-0.75,0-1.501,0.501-2.251v-0.25 c0.5-0.75,1-1.251,1.75-1.501c0.751-0.25,1.501-0.25,2.002,0.25c0.751,0.501,1.251,1.001,1.251,1.501c0,0.75,0,1.251-0.5,2.001 l-0.25,0.5l-3.503-2.002l0,0c-0.25,0.501-0.5,1.001-0.25,1.501c0,0.5,0.25,0.75,0.75,1c0.25,0.251,0.75,0.251,1.001,0.251 c0.25,0,0.5,0,0.75,0v0.75c-0.25,0-0.75,0-1.001,0C498.463,292.842,497.963,292.592,497.463,292.342z M500.214,287.589 c-0.25-0.25-0.75-0.25-1,0c-0.501,0.25-0.751,0.5-1.001,0.75l0,0l2.502,1.501v-0.25c0.251-0.501,0.251-0.751,0.251-1.251 C500.715,288.089,500.465,287.839,500.214,287.589z"/><path d="M503.468,289.34l0.25-0.751l1.75,1.001l-0.25,0.75c0.25-0.25,0.501-0.25,1.001-0.25c0.25,0,0.5,0,1,0.25 c0,0,0.25,0,0.25,0.25c0,0,0.25,0,0.25,0.25l-0.75,0.751l-0.5-0.251c-0.25-0.25-0.5-0.25-0.75-0.25c-0.251,0-0.501,0-0.751,0.25 l-1.751,3.003l0.751,0.5l-0.25,0.5l-2.502-1.501l0.25-0.5l1,0.25l2.251-3.752L503.468,289.34z"/></g><g fill="#FFF"><path d="M429.412,243.306l0.25-0.75l1.751,1l-2.501,4.503l0.5,0.25l2.001-0.75l-0.5-0.25l0.25-0.75l2.252,1.251 l-0.25,0.751l-0.75-0.251l-2.503,0.751l0.501,3.252l0.5,0.5l-0.25,0.501l-2.251-1.251l0.25-0.501l0.5,0.25l-0.5-2.501l-0.75-0.25 l-1.001,1.751l0.751,0.5l-0.251,0.5l-2.502-1.5l0.25-0.5l1.001,0.25l3.502-6.255L429.412,243.306z"/><path d="M435.667,255.565c-0.25,0.25-0.75,0.25-1,0.25c-0.251,0-0.751,0-1.001-0.25c-0.5-0.25-1-0.75-1-1.251 s0-1.251,0.5-2.001l1.501-2.502l-0.501-0.5l0.251-0.75l0.5,0.25l1,0.5l-1.751,3.252c-0.25,0.5-0.5,1.001-0.5,1.251 s0.25,0.5,0.5,0.751c0.251,0.25,0.751,0.25,1.001,0.25s0.5,0,0.75-0.25l1.752-3.003l-0.75-0.5l0.25-0.75l0.75,0.5l1,0.5 l-2.752,4.503l0.501,0.5l-0.251,0.501l-1.5-0.751L435.667,255.565z"/><path d="M443.924,258.067c-0.501,0.75-1.001,1.25-1.752,1.5c-0.75,0.25-1.251,0.25-2.001-0.25 c-0.25-0.25-0.5-0.5-0.75-0.75s-0.25-0.5-0.25-1.001l-0.501,0.751l-0.75-0.5l4.003-7.005l-0.751-0.5l0.251-0.751l1.75,1.001 l-1.75,3.002c0.25-0.25,0.5-0.25,1-0.25c0.25,0,0.75,0,1,0.25c0.751,0.5,1.001,1.001,1.001,1.751 C444.674,256.315,444.424,257.066,443.924,258.067L443.924,258.067z M442.922,257.316c0.25-0.5,0.5-1.251,0.5-1.751 c0-0.5-0.25-1-0.75-1.251c-0.25-0.25-0.5-0.25-1-0.25c-0.25,0-0.501,0.25-0.751,0.25l-1.25,2.251c0,0.25,0,0.5,0.25,0.75 s0.25,0.5,0.75,0.751c0.5,0.25,1.001,0.25,1.251,0C442.422,258.317,442.672,258.067,442.922,257.316L442.922,257.316z"/><path d="M445.925,262.57c-0.751-0.501-1.251-1.001-1.251-1.752c0-0.75,0-1.501,0.5-2.251v-0.25 c0.5-0.751,1.001-1.251,1.751-1.501c0.75-0.25,1.502-0.25,2.002,0.25c0.75,0.5,1.25,1.001,1.25,1.501c0,0.75,0,1.251-0.5,2.001 l-0.25,0.5l-3.502-2.001l0,0c-0.251,0.5-0.501,1.001-0.251,1.501c0,0.5,0.251,0.751,0.751,1.001c0.25,0.25,0.75,0.25,1,0.25 s0.5,0,0.75,0v0.751c-0.25,0-0.75,0-1,0C446.675,263.07,446.425,262.82,445.925,262.57z M448.427,257.566 c-0.251-0.25-0.751-0.25-1.001,0c-0.5,0.25-0.75,0.501-1,0.751l0,0l2.502,1.501v-0.25c0.25-0.5,0.25-0.75,0.25-1.25 C449.177,258.317,448.927,257.816,448.427,257.566z"/><path d="M452.929,257.066l0.251-0.751l1.75,1.001l-4.002,7.005l0.75,0.5l-0.25,0.5l-2.501-1.501l0.25-0.5l1,0.25 l3.503-6.255L452.929,257.066z"/><path d="M454.431,267.574c-0.75-0.5-1.25-1.001-1.25-1.751c-0.251-0.751,0-1.501,0.5-2.252v-0.25 c0.5-0.75,1-1.251,1.751-1.501c0.75-0.25,1.5-0.25,2,0.25c0.751,0.501,1.251,1.001,1.251,1.501c0,0.75,0,1.251-0.5,2.001 l-0.25,0.501l-3.503-2.001l0,0c-0.25,0.5-0.5,1-0.25,1.5c0,0.501,0.25,0.751,0.75,1.001c0.251,0.25,0.751,0.25,1.001,0.25 s0.5,0,0.75,0v0.75c-0.25,0-0.75,0-1,0C455.432,267.824,454.931,267.824,454.431,267.574z M457.183,262.57 c-0.25-0.25-0.75-0.25-1,0c-0.5,0.25-0.75,0.5-1,0.75l0,0l2.501,1.501v-0.25c0.25-0.5,0.25-0.751,0.25-1.251 C457.684,263.07,457.433,262.82,457.183,262.57z"/><path d="M463.188,263.571l-0.75,1.251l1,0.5l-0.5,0.751l-1.001-0.501l-2,3.252c-0.25,0.25-0.25,0.501-0.25,0.501 c0,0.25,0.25,0.25,0.25,0.5c0,0,0.25,0,0.25,0.25h0.25l-0.25,0.751c-0.25,0-0.25,0-0.5,0c-0.251,0-0.501-0.25-0.501-0.25 c-0.5-0.251-0.75-0.501-0.75-1.001c0-0.5,0-0.751,0.25-1.251l2.001-3.252l-0.75-0.5l0.5-0.751l0.75,0.5l0.75-1.251 L463.188,263.571z"/></g><path fill="#FFF" stroke="#326DE6" stroke-width="1.6" stroke-linecap="round" stroke-linejoin="round" stroke-miterlimit="10" d="M399.39 255.314L310.075 306.853 221.009 255.314 221.009 152.489 310.075 100.951 399.39 152.489z"/><path fill="#326DE6" d="M283.555 291.341L310.075 306.853 399.39 255.314 399.14 224.792z"/><path fill="#A0CAEA" d="M352.105 276.58L344.1 262.57 394.137 233.548 394.137 252.312z"/><g fill="#FFF"><path d="M355.108,261.319c1-0.501,1.751-0.751,2.751-0.501c1.001,0.25,1.501,0.751,2.252,1.752l0.5,1 c0.5,1,0.75,1.751,0.5,2.752c-0.25,1.001-0.75,1.751-1.751,2.251l-3.002,1.751l-0.25-0.5l0.75-0.5l-3.252-5.754l-1.001,0.25 l-0.25-0.75l0.75-0.5L355.108,261.319z M354.357,262.82l3.252,5.754l1.251-0.75c0.751-0.5,1.001-1,1.251-1.501 c0.25-0.751,0-1.251-0.5-2.001l-0.501-1.001c-0.5-0.75-1-1.251-1.501-1.251c-0.75-0.25-1.251-0.25-2.001,0.251L354.357,262.82z"/><path d="M361.863,263.571c-0.5-0.75-0.5-1.501-0.5-2.251c0.25-0.751,0.5-1.251,1.25-1.752 c0.751-0.5,1.501-0.5,2.252-0.25s1.251,0.751,1.751,1.501l0,0c0.5,0.751,0.5,1.502,0.5,2.252c-0.25,0.75-0.5,1.251-1.251,1.751 c-0.75,0.5-1.5,0.5-2.251,0.25C362.864,265.072,362.363,264.321,361.863,263.571L361.863,263.571z M362.864,263.07 c0.25,0.5,0.75,1.001,1.25,1.251c0.5,0.25,1.001,0.25,1.501,0c0.5-0.25,0.751-0.75,0.751-1.251c0-0.5,0-1.001-0.501-1.501l0,0 c-0.25-0.501-0.75-1.001-1.25-1.251s-1.001-0.25-1.501,0c-0.501,0.25-0.751,0.75-0.751,1.251 C362.363,262.069,362.363,262.32,362.864,263.07L362.864,263.07z"/><path d="M371.12,260.818c0.25-0.25,0.5-0.5,0.75-0.75c0.251-0.25,0-0.751,0-1.001l0.751-0.5l0,0 c0.25,0.5,0.25,1,0,1.501c-0.25,0.5-0.5,1-1.251,1.501c-0.75,0.5-1.501,0.5-2.251,0.25c-0.751-0.25-1.251-0.75-1.751-1.501v-0.25 c-0.501-0.751-0.501-1.501-0.501-2.252s0.501-1.25,1.251-1.751c0.5-0.25,0.751-0.5,1.251-0.5c0.5,0,0.75,0,1.251,0l0.75,1.251 l-0.75,0.5l-0.75-0.75c-0.25,0-0.5,0-0.5,0c-0.25,0-0.5,0-0.75,0.25c-0.5,0.25-0.75,0.75-0.75,1.251c0,0.5,0.25,1,0.5,1.5v0.251 c0.25,0.5,0.751,1,1.001,1.251C370.119,261.319,370.619,261.319,371.12,260.818z"/><path d="M370.119,252.812l-0.25-0.75l1.751-1.001l2.502,4.503l0.5-0.25l0.25-2.001l-0.5,0.25l-0.25-0.751 l2.251-1.251l0.251,0.751l-0.501,0.5l-0.5,2.502l3.002,1.251l0.75-0.251l0.25,0.501l-2.251,1.251l-0.25-0.501l0.5-0.25 l-2.502-1.001l-0.75,0.251l1.001,1.751l1-0.25l0.251,0.5l-2.502,1.501l-0.25-0.501l0.75-0.5l-3.502-6.505L370.119,252.812z"/><path d="M383.128,255.064c-0.75,0.5-1.5,0.5-2.251,0.25c-0.75-0.25-1.251-0.75-1.751-1.501l-0.25-0.25 c-0.5-0.751-0.5-1.501-0.5-2.252c0.25-0.75,0.5-1.251,1.25-1.751c0.751-0.5,1.501-0.5,2.002-0.25c0.5,0.25,1.25,0.75,1.5,1.501 l0.251,0.5l-3.502,2.002l0,0c0.25,0.5,0.75,0.75,1,1c0.5,0.25,1.001,0.25,1.251,0c0.25-0.25,0.5-0.5,0.75-0.75 s0.25-0.501,0.501-0.751l0.75,0.501c0,0.25-0.25,0.5-0.5,1C383.879,254.564,383.378,254.814,383.128,255.064z M380.126,250.311 c-0.251,0.25-0.501,0.5-0.501,1s0,0.751,0.251,1.251l0,0l2.501-1.501v-0.25c-0.25-0.5-0.5-0.75-0.75-0.75 C380.876,250.061,380.626,250.061,380.126,250.311z"/><path d="M383.128,248.56l-0.25-0.751l1.752-1.001l0.5,0.751c0-0.25,0-0.751,0.25-1.001s0.25-0.5,0.751-0.75h0.25 h0.25l0.5,1l-0.5,0.25c-0.25,0.25-0.5,0.25-0.5,0.5c0,0.25-0.25,0.5,0,0.75l1.751,3.002l1-0.25l0.251,0.5l-2.502,1.501l-0.25-0.5 l0.75-0.5l-2.251-3.753L383.128,248.56z"/></g><g fill="#FFF"><path d="M306.321,289.59l-0.25-0.751l1.751-1l2.502,4.503l0.5-0.25l0.251-2.001l-0.501,0.25l-0.25-0.75 l2.251-1.251l0.25,0.75l-0.5,0.501l-0.5,2.501l3.002,1.25l0.75-0.25l0.251,0.5l-2.252,1.251l-0.25-0.5l0.5-0.25l-2.501-1.001 l-0.751,0.25l1.001,1.751l1-0.25l0.25,0.5l-2.502,1.502l-0.25-0.5l0.75-0.501l-3.502-6.254H306.321z"/><path d="M320.082,290.09c0,0.5,0,0.75-0.25,1s-0.5,0.5-0.751,0.751c-0.5,0.25-1.25,0.5-1.751,0.25 c-0.5-0.25-1-0.751-1.5-1.501l-1.502-2.501l-0.75,0.25l-0.25-0.75l0.5-0.25l1.001-0.501l1.751,3.253c0.25,0.5,0.75,1,1.001,1 c0.25,0,0.5,0,1-0.25c0.25-0.25,0.5-0.5,0.75-0.75s0.25-0.5,0.25-1.001l-1.751-3.002l-0.75,0.25l-0.25-0.75l0.751-0.5l1-0.501 l2.752,4.503l0.75-0.25l0.25,0.501l-1.501,0.75H320.082z"/><path d="M326.336,284.335c0.5,0.751,0.5,1.501,0.5,2.252c0,0.751-0.5,1.251-1.001,1.501 c-0.25,0.25-0.75,0.25-1,0.25s-0.75,0-1-0.25l0.25,0.75l-0.751,0.501l-4.002-7.006l-1.001,0.251l-0.25-0.751l1.751-1l1.751,3.002 c0-0.25,0.25-0.75,0.25-1c0.25-0.25,0.5-0.501,0.751-0.751c0.75-0.5,1.251-0.5,2.001,0 C325.336,282.585,325.836,283.335,326.336,284.335L326.336,284.335z M325.336,284.585c-0.25-0.5-0.751-1-1.251-1.25 c-0.501-0.25-1.001-0.25-1.251,0s-0.5,0.5-0.751,0.75c0,0.25-0.25,0.5-0.25,0.751l1.251,2.251c0.25,0.25,0.5,0.25,0.751,0.25 c0.25,0,0.5,0,1-0.25c0.501-0.251,0.751-0.501,0.751-1.001C325.836,285.837,325.836,285.337,325.336,284.585L325.336,284.585z"/><path d="M331.34,284.837c-0.75,0.5-1.501,0.5-2.251,0.25c-0.75-0.25-1.251-0.751-1.751-1.501l-0.25-0.25 c-0.501-0.75-0.501-1.501-0.501-2.252c0.25-0.75,0.501-1.251,1.251-1.751c0.751-0.5,1.501-0.5,2.001-0.25 c0.5,0.25,1.251,0.75,1.501,1.501l0.251,0.5l-3.503,2.002l0,0c0.251,0.5,0.751,0.75,1.001,1c0.5,0.25,1.001,0.25,1.251,0 c0.25-0.25,0.5-0.5,0.75-0.75s0.25-0.5,0.501-0.75l0.75,0.5c0,0.25-0.25,0.5-0.5,1 C332.091,284.335,331.841,284.585,331.34,284.837z M328.337,280.083c-0.25,0.25-0.5,0.5-0.5,1c0,0.5,0,0.75,0.25,1.25l0,0 l2.502-1.5v-0.25c-0.25-0.501-0.5-0.751-0.75-0.751C329.088,279.832,328.838,279.832,328.337,280.083z"/><path d="M330.089,276.08l-0.25-0.75l1.751-1.001l4.003,7.005l1.001-0.25l0.25,0.5l-2.502,1.501l-0.25-0.5 l0.75-0.501l-3.503-6.254L330.089,276.08z"/><path d="M340.097,279.832c-0.751,0.501-1.501,0.501-2.251,0.251c-0.751-0.251-1.251-0.751-1.752-1.501l-0.25-0.25 c-0.5-0.751-0.5-1.501-0.5-2.252c0.25-0.75,0.5-1.251,1.251-1.751c0.75-0.5,1.501-0.5,2.001-0.25 c0.5,0.25,1.251,0.75,1.501,1.501l0.25,0.5l-3.502,2.001l0,0c0.25,0.501,0.75,0.751,1.001,1.001c0.5,0.25,1,0.25,1.25,0 s0.5-0.5,0.751-0.75c0.25-0.251,0.25-0.501,0.5-0.751l0.751,0.5c0,0.251-0.25,0.501-0.501,1.001 C340.847,279.332,340.347,279.582,340.097,279.832z M337.094,275.08c-0.25,0.25-0.5,0.5-0.5,1c0,0.5,0,0.75,0.25,1.251l0,0 l2.501-1.501v-0.25c-0.25-0.5-0.5-0.751-0.75-0.751C337.845,274.829,337.344,274.829,337.094,275.08z"/><path d="M340.847,270.326l0.751,1.25l1.001-0.5l0.5,0.751l-1.001,0.5l2.002,3.252c0.25,0.25,0.25,0.5,0.5,0.5 c0.25,0,0.25,0,0.5,0c0,0,0.25,0,0.25-0.25l0.251-0.25l0.5,0.5c0,0-0.25,0.25-0.25,0.5c-0.25,0.25-0.25,0.25-0.501,0.25 c-0.5,0.25-0.75,0.25-1.25,0.25c-0.25,0-0.75-0.5-1.001-1l-1.751-3.252l-0.751,0.5l-0.5-0.75l0.75-0.5l-0.75-1.251 L340.847,270.326z"/></g><path fill="#FFF" stroke="#326DE6" stroke-width="1.6" stroke-linecap="round" stroke-linejoin="round" stroke-miterlimit="10" d="M309.074 646.854L220.008 595.565 220.008 492.489 309.074 441.202 398.39 492.489 398.39 595.565z"/><path fill="#326DE6" d="M282.554 456.463L309.074 441.202 398.39 492.489 398.139 523.262z"/><path fill="#A0CAEA" d="M351.104 471.225L343.099 485.484 393.136 514.256 393.136 495.491z"/><g fill="#FFF"><path d="M308.073,452.211l0.25-0.752l1.751,1.002l-2.502,4.503l0.501,0.25l2.001-0.751l-0.501-0.25l0.25-0.75 l2.251,1.25l-0.25,0.751l-0.75-0.25l-2.502,0.75l0.5,3.252l0.5,0.502l-0.25,0.5l-2.251-1.252l0.25-0.5l0.5,0.25l-0.5-2.502 l-0.75-0.25l-1.001,1.752l0.75,0.5l-0.25,0.5l-2.501-1.5l0.25-0.502l1,0.251l3.503-6.254L308.073,452.211z"/><path d="M314.578,464.469c-0.25,0.25-0.75,0.25-1,0.25c-0.25,0-0.75,0-1.001-0.25c-0.5-0.25-1-0.75-1-1.251 c0-0.5,0-1.25,0.5-2.002l1.501-2.502l-0.5-0.5l0.25-0.75l0.5,0.25l1.001,0.5l-1.751,3.254c-0.25,0.5-0.5,1-0.5,1.25 s0.25,0.5,0.5,0.75c0.25,0.251,0.75,0.251,1,0.251s0.501,0,0.751-0.251l1.751-3.002l-0.75-0.5l0.25-0.75l0.75,0.5l1,0.5 l-2.752,4.503l0.5,0.501l-0.25,0.5l-1.501-0.75L314.578,464.469z"/><path d="M322.834,466.971c-0.5,0.75-1.001,1.25-1.751,1.502c-0.75,0.25-1.251,0.25-2.002-0.252 c-0.25-0.25-0.5-0.5-0.75-0.75s-0.25-0.5-0.25-1l-0.5,0.75l-0.751-0.5l4.003-7.005l-0.751-0.5l0.25-0.752l1.751,1.002 l-1.751,3.002c0.25-0.25,0.5-0.25,1-0.25c0.25,0,0.75,0,1.001,0.25c0.75,0.5,1,1,1,1.751 C323.584,465.22,323.334,465.97,322.834,466.971L322.834,466.971z M321.833,466.221c0.25-0.501,0.5-1.251,0.5-1.752 c0-0.5-0.25-1.001-0.75-1.251c-0.25-0.25-0.5-0.25-1-0.25c-0.25,0-0.501,0.25-0.751,0.25l-1.251,2.252c0,0.25,0,0.5,0.25,0.751 c0.25,0.25,0.25,0.5,0.751,0.75c0.5,0.25,1.001,0.25,1.251,0C321.083,467.221,321.583,466.721,321.833,466.221L321.833,466.221z"/><path d="M324.835,471.475c-0.75-0.5-1.251-1.002-1.251-1.752s0-1.502,0.501-2.252l0.25-0.25 c0.5-0.75,1.001-1.251,1.751-1.501s1.501-0.25,2.001,0.25c0.751,0.501,1.251,1.001,1.251,1.501c0,0.752,0,1.252-0.5,2.002 l-0.25,0.5l-3.502-2.002l0,0c-0.25,0.502-0.501,1.002-0.25,1.502c0,0.5,0.25,0.75,0.75,1c0.25,0.252,0.75,0.252,1,0.252 c0.25,0,0.5,0,0.751,0v0.75c-0.25,0-0.751,0-1.001,0C325.586,471.725,325.086,471.725,324.835,471.475z M327.337,466.471 c-0.25-0.25-0.751-0.25-1.001,0c-0.5,0.25-0.75,0.5-1,0.75l0,0l2.501,1.502v-0.25c0.25-0.502,0.25-0.752,0.25-1.252 S327.837,466.721,327.337,466.471z"/><path d="M331.841,465.97l0.25-0.75l1.751,1.001l-4.003,7.005l0.75,0.5l-0.25,0.5l-2.502-1.501l0.25-0.5 l1.001,0.25l3.502-6.254L331.841,465.97z"/><path d="M333.342,476.478c-0.751-0.5-1.251-1-1.251-1.751s0-1.501,0.5-2.252v-0.25 c0.501-0.75,1.001-1.25,1.751-1.5c0.75-0.252,1.501-0.252,2.001,0.25c0.75,0.5,1.251,1,1.251,1.5c0,0.751,0,1.251-0.5,2.002 l-0.25,0.5l-3.502-2.001l0,0c-0.25,0.5-0.501,1-0.25,1.501c0,0.5,0.25,0.751,0.75,1.001c0.25,0.25,0.751,0.25,1.001,0.25 s0.5,0,0.75,0v0.75c-0.25,0-0.75,0-1,0C334.342,476.728,333.842,476.728,333.342,476.478z M336.093,471.475 c-0.25-0.25-0.75-0.25-1,0c-0.25,0.25-0.75,0.5-1,0.75l0,0l2.502,1.501v-0.25c0.25-0.5,0.25-0.751,0.25-1.251 C336.594,471.975,336.344,471.725,336.093,471.475z"/><path d="M342.098,472.475l-0.75,1.251l1.001,0.5l-0.501,0.751l-1.001-0.5l-2.001,3.253 c-0.25,0.25-0.25,0.5-0.25,0.5c0,0.25,0.25,0.25,0.25,0.5c0,0,0.25,0,0.25,0.25h0.25l-0.25,0.75c-0.25,0-0.25,0-0.5,0 c-0.25,0-0.5-0.25-0.5-0.25c-0.5-0.25-0.751-0.5-0.751-1s0-0.75,0.25-1.252l2.001-3.252l-0.75-0.5l0.5-0.751l0.751,0.501 l0.75-1.251L342.098,472.475z"/></g><g fill="#FFF"><path d="M358.86,481.481c1.001,0.5,1.501,1.251,1.751,2.251c0.25,1.002,0,1.752-0.5,2.752l-0.5,1.002 c-0.501,1-1.251,1.501-2.252,1.751s-1.751,0-2.752-0.501l-3.002-1.75l0.25-0.502l1,0.252l3.252-5.755l-0.75-0.5l0.25-0.752 l0.75,0.501L358.86,481.481z M357.109,481.481l-3.252,5.755l1.251,0.75c0.75,0.5,1.25,0.5,2.001,0.25 c0.75-0.25,1.251-0.75,1.501-1.25l0.5-1.002c0.501-0.75,0.501-1.25,0.501-2.001c-0.25-0.751-0.501-1.251-1.251-1.501 L357.109,481.481z"/><path d="M360.361,488.236c0.5-0.75,1.001-1.25,1.751-1.5c0.751-0.252,1.501-0.252,2.252,0.25 c0.75,0.5,1.25,1,1.25,1.75c0.25,0.751,0,1.502-0.5,2.252l0,0c-0.5,0.751-1.001,1.251-1.751,1.501 c-0.751,0.25-1.501,0.25-2.252-0.25c-0.75-0.5-1.25-1-1.25-1.751C359.611,489.988,359.861,489.237,360.361,488.236 L360.361,488.236z M361.112,488.987c-0.25,0.5-0.5,1.001-0.5,1.501s0.25,1.001,0.75,1.251s1,0.25,1.25,0 c0.501-0.25,0.751-0.751,1.251-1.251l0,0c0.25-0.5,0.5-1.001,0.5-1.501c0-0.501-0.25-1.001-0.751-1.251 c-0.5-0.25-1.001-0.25-1.501,0C361.863,487.986,361.613,488.236,361.112,488.987L361.112,488.987z"/><path d="M367.116,494.991c0.251,0.25,0.751,0.25,1.001,0.25s0.5-0.25,0.751-0.5l0.75,0.5l0,0 c-0.25,0.5-0.75,0.752-1.251,0.752c-0.75,0-1.251,0-1.751-0.252c-0.751-0.5-1.251-1-1.251-1.75c0-0.751,0-1.502,0.5-2.252v-0.25 c0.501-0.751,1.001-1.251,1.752-1.501c0.75-0.25,1.501-0.25,2.251,0.25c0.5,0.25,0.75,0.5,1.001,1.001c0.25,0.25,0.5,0.75,0.5,1 l-0.75,1.251l-0.75-0.501l0.25-1c0-0.25-0.25-0.25-0.25-0.5c-0.25-0.25-0.25-0.25-0.5-0.501c-0.5-0.25-1.001-0.25-1.501,0 c-0.501,0.251-0.751,0.751-1.001,1.251v0.25c-0.25,0.5-0.5,1.001-0.5,1.502C366.366,494.241,366.616,494.741,367.116,494.991z"/><path d="M373.872,490.238l0.25-0.751l1.751,1.001l-2.502,4.503l0.5,0.25l2.001-0.75l-0.5-0.25l0.25-0.751 l2.251,1.251l-0.25,0.75l-0.75-0.25l-2.502,0.752l0.5,3.251l0.501,0.501l-0.251,0.5l-2.251-1.251l0.25-0.5l0.5,0.25l-0.5-2.501 l-0.75-0.25l-1.001,1.75l0.751,0.501l-0.251,0.5l-2.501-1.501l0.25-0.5l1,0.25l3.502-6.255L373.872,490.238z"/><path d="M378.375,502.496c-0.751-0.5-1.251-1-1.251-1.75c-0.25-0.751,0-1.502,0.5-2.252v-0.25 c0.5-0.751,1.001-1.251,1.751-1.501c0.751-0.25,1.501-0.25,2.001,0.25c0.75,0.5,1.251,1,1.251,1.501c0,0.75,0,1.251-0.5,2.002 l-0.25,0.5l-3.502-2.002l0,0c-0.25,0.501-0.5,1.001-0.25,1.502c0,0.5,0.25,0.75,0.75,1c0.25,0.25,0.75,0.25,1,0.25 c0.251,0,0.501,0,0.751,0v0.75c-0.25,0-0.751,0-1.001,0C379.125,502.998,378.625,502.748,378.375,502.496z M380.876,497.493 c-0.25-0.25-0.75-0.25-1.001,0c-0.5,0.25-0.75,0.5-1,0.751l0,0l2.501,1.501v-0.25c0.25-0.501,0.25-0.751,0.25-1.251 C381.627,498.244,381.377,497.743,380.876,497.493z"/><path d="M384.129,499.495l0.25-0.751l1.752,1.001l-0.25,0.751c0.25-0.251,0.5-0.251,1.001-0.251 c0.25,0,0.5,0,1,0.251c0,0,0.25,0,0.25,0.25c0,0,0.25,0,0.25,0.25l-0.751,0.75l-0.5-0.25c-0.25-0.25-0.5-0.25-0.75-0.25 s-0.5,0-0.751,0.25l-1.751,3.002l0.751,0.501l-0.251,0.501l-2.501-1.502l0.25-0.5l1,0.25l2.252-3.753L384.129,499.495z"/></g><g fill="none" stroke="#011F38" stroke-linecap="round" stroke-linejoin="round" stroke-miterlimit="10"><path d="M843.969 415.826L447.426 415.826"/><path d="M843.969 156.925L550.752 156.925"/></g><g><path d="M248.092,740.903c-0.548-0.879-1.193-1.83-1.937-2.852c-0.743-1.021-1.544-2.051-2.403-3.089 c-0.858-1.037-1.757-2.032-2.695-2.984c-0.938-0.951-1.876-1.792-2.814-2.522v11.447h-6.084v-27.027h6.084v10.158 c1.564-1.644,3.154-3.361,4.767-5.156c1.614-1.793,3.104-3.46,4.471-5.002h7.22c-1.839,2.19-3.689,4.297-5.551,6.318 c-1.861,2.021-3.82,4.056-5.876,6.104c2.162,1.804,4.248,3.942,6.256,6.418s3.939,5.204,5.794,8.188H248.092z"/><path d="M274.595,740.201c-0.988,0.286-2.262,0.553-3.822,0.8c-1.56,0.247-3.198,0.37-4.914,0.37 c-1.743,0-3.192-0.233-4.349-0.702c-1.157-0.468-2.074-1.124-2.75-1.969c-0.677-0.845-1.157-1.853-1.443-3.022 c-0.286-1.171-0.429-2.457-0.429-3.861v-11.428h5.811v10.726c0,1.872,0.247,3.225,0.741,4.056 c0.494,0.833,1.417,1.248,2.769,1.248c0.416,0,0.858-0.02,1.326-0.059c0.468-0.039,0.884-0.084,1.248-0.136v-15.835h5.811V740.201 z"/><path d="M298.841,730.646c0,1.638-0.241,3.12-0.722,4.445c-0.481,1.326-1.177,2.457-2.086,3.394 c-0.91,0.936-2.028,1.657-3.354,2.164c-1.326,0.508-2.834,0.761-4.524,0.761c-0.702,0-1.437-0.033-2.204-0.098 c-0.767-0.064-1.521-0.149-2.262-0.253c-0.741-0.104-1.45-0.228-2.125-0.371c-0.676-0.143-1.274-0.292-1.794-0.448v-28.665 l5.811-0.937v10.219c0.65-0.286,1.326-0.508,2.028-0.663c0.702-0.156,1.456-0.234,2.262-0.234c1.456,0,2.743,0.254,3.861,0.761 c1.117,0.507,2.053,1.229,2.808,2.164c0.754,0.937,1.326,2.062,1.716,3.374C298.646,727.572,298.841,729.034,298.841,730.646z M292.913,730.49c0-3.744-1.378-5.616-4.134-5.616c-0.599,0-1.189,0.078-1.774,0.234c-0.585,0.155-1.06,0.351-1.424,0.585v10.569 c0.286,0.052,0.65,0.097,1.092,0.136c0.441,0.039,0.922,0.059,1.443,0.059c1.585,0,2.782-0.546,3.588-1.638 C292.509,733.728,292.913,732.284,292.913,730.49z"/><path d="M302.085,730.802c0-1.819,0.279-3.412,0.839-4.777c0.559-1.365,1.293-2.502,2.203-3.412s1.957-1.6,3.14-2.067 s2.398-0.702,3.646-0.702c2.912,0,5.213,0.892,6.903,2.672c1.69,1.781,2.535,4.401,2.535,7.858c0,0.338-0.014,0.709-0.039,1.111 c-0.026,0.403-0.053,0.761-0.078,1.073h-13.182c0.13,1.196,0.688,2.145,1.677,2.847c0.988,0.702,2.314,1.053,3.978,1.053 c1.066,0,2.112-0.098,3.14-0.292c1.027-0.195,1.865-0.436,2.516-0.722l0.78,4.719c-0.312,0.156-0.728,0.312-1.248,0.468 c-0.521,0.156-1.099,0.293-1.736,0.41c-0.637,0.117-1.32,0.214-2.047,0.292c-0.729,0.078-1.457,0.117-2.184,0.117 c-1.847,0-3.452-0.272-4.816-0.819c-1.365-0.546-2.496-1.293-3.393-2.242c-0.897-0.948-1.56-2.073-1.989-3.373 C302.3,733.715,302.085,732.311,302.085,730.802z M315.735,728.579c-0.026-0.493-0.111-0.975-0.253-1.443 c-0.144-0.468-0.365-0.883-0.663-1.248c-0.299-0.363-0.676-0.662-1.131-0.896s-1.021-0.352-1.696-0.352 c-0.65,0-1.209,0.111-1.677,0.332c-0.468,0.221-0.858,0.514-1.17,0.878s-0.553,0.786-0.721,1.267 c-0.169,0.481-0.292,0.97-0.371,1.463H315.735z"/><path d="M337.97,725.537c-0.521-0.13-1.131-0.267-1.833-0.409s-1.457-0.215-2.262-0.215c-0.364,0-0.799,0.033-1.307,0.098 c-0.507,0.065-0.891,0.137-1.15,0.215v15.678h-5.811v-19.422c1.04-0.364,2.268-0.708,3.686-1.034 c1.417-0.324,2.997-0.487,4.739-0.487c0.312,0,0.688,0.02,1.131,0.059c0.442,0.039,0.884,0.092,1.326,0.156 c0.441,0.065,0.883,0.143,1.326,0.233c0.442,0.092,0.819,0.202,1.131,0.332L337.97,725.537z"/><path d="M341.928,721.091c0.988-0.285,2.262-0.552,3.822-0.799s3.198-0.371,4.914-0.371c1.741,0,3.191,0.229,4.348,0.683 c1.157,0.455,2.073,1.099,2.75,1.931c0.676,0.832,1.156,1.82,1.443,2.964c0.286,1.145,0.429,2.418,0.429,3.822v11.583h-5.811 v-10.881c0-1.872-0.247-3.198-0.741-3.979c-0.494-0.78-1.417-1.17-2.769-1.17c-0.417,0-0.858,0.02-1.326,0.059 c-0.468,0.039-0.884,0.085-1.248,0.137v15.834h-5.811V721.091z"/><path d="M363.592,730.802c0-1.819,0.279-3.412,0.839-4.777c0.559-1.365,1.293-2.502,2.203-3.412s1.957-1.6,3.14-2.067 s2.398-0.702,3.646-0.702c2.912,0,5.213,0.892,6.903,2.672c1.69,1.781,2.535,4.401,2.535,7.858c0,0.338-0.014,0.709-0.039,1.111 c-0.026,0.403-0.053,0.761-0.078,1.073H369.56c0.13,1.196,0.688,2.145,1.677,2.847c0.988,0.702,2.314,1.053,3.978,1.053 c1.066,0,2.112-0.098,3.14-0.292c1.027-0.195,1.865-0.436,2.516-0.722l0.78,4.719c-0.312,0.156-0.728,0.312-1.248,0.468 c-0.521,0.156-1.099,0.293-1.736,0.41c-0.637,0.117-1.32,0.214-2.047,0.292c-0.729,0.078-1.457,0.117-2.184,0.117 c-1.847,0-3.452-0.272-4.816-0.819c-1.365-0.546-2.496-1.293-3.393-2.242c-0.897-0.948-1.56-2.073-1.989-3.373 C363.807,733.715,363.592,732.311,363.592,730.802z M377.243,728.579c-0.026-0.493-0.111-0.975-0.253-1.443 c-0.144-0.468-0.365-0.883-0.663-1.248c-0.299-0.363-0.676-0.662-1.131-0.896s-1.021-0.352-1.696-0.352 c-0.65,0-1.209,0.111-1.677,0.332c-0.468,0.221-0.858,0.514-1.17,0.878s-0.553,0.786-0.721,1.267 c-0.169,0.481-0.292,0.97-0.371,1.463H377.243z"/><path d="M386.887,715.28l5.811-0.937v6.045h6.981v4.837h-6.981v7.215c0,1.223,0.214,2.197,0.644,2.925 c0.429,0.729,1.293,1.092,2.593,1.092c0.624,0,1.268-0.059,1.931-0.175c0.663-0.117,1.268-0.279,1.813-0.488l0.819,4.524 c-0.702,0.286-1.482,0.533-2.34,0.741s-1.911,0.312-3.159,0.312c-1.586,0-2.899-0.214-3.939-0.644 c-1.04-0.429-1.872-1.026-2.496-1.794c-0.624-0.767-1.06-1.696-1.306-2.788c-0.248-1.092-0.371-2.302-0.371-3.627V715.28z"/><path d="M402.748,730.802c0-1.819,0.279-3.412,0.839-4.777c0.559-1.365,1.293-2.502,2.203-3.412s1.957-1.6,3.14-2.067 s2.398-0.702,3.646-0.702c2.912,0,5.213,0.892,6.903,2.672c1.69,1.781,2.535,4.401,2.535,7.858c0,0.338-0.014,0.709-0.039,1.111 c-0.026,0.403-0.053,0.761-0.078,1.073h-13.182c0.13,1.196,0.688,2.145,1.677,2.847c0.988,0.702,2.314,1.053,3.978,1.053 c1.066,0,2.112-0.098,3.14-0.292c1.027-0.195,1.865-0.436,2.516-0.722l0.78,4.719c-0.312,0.156-0.728,0.312-1.248,0.468 c-0.521,0.156-1.099,0.293-1.736,0.41c-0.637,0.117-1.32,0.214-2.047,0.292c-0.729,0.078-1.457,0.117-2.184,0.117 c-1.847,0-3.452-0.272-4.816-0.819c-1.365-0.546-2.496-1.293-3.393-2.242c-0.897-0.948-1.56-2.073-1.989-3.373 C402.963,733.715,402.748,732.311,402.748,730.802z M416.398,728.579c-0.026-0.493-0.111-0.975-0.253-1.443 c-0.144-0.468-0.365-0.883-0.663-1.248c-0.299-0.363-0.676-0.662-1.131-0.896s-1.021-0.352-1.696-0.352 c-0.65,0-1.209,0.111-1.677,0.332c-0.468,0.221-0.858,0.514-1.17,0.878s-0.553,0.786-0.721,1.267 c-0.169,0.481-0.292,0.97-0.371,1.463H416.398z"/><path d="M432.073,736.73c1.066,0,1.82-0.104,2.262-0.312c0.441-0.207,0.663-0.61,0.663-1.209c0-0.468-0.286-0.877-0.858-1.229 c-0.572-0.351-1.443-0.747-2.613-1.189c-0.911-0.337-1.736-0.688-2.477-1.053c-0.741-0.364-1.372-0.8-1.892-1.307 c-0.521-0.507-0.923-1.111-1.209-1.813c-0.287-0.702-0.429-1.547-0.429-2.535c0-1.924,0.715-3.444,2.145-4.562 c1.43-1.118,3.393-1.678,5.889-1.678c1.248,0,2.444,0.111,3.588,0.332s2.054,0.462,2.73,0.722l-1.014,4.523 c-0.676-0.233-1.411-0.441-2.204-0.624c-0.793-0.182-1.684-0.272-2.671-0.272c-1.82,0-2.73,0.507-2.73,1.521 c0,0.234,0.039,0.442,0.117,0.624c0.078,0.183,0.234,0.357,0.468,0.526c0.234,0.17,0.552,0.353,0.956,0.549 c0.403,0.196,0.917,0.413,1.541,0.648c1.273,0.472,2.326,0.938,3.159,1.396c0.832,0.459,1.488,0.955,1.97,1.486 c0.481,0.532,0.819,1.122,1.014,1.771c0.195,0.648,0.292,1.401,0.292,2.257c0,2.023-0.761,3.555-2.282,4.592 s-3.673,1.557-6.455,1.557c-1.82,0-3.334-0.156-4.543-0.468c-1.209-0.312-2.047-0.571-2.516-0.78l0.975-4.719 c0.988,0.39,2.002,0.695,3.042,0.916C430.031,736.62,431.059,736.73,432.073,736.73z"/><path d="M467.172,741.449c-4.395,0-7.742-1.222-10.043-3.666c-2.301-2.443-3.451-5.915-3.451-10.413 c0-2.235,0.351-4.231,1.053-5.986c0.702-1.755,1.664-3.237,2.886-4.446c1.222-1.209,2.678-2.126,4.368-2.749 c1.689-0.624,3.522-0.937,5.499-0.937c1.144,0,2.184,0.085,3.12,0.254c0.936,0.169,1.755,0.364,2.457,0.585 c0.702,0.221,1.287,0.448,1.755,0.683c0.468,0.233,0.806,0.416,1.014,0.546l-1.755,4.914c-0.833-0.442-1.801-0.819-2.905-1.131 c-1.105-0.312-2.36-0.469-3.764-0.469c-0.936,0-1.853,0.156-2.75,0.469c-0.897,0.312-1.69,0.812-2.379,1.501 c-0.689,0.689-1.242,1.579-1.658,2.672c-0.416,1.092-0.624,2.418-0.624,3.978c0,1.248,0.137,2.412,0.41,3.491 s0.715,2.008,1.326,2.788s1.41,1.397,2.399,1.853c0.988,0.455,2.184,0.683,3.588,0.683c0.884,0,1.677-0.052,2.379-0.156 c0.702-0.104,1.326-0.228,1.872-0.37s1.027-0.306,1.443-0.487s0.793-0.352,1.131-0.508l1.677,4.875 c-0.858,0.521-2.067,0.989-3.627,1.404C471.033,741.241,469.226,741.449,467.172,741.449z"/><path d="M487.459,741.293c-1.69-0.025-3.062-0.208-4.114-0.546c-1.053-0.337-1.886-0.812-2.496-1.423 c-0.611-0.611-1.027-1.352-1.248-2.224c-0.221-0.871-0.332-1.853-0.332-2.944v-22.581l5.811-0.937v22.348 c0,0.521,0.039,0.988,0.117,1.404s0.227,0.767,0.448,1.053c0.221,0.286,0.54,0.521,0.956,0.702 c0.416,0.182,0.975,0.299,1.677,0.351L487.459,741.293z"/><path d="M508.722,740.201c-0.988,0.286-2.262,0.553-3.822,0.8c-1.56,0.247-3.198,0.37-4.914,0.37 c-1.743,0-3.192-0.233-4.349-0.702c-1.157-0.468-2.074-1.124-2.75-1.969c-0.677-0.845-1.157-1.853-1.443-3.022 c-0.286-1.171-0.429-2.457-0.429-3.861v-11.428h5.811v10.726c0,1.872,0.247,3.225,0.741,4.056 c0.494,0.833,1.417,1.248,2.769,1.248c0.416,0,0.858-0.02,1.326-0.059c0.468-0.039,0.884-0.084,1.248-0.136v-15.835h5.811V740.201 z"/><path d="M519.829,736.73c1.065,0,1.819-0.104,2.262-0.312c0.442-0.207,0.663-0.61,0.663-1.209c0-0.468-0.286-0.877-0.857-1.229 c-0.572-0.351-1.443-0.747-2.613-1.189c-0.91-0.337-1.735-0.688-2.477-1.053s-1.372-0.8-1.892-1.307 c-0.521-0.507-0.923-1.111-1.209-1.813s-0.429-1.547-0.429-2.535c0-1.924,0.715-3.444,2.145-4.562s3.394-1.678,5.89-1.678 c1.248,0,2.443,0.111,3.588,0.332c1.144,0.221,2.054,0.462,2.729,0.722l-1.014,4.523c-0.677-0.233-1.411-0.441-2.203-0.624 c-0.794-0.182-1.685-0.272-2.672-0.272c-1.82,0-2.73,0.507-2.73,1.521c0,0.234,0.039,0.442,0.117,0.624 c0.078,0.183,0.234,0.357,0.468,0.526c0.234,0.17,0.553,0.353,0.956,0.549c0.402,0.196,0.916,0.413,1.54,0.648 c1.273,0.472,2.327,0.938,3.159,1.396c0.832,0.459,1.488,0.955,1.97,1.486c0.48,0.532,0.819,1.122,1.014,1.771 c0.195,0.648,0.293,1.401,0.293,2.257c0,2.023-0.761,3.555-2.281,4.592c-1.521,1.037-3.673,1.557-6.455,1.557 c-1.82,0-3.335-0.156-4.544-0.468c-1.209-0.312-2.047-0.571-2.516-0.78l0.976-4.719c0.987,0.39,2.002,0.695,3.042,0.916 C517.788,736.62,518.815,736.73,519.829,736.73z"/><path d="M532.337,715.28l5.811-0.937v6.045h6.981v4.837h-6.981v7.215c0,1.223,0.215,2.197,0.644,2.925 c0.43,0.729,1.294,1.092,2.594,1.092c0.624,0,1.268-0.059,1.931-0.175c0.663-0.117,1.268-0.279,1.813-0.488l0.819,4.524 c-0.702,0.286-1.482,0.533-2.34,0.741c-0.858,0.208-1.911,0.312-3.159,0.312c-1.587,0-2.899-0.214-3.939-0.644 c-1.04-0.429-1.872-1.026-2.496-1.794c-0.624-0.767-1.06-1.696-1.307-2.788s-0.37-2.302-0.37-3.627V715.28z"/><path d="M548.197,730.802c0-1.819,0.279-3.412,0.839-4.777c0.559-1.365,1.293-2.502,2.203-3.412s1.956-1.6,3.14-2.067 c1.183-0.468,2.398-0.702,3.646-0.702c2.912,0,5.213,0.892,6.903,2.672c1.689,1.781,2.535,4.401,2.535,7.858 c0,0.338-0.014,0.709-0.039,1.111c-0.026,0.403-0.053,0.761-0.078,1.073h-13.183c0.13,1.196,0.689,2.145,1.678,2.847 c0.987,0.702,2.313,1.053,3.978,1.053c1.066,0,2.112-0.098,3.14-0.292c1.027-0.195,1.865-0.436,2.516-0.722l0.78,4.719 c-0.312,0.156-0.729,0.312-1.248,0.468c-0.521,0.156-1.099,0.293-1.735,0.41c-0.638,0.117-1.32,0.214-2.048,0.292 c-0.729,0.078-1.456,0.117-2.185,0.117c-1.846,0-3.451-0.272-4.816-0.819c-1.364-0.546-2.496-1.293-3.393-2.242 c-0.897-0.948-1.561-2.073-1.989-3.373S548.197,732.311,548.197,730.802z M561.848,728.579c-0.026-0.493-0.111-0.975-0.254-1.443 c-0.143-0.468-0.364-0.883-0.663-1.248c-0.299-0.363-0.676-0.662-1.131-0.896s-1.021-0.352-1.696-0.352 c-0.65,0-1.209,0.111-1.677,0.332s-0.858,0.514-1.17,0.878c-0.312,0.364-0.553,0.786-0.722,1.267 c-0.17,0.481-0.293,0.97-0.371,1.463H561.848z"/><path d="M584.081,725.537c-0.52-0.13-1.131-0.267-1.833-0.409c-0.701-0.143-1.456-0.215-2.262-0.215 c-0.364,0-0.8,0.033-1.307,0.098c-0.507,0.065-0.891,0.137-1.15,0.215v15.678h-5.811v-19.422c1.039-0.364,2.268-0.708,3.686-1.034 c1.416-0.324,2.996-0.487,4.738-0.487c0.312,0,0.688,0.02,1.131,0.059c0.441,0.039,0.884,0.092,1.326,0.156 c0.441,0.065,0.884,0.143,1.326,0.233c0.441,0.092,0.818,0.202,1.131,0.332L584.081,725.537z"/></g><g><path d="M862.122,404.611c0.441,0.764,0.934,1.697,1.476,2.802s1.095,2.265,1.657,3.479c0.562,1.215,1.119,2.45,1.672,3.705 c0.552,1.255,1.059,2.415,1.521,3.479c0.462-1.064,0.964-2.225,1.507-3.479c0.542-1.255,1.094-2.49,1.656-3.705 s1.115-2.375,1.657-3.479s1.034-2.038,1.476-2.802h3.42c0.185,1.526,0.358,3.148,0.521,4.865c0.164,1.717,0.312,3.475,0.444,5.271 c0.133,1.798,0.256,3.605,0.368,5.423c0.113,1.817,0.21,3.59,0.292,5.316h-3.735c-0.082-2.43-0.179-4.93-0.292-7.501 c-0.112-2.57-0.281-5.061-0.506-7.471c-0.222,0.462-0.482,1.015-0.783,1.657c-0.302,0.643-0.623,1.34-0.964,2.094 c-0.342,0.753-0.688,1.531-1.04,2.334c-0.352,0.804-0.692,1.582-1.023,2.335c-0.332,0.753-0.638,1.456-0.919,2.108 c-0.281,0.653-0.522,1.21-0.724,1.672h-2.831c-0.201-0.462-0.442-1.024-0.723-1.687c-0.282-0.663-0.588-1.371-0.919-2.124 c-0.332-0.753-0.673-1.531-1.024-2.335c-0.352-0.803-0.698-1.576-1.039-2.319c-0.342-0.742-0.663-1.44-0.964-2.094 c-0.302-0.652-0.562-1.199-0.783-1.642c-0.226,2.41-0.395,4.9-0.507,7.471c-0.113,2.571-0.21,5.071-0.292,7.501h-3.735 c0.082-1.727,0.179-3.514,0.292-5.362c0.112-1.847,0.235-3.68,0.367-5.497c0.133-1.817,0.281-3.58,0.445-5.287 c0.163-1.707,0.337-3.283,0.521-4.729H862.122z"/><path d="M889.143,409.341c1.204,0,2.219,0.15,3.042,0.452c0.823,0.301,1.48,0.723,1.974,1.265c0.491,0.543,0.843,1.2,1.054,1.974 s0.316,1.622,0.316,2.545v9.55c-0.562,0.12-1.411,0.267-2.545,0.437c-1.136,0.171-2.416,0.256-3.841,0.256 c-0.944,0-1.808-0.09-2.591-0.271s-1.451-0.472-2.004-0.874c-0.552-0.401-0.983-0.924-1.295-1.566s-0.467-1.436-0.467-2.38 c0-0.903,0.176-1.666,0.527-2.289c0.351-0.622,0.828-1.13,1.431-1.521s1.3-0.673,2.094-0.844c0.793-0.17,1.621-0.256,2.485-0.256 c0.401,0,0.823,0.025,1.265,0.075c0.441,0.051,0.914,0.136,1.416,0.257v-0.603c0-0.422-0.051-0.823-0.15-1.205 c-0.101-0.382-0.276-0.718-0.527-1.01c-0.251-0.291-0.583-0.517-0.994-0.678c-0.412-0.16-0.929-0.24-1.552-0.24 c-0.843,0-1.616,0.06-2.319,0.181c-0.703,0.12-1.275,0.261-1.717,0.421l-0.452-2.952c0.462-0.16,1.135-0.32,2.019-0.481 C887.194,409.422,888.138,409.341,889.143,409.341z M889.443,422.927c1.124,0,1.978-0.061,2.561-0.181v-4.037 c-0.201-0.06-0.492-0.12-0.874-0.181c-0.381-0.06-0.803-0.09-1.265-0.09c-0.402,0-0.809,0.03-1.22,0.09 c-0.412,0.061-0.783,0.171-1.115,0.332c-0.331,0.161-0.598,0.387-0.798,0.678c-0.201,0.291-0.302,0.658-0.302,1.1 c0,0.863,0.271,1.461,0.813,1.792S888.52,422.927,889.443,422.927z"/><path d="M903.827,422.866c0.964,0,1.667-0.115,2.108-0.346c0.442-0.231,0.663-0.628,0.663-1.19c0-0.521-0.236-0.953-0.708-1.295 s-1.25-0.713-2.334-1.115c-0.663-0.24-1.271-0.497-1.823-0.768c-0.553-0.271-1.029-0.588-1.431-0.949 c-0.402-0.361-0.718-0.798-0.949-1.311c-0.23-0.512-0.346-1.14-0.346-1.883c0-1.445,0.531-2.585,1.597-3.419 c1.063-0.833,2.51-1.25,4.337-1.25c0.924,0,1.808,0.086,2.651,0.256c0.844,0.171,1.476,0.337,1.897,0.497l-0.662,2.952 c-0.402-0.181-0.914-0.346-1.536-0.497c-0.623-0.15-1.346-0.226-2.169-0.226c-0.744,0-1.346,0.126-1.808,0.377 c-0.463,0.251-0.693,0.638-0.693,1.159c0,0.262,0.046,0.492,0.136,0.693c0.091,0.2,0.246,0.387,0.467,0.557 c0.221,0.171,0.513,0.342,0.874,0.513s0.803,0.346,1.325,0.527c0.863,0.321,1.597,0.638,2.199,0.948 c0.603,0.312,1.1,0.663,1.491,1.055s0.678,0.839,0.858,1.34c0.181,0.503,0.271,1.105,0.271,1.808c0,1.507-0.557,2.646-1.672,3.419 c-1.114,0.773-2.706,1.16-4.774,1.16c-1.386,0-2.5-0.116-3.344-0.347c-0.843-0.23-1.436-0.416-1.777-0.557l0.633-3.043 c0.542,0.222,1.19,0.433,1.943,0.633C902.005,422.767,902.863,422.866,903.827,422.866z"/><path d="M913.195,405.575l3.646-0.603v4.76h5.603v3.043h-5.603v6.416c0,1.266,0.2,2.169,0.603,2.711 c0.401,0.542,1.084,0.813,2.048,0.813c0.663,0,1.25-0.07,1.763-0.211c0.512-0.14,0.918-0.271,1.22-0.392l0.603,2.892 c-0.422,0.182-0.975,0.367-1.657,0.558s-1.486,0.286-2.409,0.286c-1.125,0-2.063-0.15-2.817-0.452 c-0.753-0.301-1.351-0.737-1.792-1.31c-0.442-0.572-0.753-1.266-0.934-2.079s-0.271-1.742-0.271-2.786V405.575z"/><path d="M924.713,417.686c0-1.386,0.205-2.601,0.617-3.646c0.411-1.044,0.959-1.913,1.642-2.605s1.466-1.215,2.35-1.566 s1.787-0.527,2.711-0.527c2.169,0,3.861,0.673,5.076,2.019s1.822,3.354,1.822,6.024c0,0.201-0.005,0.427-0.015,0.678 c-0.011,0.252-0.025,0.478-0.045,0.678h-10.394c0.101,1.266,0.548,2.244,1.341,2.938c0.793,0.692,1.943,1.039,3.449,1.039 c0.884,0,1.691-0.08,2.425-0.241c0.733-0.16,1.311-0.331,1.732-0.512l0.482,2.982c-0.201,0.101-0.478,0.206-0.829,0.316 s-0.753,0.211-1.205,0.301c-0.451,0.091-0.938,0.166-1.461,0.226c-0.522,0.061-1.054,0.091-1.597,0.091 c-1.386,0-2.59-0.206-3.614-0.617c-1.024-0.412-1.868-0.984-2.53-1.718c-0.663-0.732-1.155-1.596-1.477-2.59 S924.713,418.87,924.713,417.686z M935.286,416.059c0-0.502-0.07-0.979-0.211-1.431c-0.141-0.452-0.347-0.844-0.617-1.175 c-0.271-0.332-0.603-0.593-0.994-0.783c-0.392-0.191-0.859-0.286-1.401-0.286c-0.562,0-1.054,0.105-1.476,0.316 c-0.422,0.21-0.778,0.486-1.069,0.828c-0.292,0.342-0.518,0.733-0.678,1.175c-0.161,0.441-0.271,0.894-0.332,1.355H935.286z"/><path d="M951.45,413.016c-0.302-0.1-0.719-0.205-1.251-0.315s-1.149-0.166-1.853-0.166c-0.401,0-0.828,0.04-1.28,0.12 c-0.451,0.081-0.768,0.151-0.948,0.211v12.622h-3.646v-15.002c0.703-0.261,1.582-0.507,2.636-0.737 c1.055-0.231,2.225-0.347,3.51-0.347c0.241,0,0.521,0.015,0.844,0.045c0.32,0.03,0.643,0.07,0.964,0.12 c0.32,0.051,0.633,0.111,0.934,0.182s0.542,0.135,0.723,0.195L951.45,413.016z"/></g><g><path d="M871.626,166.587c-0.684-1.145-1.446-2.375-2.29-3.69c-0.843-1.315-1.717-2.641-2.62-3.977 c-0.904-1.335-1.823-2.631-2.757-3.886s-1.822-2.385-2.666-3.389v14.941h-3.735v-20.876h3.103 c0.804,0.844,1.667,1.843,2.591,2.998s1.853,2.355,2.787,3.6c0.934,1.246,1.837,2.496,2.711,3.75 c0.873,1.255,1.651,2.425,2.334,3.509v-13.857h3.766v20.876H871.626z"/><path d="M893.787,158.694c0,1.246-0.181,2.38-0.543,3.404c-0.361,1.024-0.873,1.897-1.536,2.621 c-0.662,0.723-1.461,1.286-2.395,1.687s-1.963,0.603-3.088,0.603s-2.149-0.201-3.072-0.603c-0.924-0.401-1.717-0.964-2.38-1.687 s-1.18-1.597-1.552-2.621c-0.371-1.024-0.557-2.159-0.557-3.404c0-1.245,0.186-2.375,0.557-3.389 c0.372-1.014,0.894-1.883,1.566-2.606c0.673-0.723,1.472-1.28,2.396-1.672c0.923-0.392,1.938-0.587,3.042-0.587 s2.124,0.196,3.058,0.587s1.732,0.949,2.395,1.672c0.663,0.723,1.18,1.592,1.552,2.606 C893.601,156.32,893.787,157.45,893.787,158.694z M890.052,158.694c0-1.566-0.337-2.806-1.01-3.72 c-0.673-0.914-1.611-1.371-2.816-1.371s-2.144,0.457-2.816,1.371c-0.673,0.914-1.009,2.154-1.009,3.72 c0,1.587,0.336,2.842,1.009,3.766c0.673,0.924,1.611,1.386,2.816,1.386s2.144-0.462,2.816-1.386 C889.715,161.537,890.052,160.281,890.052,158.694z"/><path d="M910.683,166.105c-0.723,0.221-1.632,0.422-2.726,0.603c-1.095,0.181-2.244,0.271-3.449,0.271 c-1.245,0-2.36-0.191-3.344-0.572c-0.984-0.381-1.822-0.929-2.516-1.642c-0.692-0.713-1.225-1.577-1.597-2.591 c-0.371-1.014-0.557-2.154-0.557-3.419c0-1.245,0.155-2.375,0.467-3.389c0.311-1.014,0.768-1.883,1.37-2.605 c0.603-0.723,1.336-1.28,2.199-1.672s1.857-0.587,2.982-0.587c0.763,0,1.436,0.09,2.019,0.271 c0.582,0.181,1.084,0.382,1.506,0.603v-7.561l3.645-0.603V166.105z M900.23,158.665c0,1.607,0.381,2.867,1.145,3.78 c0.763,0.914,1.817,1.371,3.163,1.371c0.582,0,1.079-0.025,1.491-0.075c0.411-0.05,0.748-0.105,1.009-0.166v-9.037 c-0.321-0.221-0.748-0.427-1.28-0.618s-1.1-0.286-1.702-0.286c-1.325,0-2.294,0.452-2.907,1.355 C900.536,155.893,900.23,157.118,900.23,158.665z"/><path d="M914.231,158.785c0-1.386,0.205-2.601,0.617-3.645c0.411-1.044,0.959-1.913,1.642-2.605s1.466-1.215,2.35-1.566 c0.884-0.351,1.787-0.527,2.711-0.527c2.169,0,3.861,0.673,5.076,2.019c1.215,1.346,1.822,3.354,1.822,6.024 c0,0.201-0.005,0.427-0.015,0.678c-0.011,0.251-0.025,0.477-0.045,0.678h-10.394c0.101,1.265,0.548,2.244,1.341,2.937 s1.943,1.039,3.449,1.039c0.884,0,1.691-0.08,2.425-0.241s1.311-0.332,1.732-0.512l0.482,2.982 c-0.201,0.101-0.478,0.206-0.829,0.316c-0.352,0.111-0.753,0.211-1.205,0.301c-0.451,0.09-0.938,0.166-1.461,0.226 s-1.054,0.09-1.597,0.09c-1.386,0-2.59-0.206-3.614-0.618c-1.024-0.411-1.868-0.983-2.53-1.717 c-0.663-0.733-1.155-1.597-1.477-2.591S914.231,159.97,914.231,158.785z M924.805,157.158c0-0.502-0.07-0.979-0.211-1.431 c-0.141-0.452-0.347-0.843-0.617-1.175c-0.271-0.331-0.603-0.592-0.994-0.783c-0.392-0.19-0.859-0.286-1.401-0.286 c-0.562,0-1.054,0.105-1.476,0.316s-0.778,0.487-1.069,0.829c-0.292,0.342-0.518,0.733-0.678,1.175 c-0.161,0.442-0.271,0.894-0.332,1.355H924.805z"/></g></svg>