<svg xmlns="http://www.w3.org/2000/svg" width="1024" height="768" viewBox="1044 0 1024 768"><linearGradient id="a" gradientUnits="userSpaceOnUse" x1="1276.654" y1="689.013" x2="1634.645" y2="68.955"><stop offset="0" stop-color="#326de6"/><stop offset="1" stop-color="#10ffc6"/></linearGradient><path opacity=".2" fill="url(#a)" stroke="#000" stroke-miterlimit="10" d="M1276.654 689.012l-178.994-310.03 178.994-310.028h357.991l178.995 310.028-178.995 310.03z"/><path fill="#326CE5" d="M1450.221 306.176a9.234 9.234 0 0 0-3.514.89l-47.949 22.91a9.107 9.107 0 0 0-4.962 6.169l-11.829 51.465a9.015 9.015 0 0 0 1.246 6.971c.16.249.334.491.52.725l33.189 41.266a9.202 9.202 0 0 0 7.168 3.422l53.225-.012a9.194 9.194 0 0 0 7.169-3.416l33.177-41.272a9.032 9.032 0 0 0 1.773-7.696l-11.85-51.463a9.103 9.103 0 0 0-4.961-6.17l-47.955-22.898a9.225 9.225 0 0 0-4.447-.891z"/><path fill="#FFF" stroke="#FFF" stroke-width=".25" d="M1450.697 323.69c-1.586 0-2.871 1.427-2.871 3.188 0 .027.006.053.007.08-.003.239-.014.527-.007.736.039 1.016.26 1.793.393 2.729.242 2.003.444 3.663.318 5.206-.12.583-.55 1.114-.932 1.484l-.067 1.214a37.443 37.443 0 0 0-5.188.798 36.913 36.913 0 0 0-18.753 10.713 39.12 39.12 0 0 1-1.036-.736c-.512.07-1.029.227-1.705-.166-1.284-.864-2.455-2.058-3.869-3.495-.648-.688-1.119-1.342-1.889-2.005-.175-.15-.442-.354-.639-.509a3.417 3.417 0 0 0-1.998-.754c-.883-.03-1.732.314-2.287 1.013-.989 1.239-.672 3.133.705 4.23l.043.031c.188.153.42.35.594.479.818.603 1.564.912 2.379 1.393 1.718 1.06 3.141 1.938 4.27 2.998.44.47.518 1.298.576 1.657l.921.82c-4.925 7.411-7.204 16.565-5.857 25.892l-1.203.35c-.315.41-.763 1.052-1.231 1.245-1.478.465-3.139.636-5.146.846-.941.079-1.755.031-2.752.221-.221.042-.526.121-.768.178-.008 0-.016.005-.023.005-.014.003-.031.01-.045.013-1.691.408-2.777 1.963-2.427 3.496.35 1.531 2.002 2.464 3.702 2.096.014-.003.033-.003.045-.005.018-.005.034-.015.055-.02.236-.051.534-.108.742-.164.981-.265 1.692-.649 2.574-.988 1.9-.68 3.473-1.249 5.005-1.471.641-.051 1.313.395 1.649.582l1.252-.216c2.879 8.928 8.912 16.143 16.551 20.667l-.521 1.251c.188.486.396 1.144.255 1.623-.558 1.443-1.512 2.969-2.598 4.669-.526.784-1.064 1.396-1.539 2.292-.113.217-.258.547-.369.775-.736 1.577-.195 3.395 1.223 4.077 1.425.687 3.194-.038 3.961-1.618 0-.004.005-.005.006-.009v-.003c.108-.226.264-.521.355-.729.406-.933.541-1.73.828-2.633.758-1.906 1.176-3.908 2.222-5.157.286-.341.753-.473 1.236-.601l.651-1.178a37.074 37.074 0 0 0 21.562 1.552 37.355 37.355 0 0 0 4.924-1.483c.183.324.522.946.612 1.103.493.162 1.028.245 1.467.889.781 1.337 1.316 2.917 1.969 4.827.285.9.427 1.698.834 2.631.092.211.246.512.355.736.764 1.588 2.54 2.313 3.967 1.625 1.417-.682 1.959-2.501 1.221-4.077-.11-.228-.26-.558-.373-.774-.476-.898-1.014-1.499-1.539-2.287-1.088-1.7-1.988-3.111-2.546-4.557-.233-.745.038-1.208.22-1.692-.107-.124-.34-.828-.479-1.161 7.94-4.686 13.796-12.169 16.547-20.812.371.059 1.017.172 1.227.215.432-.284.829-.655 1.607-.595 1.531.222 3.104.791 5.003 1.472.884.339 1.594.73 2.576.994.208.056.505.107.742.16.021.002.035.013.054.017.014.004.033.004.043.006 1.703.367 3.355-.564 3.705-2.097s-.736-3.086-2.428-3.495c-.247-.057-.596-.152-.835-.196-.999-.189-1.812-.143-2.753-.222-2.008-.21-3.668-.381-5.145-.845-.604-.234-1.031-.95-1.24-1.246l-1.158-.337a37.064 37.064 0 0 0-.602-13.4 37.123 37.123 0 0 0-5.379-12.431c.299-.271.859-.768 1.02-.913.047-.516.006-1.056.539-1.625 1.128-1.06 2.553-1.938 4.269-3 .813-.479 1.567-.788 2.386-1.392.184-.137.437-.353.631-.509 1.377-1.098 1.693-2.992.705-4.231-.987-1.239-2.904-1.356-4.28-.258-.196.156-.462.358-.639.51-.771.662-1.247 1.318-1.896 2.004-1.414 1.439-2.583 2.638-3.867 3.502-.559.323-1.373.211-1.743.189l-1.091.779c-6.225-6.528-14.7-10.701-23.824-11.511a62.075 62.075 0 0 1-.068-1.282c-.373-.356-.824-.662-.938-1.436-.124-1.543.085-3.203.326-5.206.132-.936.354-1.713.392-2.729.01-.231-.005-.566-.006-.816-.003-1.759-1.288-3.186-2.872-3.186zm-3.593 22.26l-.852 15.056-.062.03a2.531 2.531 0 0 1-4.017 1.938l-.023.012-12.346-8.75a29.57 29.57 0 0 1 14.24-7.758 30.6 30.6 0 0 1 3.06-.528zm7.192 0a29.823 29.823 0 0 1 17.196 8.292l-12.266 8.695-.043-.018a2.532 2.532 0 0 1-3.471-.467 2.525 2.525 0 0 1-.553-1.465l-.013-.006-.85-15.031zm-28.97 13.909l11.271 10.083-.012.062a2.53 2.53 0 1 1-.994 4.347l-.012.049-14.449 4.17a29.571 29.571 0 0 1 4.196-18.711zm50.66.006a29.943 29.943 0 0 1 3.699 9.033 29.9 29.9 0 0 1 .625 9.623l-14.521-4.183-.013-.062a2.532 2.532 0 0 1-.994-4.347l-.006-.031 11.21-10.033zm-27.601 10.856h4.617l2.869 3.586-1.029 4.477-4.145 1.993-4.158-1.999-1.031-4.476 2.877-3.581zm14.803 12.276c.196-.01.392.007.584.044l.023-.032 14.945 2.527a29.6 29.6 0 0 1-11.964 15.03l-5.802-14.012.019-.024a2.535 2.535 0 0 1 2.195-3.533zm-25.1.061a2.533 2.533 0 0 1 2.288 3.527l.042.055-5.739 13.873a29.715 29.715 0 0 1-11.928-14.928l14.815-2.514.025.03a2.73 2.73 0 0 1 .497-.043zm12.517 6.077c.396-.013.799.067 1.182.253.503.241.891.624 1.137 1.077h.055l7.303 13.2a30.01 30.01 0 0 1-2.919.813c-5.586 1.268-11.154.887-16.196-.834l7.285-13.172h.014a2.529 2.529 0 0 1 2.139-1.337z"/><path fill="#FFF" stroke="#326DE6" stroke-width="1.6" stroke-linecap="round" stroke-linejoin="round" stroke-miterlimit="10" d="M1549.219 306.853l-89.067-51.539V152.239l89.067-51.288 89.315 51.288v103.075z"/><path fill="#326DE6" d="M1460.152 224.542v30.772l89.067 51.539 26.519-15.512z"/><path fill="#A0CAEA" d="M1507.188 276.58l8.255-14.01 50.037 28.771-16.261 9.508z"/><g fill="#FFF"><path d="M1521.947 271.326c1.002.501 1.502 1.251 1.752 2.252.25 1 0 1.751-.5 2.752l-.5 1.001c-.5 1.001-1.252 1.501-2.252 1.751-1.002.25-1.752 0-2.752-.5l-3.003-1.751.251-.5 1.001.25 3.251-5.754-.75-.5.25-.751.75.5 2.502 1.25zm-1.5 0l-3.253 5.754 1.251.75c.75.501 1.251.501 2.002.25.75-.25 1.25-.75 1.502-1.25l.5-1.001c.5-.75.5-1.251.5-2.001-.25-.751-.5-1.251-1.252-1.501l-1.25-1.001zM1523.449 278.081c.5-.75 1-1.25 1.752-1.501.75-.25 1.502-.25 2.252.25s1.25 1 1.25 1.751c.25.75 0 1.501-.5 2.251s-1 1.25-1.752 1.5c-.75.251-1.5.251-2.252-.25-.75-.5-1.25-1-1.25-1.75 0-.5 0-1.25.5-2.251zm1 .751c-.25.5-.5 1-.5 1.501 0 .5.25 1 .752 1.25.5.25 1 .25 1.25 0 .5-.25.752-.75 1.252-1.25.25-.501.5-1.001.5-1.501s-.25-1.001-.75-1.251c-.502-.25-1.002-.25-1.502 0s-.5.5-1.002 1.251zM1530.455 284.837c.25.25.75.25 1.001.25.25 0 .5-.25.75-.501l1 .501c-.25.5-.75.75-1.25.75-.751 0-1.251 0-1.751-.25-.751-.5-1.252-1.001-1.252-1.751s0-1.501.501-2.251v-.25c.5-.75 1.001-1.25 1.751-1.502.751-.25 1.501-.25 2.251.251.501.25.751.5 1.001 1 .25.25.501.75.501 1l-.751 1.251-.751-.5.251-1.001c0-.25-.251-.25-.251-.5l-.5-.5c-.5-.25-1-.25-1.5 0-.501.25-.751.75-1.001 1.25v.25c-.25.501-.501 1.001-.501 1.501-.25.5 0 .75.501 1.002zM1536.959 280.083l.25-.751 1.752 1.001-2.502 4.503.5.25 2.002-.751-.5-.25.25-.75 2.252 1.25-.25.751-.752-.25-2.502.75.5 3.252.502.501-.252.5-2.25-1.251.25-.5.5.25-.5-2.502-.751-.25-.25 1.752.751.5-.251.5-2.502-1.5.25-.501 1.001.25 3.502-6.254-1-.5zM1541.463 292.342c-.75-.5-1.252-1.001-1.252-1.752 0-.75 0-1.501.502-2.251v-.25c.5-.75 1-1.251 1.75-1.501.752-.25 1.502-.25 2.002.25.751.501 1.252 1.001 1.252 1.501 0 .75 0 1.251-.501 2.001l-.25.5-3.503-2.002c-.25.501-.5 1.001-.25 1.501 0 .5.25.75.75 1 .25.251.75.251 1.002.251h.75v.75h-1.002c-.25.502-.75.252-1.25.002zm2.752-4.753c-.25-.25-.75-.25-1 0-.502.25-.752.5-1.002.75l2.502 1.501v-.25c.251-.501.251-.751.251-1.251l-.751-.75zM1547.468 289.34l.25-.751 1.751 1.001-.25.75c.25-.25.5-.25 1-.25.251 0 .501 0 1.001.25 0 0 .25 0 .25.25 0 0 .25 0 .25.25l-.75.751-.5-.251c-.251-.25-.501-.25-.751-.25s-.5 0-.751.25l-1.751 3.003.751.5-.25.5-2.502-1.501.25-.5 1.001.25 2.251-3.752-1.25-.5z"/></g><g fill="#FFF"><path d="M1473.412 243.306l.25-.75 1.752 1-2.502 4.503.5.25 2.002-.75-.5-.25.25-.75 2.252 1.251-.25.751-.751-.251-2.503.751.502 3.252.5.5-.25.501-2.252-1.251.25-.501.5.25-.5-2.501-.75-.25-1.002 1.751.752.5-.252.5-2.502-1.5.25-.5 1.002.25 3.502-6.255-.25-.501zM1479.667 255.565c-.25.25-.75.25-1 .25-.251 0-.751 0-1.001-.25-.5-.25-1.001-.75-1.001-1.251s0-1.251.501-2.001l1.501-2.502-.501-.5.251-.75.5.25 1 .5-1.751 3.252c-.25.5-.5 1.001-.5 1.251s.25.5.5.751c.251.25.751.25 1.001.25s.5 0 .75-.25l1.752-3.003-.751-.5.25-.75.751.5 1 .5-2.752 4.503.501.5-.25.501-1.501-.751.75-.5zM1487.924 258.067c-.502.75-1.002 1.25-1.752 1.5s-1.252.25-2.002-.25l-.75-.75c-.25-.25-.25-.5-.25-1.001l-.501.751-.75-.5 4.003-7.005-.751-.5.251-.751 1.75 1.001-1.75 3.002c.25-.25.5-.25 1-.25.25 0 .75 0 1 .25.752.5 1.002 1.001 1.002 1.751.25 1 0 1.751-.5 2.752zm-1.002-.751c.25-.5.5-1.251.5-1.751s-.25-1-.75-1.251c-.25-.25-.5-.25-1-.25-.25 0-.501.25-.752.25l-1.25 2.251c0 .25 0 .5.25.75s.25.5.75.751c.501.25 1.002.25 1.252 0 .5.251.75.001 1-.75zM1489.926 262.57c-.752-.501-1.252-1.001-1.252-1.752 0-.75 0-1.501.5-2.251v-.25c.5-.751 1.002-1.251 1.752-1.501s1.502-.25 2.002.25c.75.5 1.25 1.001 1.25 1.501 0 .75 0 1.251-.5 2.001l-.25.5-3.502-2.001c-.252.5-.502 1.001-.252 1.501 0 .5.252.751.752 1.001.25.25.75.25 1 .25h.75v.751h-1c-.5.5-.75.25-1.25 0zm2.502-5.004c-.252-.25-.752-.25-1.002 0-.5.25-.75.501-1 .751l2.502 1.501v-.25c.25-.5.25-.75.25-1.25 0-.001-.25-.502-.75-.752zM1496.93 257.066l.251-.751 1.75 1.001-4.002 7.005.75.5-.25.5-2.501-1.501.25-.5 1 .25 3.503-6.255-.751-.249zM1498.431 267.574c-.75-.5-1.25-1.001-1.25-1.751-.251-.751 0-1.501.5-2.252v-.25c.5-.75 1-1.251 1.751-1.501.75-.25 1.501-.25 2.001.25.751.501 1.251 1.001 1.251 1.501 0 .75 0 1.251-.5 2.001l-.25.501-3.503-2.001c-.25.5-.5 1-.25 1.5 0 .501.25.751.75 1.001.251.25.751.25 1.001.25h.751v.75h-1.001c-.25.251-.751.251-1.251.001zm2.752-5.004c-.25-.25-.751-.25-1.001 0-.5.25-.75.5-1 .75l2.502 1.501v-.25c.25-.5.25-.751.25-1.251l-.751-.75zM1507.188 263.571l-.75 1.251 1 .5-.5.751-1.002-.501-2 3.252c-.25.25-.25.501-.25.501 0 .25.25.25.25.5 0 0 .25 0 .25.25h.25l-.25.751h-.5c-.252 0-.502-.25-.502-.25-.5-.251-.75-.501-.75-1.001 0-.5 0-.751.25-1.251l2.002-3.252-.75-.5.5-.751.75.5.75-1.251 1.252.501z"/></g><path fill="#FFF" stroke="#326DE6" stroke-width="1.6" stroke-linecap="round" stroke-linejoin="round" stroke-miterlimit="10" d="M1443.391 255.314l-89.317 51.539-89.065-51.539V152.489l89.065-51.538 89.317 51.538z"/><path fill="#326DE6" d="M1327.555 291.341l26.519 15.512 89.317-51.539-.25-30.522z"/><path fill="#A0CAEA" d="M1396.105 276.58l-8.005-14.01 50.037-29.022v18.764z"/><g fill="#FFF"><path d="M1399.107 261.319c1.001-.501 1.752-.751 2.752-.501 1.001.25 1.502.751 2.252 1.752l.5 1c.5 1 .751 1.751.5 2.752-.25 1.001-.75 1.751-1.75 2.251l-3.003 1.751-.25-.5.751-.5-3.252-5.754-1.002.25-.25-.75.75-.5 2.002-1.251zm-.75 1.501l3.252 5.754 1.251-.75c.751-.5 1.001-1 1.251-1.501.25-.751 0-1.251-.5-2.001l-.501-1.001c-.5-.75-1-1.251-1.501-1.251-.75-.25-1.251-.25-2.002.251l-1.25.499zM1405.863 263.571c-.501-.75-.501-1.501-.501-2.251.251-.751.501-1.251 1.251-1.752.75-.5 1.501-.5 2.252-.25.75.25 1.25.751 1.751 1.501.5.751.5 1.502.5 2.252-.25.75-.5 1.251-1.251 1.751-.75.5-1.5.5-2.252.25-.75 0-1.25-.751-1.75-1.501zm1-.501c.25.5.75 1.001 1.251 1.251.501.25 1.001.25 1.501 0s.751-.75.751-1.251c0-.5 0-1.001-.501-1.501a3.01 3.01 0 0 0-1.25-1.251c-.501-.25-1.002-.25-1.502 0s-.75.75-.75 1.251c0 .5 0 .751.5 1.501zM1415.119 260.818l.75-.75c.252-.25 0-.751 0-1.001l.752-.5c.25.5.25 1 0 1.501-.25.5-.5 1-1.252 1.501-.75.5-1.5.5-2.251.25s-1.251-.75-1.751-1.501v-.25c-.501-.751-.501-1.501-.501-2.252s.501-1.25 1.251-1.751c.5-.25.751-.5 1.251-.5h1.251l.75 1.251-.75.5-.75-.75h-.501c-.25 0-.5 0-.751.25-.5.25-.75.75-.75 1.251 0 .5.25 1 .5 1.5v.251c.25.5.751 1 1.001 1.251.751.25 1.251.25 1.751-.251zM1414.119 252.812l-.25-.75 1.75-1.001 2.502 4.503.501-.25.25-2.001-.5.25-.251-.751 2.252-1.251.251.751-.501.5-.5 2.502 3.002 1.251.75-.251.25.501-2.251 1.251-.25-.501.501-.25-2.503-1.001-.75.251 1.001 1.751 1-.25.251.5-2.503 1.501-.25-.501.751-.5-3.503-6.505-1 .251zM1427.128 255.064c-.75.5-1.501.5-2.251.25s-1.252-.75-1.752-1.501l-.25-.25c-.5-.751-.5-1.501-.5-2.252.25-.75.5-1.251 1.25-1.751.752-.5 1.502-.5 2.002-.25s1.251.75 1.501 1.501l.251.5-3.502 2.002c.25.5.75.75 1 1 .5.25 1 .25 1.251 0l.75-.75c.25-.25.25-.501.501-.751l.75.501c0 .25-.25.5-.5 1 .25.251-.25.501-.501.751zm-3.001-4.753c-.252.25-.502.5-.502 1s0 .751.252 1.251l2.501-1.501v-.25c-.251-.5-.501-.75-.751-.75-.75 0-1 0-1.5.25zM1427.128 248.56l-.25-.751 1.752-1.001.5.751c0-.25 0-.751.25-1.001s.25-.5.751-.75h.5l.5 1-.5.25c-.25.25-.5.25-.5.5s-.25.5 0 .75l1.751 3.002 1.001-.25.25.5-2.502 1.501-.25-.5.75-.5-2.251-3.753-1.752.252z"/></g><g fill="#FFF"><path d="M1350.321 289.59l-.25-.751 1.751-1 2.502 4.503.5-.25.252-2.001-.502.25-.25-.75 2.252-1.251.25.75-.5.501-.5 2.501 3.002 1.25.75-.25.251.5-2.252 1.251-.25-.5.5-.25-2.501-1.001-.752.25 1.002 1.751 1-.25.25.5-2.502 1.502-.25-.5.75-.501-3.502-6.254h-1.001zM1364.082 290.09c0 .5 0 .75-.25 1l-.752.751c-.5.25-1.25.5-1.75.25-.501-.25-1.001-.751-1.501-1.501l-1.502-2.501-.75.25-.251-.75.501-.25 1.001-.501 1.751 3.253c.25.5.751 1 1.001 1s.5 0 1-.25l.751-.75c.251-.25.251-.5.251-1.001l-1.752-3.002-.75.25-.251-.75.751-.5 1-.501 2.752 4.503.751-.25.251.501-1.502.75h-.75zM1370.336 284.335c.501.751.501 1.501.501 2.252 0 .751-.501 1.251-1.001 1.501-.25.25-.75.25-1 .25-.251 0-.751 0-1.001-.25l.25.75-.751.501-4.002-7.006-1.002.251-.25-.751 1.752-1 1.751 3.002c0-.25.25-.75.25-1l.751-.751c.75-.5 1.251-.5 2.001 0 .751.501 1.251 1.251 1.751 2.251zm-1 .25c-.25-.5-.751-1-1.251-1.25-.501-.25-1.001-.25-1.251 0l-.751.75c0 .25-.25.5-.25.751l1.251 2.251c.25.25.5.25.751.25.25 0 .5 0 1-.25.501-.251.751-.501.751-1.001.25-.249.25-.749-.25-1.501zM1375.34 284.837c-.75.5-1.501.5-2.252.25-.75-.25-1.25-.751-1.75-1.501l-.25-.25c-.502-.75-.502-1.501-.502-2.252.251-.75.502-1.251 1.252-1.751s1.501-.5 2.001-.25c.501.25 1.251.75 1.501 1.501l.251.5-3.503 2.002c.25.5.75.75 1 1 .501.25 1.002.25 1.252 0l.75-.75c.25-.25.25-.5.501-.75l.75.5c0 .25-.25.5-.5 1 .25.249 0 .499-.501.751zm-3.002-4.754c-.25.25-.5.5-.5 1s0 .75.25 1.25l2.502-1.5v-.25c-.25-.501-.5-.751-.751-.751-.751 0-1.001 0-1.501.251zM1374.09 276.08l-.251-.75 1.751-1.001 4.004 7.005 1-.25.25.5-2.502 1.501-.25-.5.751-.501-3.503-6.254-1.25.25zM1384.097 279.832c-.751.501-1.501.501-2.251.251-.752-.251-1.252-.751-1.752-1.501l-.25-.25c-.5-.751-.5-1.501-.5-2.252.25-.75.5-1.251 1.25-1.751s1.502-.5 2.002-.25 1.251.75 1.501 1.501l.25.5-3.503 2.001c.25.501.751.751 1.002 1.001.5.25 1 .25 1.25 0l.751-.75c.25-.251.25-.501.5-.751l.751.5c0 .251-.25.501-.501 1.001.25.25-.25.5-.5.75zm-3.003-4.752c-.25.25-.5.5-.5 1s0 .75.25 1.251l2.502-1.501v-.25c-.25-.5-.5-.751-.75-.751-.75 0-1.252 0-1.502.251zM1384.847 270.326l.751 1.25 1.001-.5.5.751-1.001.5 2.002 3.252c.25.25.25.5.5.5h.5s.25 0 .25-.25l.252-.25.5.5s-.25.25-.25.5c-.25.25-.25.25-.502.25-.5.25-.75.25-1.25.25-.25 0-.75-.5-1.001-1l-1.751-3.252-.751.5-.5-.75.75-.5-.75-1.251.75-.5z"/></g><path fill="#FFF" stroke="#326DE6" stroke-width="1.6" stroke-linecap="round" stroke-linejoin="round" stroke-miterlimit="10" d="M1353.074 646.854l-89.066-51.289V492.489l89.066-51.287 89.316 51.287v103.076z"/><path fill="#326DE6" d="M1326.555 456.463l26.519-15.261 89.316 51.287-.251 30.773z"/><path fill="#A0CAEA" d="M1395.104 471.225l-8.005 14.259 50.037 28.772v-18.765z"/><g fill="#FFF"><path d="M1352.073 452.211l.25-.752 1.751 1.002-2.502 4.503.501.25 2.001-.751-.5-.25.25-.75 2.252 1.25-.25.751-.75-.25-2.503.75.501 3.252.5.502-.25.5-2.252-1.252.25-.5.5.25-.5-2.502-.75-.25-1.001 1.752.75.5-.25.5-2.501-1.5.25-.502 1 .251 3.503-6.254-.25-.5zM1358.578 464.469c-.251.25-.751.25-1.001.25-.251 0-.751 0-1.001-.25-.5-.25-1-.75-1-1.251 0-.5 0-1.25.5-2.002l1.501-2.502-.501-.5.251-.75.5.25 1.001.5-1.752 3.254c-.25.5-.5 1-.5 1.25s.25.5.5.75c.251.251.751.251 1.001.251s.501 0 .751-.251l1.751-3.002-.75-.5.25-.75.751.5 1 .5-2.752 4.503.5.501-.25.5-1.501-.75.751-.501zM1366.834 466.971c-.5.75-1.001 1.25-1.752 1.502-.75.25-1.25.25-2.002-.252l-.75-.75c-.25-.25-.25-.5-.25-1l-.5.75-.751-.5 4.003-7.005-.75-.5.25-.752 1.751 1.002-1.751 3.002c.25-.25.5-.25 1-.25.251 0 .751 0 1.002.25.75.5 1 1 1 1.751.25 1.001 0 1.751-.5 2.752zm-1.001-.75c.25-.501.501-1.251.501-1.752 0-.5-.251-1.001-.751-1.251-.251-.25-.501-.25-1.001-.25-.25 0-.5.25-.75.25l-1.252 2.252c0 .25 0 .5.25.751.25.25.25.5.752.75.5.25 1 .25 1.25 0 .25.25.751-.25 1.001-.75zM1368.836 471.475c-.751-.5-1.252-1.002-1.252-1.752s0-1.502.501-2.252l.25-.25c.501-.75 1.001-1.251 1.751-1.501.751-.25 1.502-.25 2.002.25.75.501 1.25 1.001 1.25 1.501 0 .752 0 1.252-.5 2.002l-.25.5-3.502-2.002c-.25.502-.501 1.002-.25 1.502 0 .5.25.75.75 1 .25.252.75.252 1 .252h.752v.75h-1.002c-.75.25-1.25.25-1.5 0zm2.502-5.004c-.251-.25-.752-.25-1.002 0-.5.25-.75.5-1 .75l2.502 1.502v-.25c.25-.502.25-.752.25-1.252s-.25-.5-.75-.75zM1375.841 465.97l.25-.75 1.751 1.001-4.003 7.005.751.5-.25.5-2.502-1.501.25-.5 1 .25 3.503-6.254-.75-.251zM1377.342 476.478c-.751-.5-1.251-1-1.251-1.751s0-1.501.5-2.252v-.25c.501-.75 1.001-1.25 1.751-1.5.751-.252 1.502-.252 2.002.25.75.5 1.251 1 1.251 1.5 0 .751 0 1.251-.501 2.002l-.25.5-3.502-2.001c-.25.5-.501 1-.25 1.501 0 .5.25.751.75 1.001.25.25.751.25 1.001.25h.751v.75h-1.001c-.251.25-.751.25-1.251 0zm2.752-5.003c-.25-.25-.75-.25-1.001 0-.25.25-.751.5-1.001.75l2.502 1.501v-.25c.25-.5.25-.751.25-1.251l-.75-.75zM1386.098 472.475l-.75 1.251 1.001.5-.501.751-1.001-.5-2.001 3.253c-.25.25-.25.5-.25.5 0 .25.25.25.25.5 0 0 .25 0 .25.25h.25l-.25.75h-.5c-.25 0-.5-.25-.5-.25-.501-.25-.752-.5-.752-1s0-.75.251-1.252l2.001-3.252-.75-.5.5-.751.751.501.75-1.251 1.251.5z"/></g><g fill="#FFF"><path d="M1402.86 481.481c1.001.5 1.501 1.251 1.751 2.251.25 1.002 0 1.752-.5 2.752l-.5 1.002c-.501 1-1.251 1.501-2.252 1.751s-1.752 0-2.752-.501l-3.002-1.75.25-.502 1 .252 3.253-5.755-.751-.5.25-.752.751.501 2.502 1.251zm-1.751 0l-3.252 5.755 1.25.75c.75.5 1.251.5 2.002.25.75-.25 1.251-.75 1.501-1.25l.5-1.002c.501-.75.501-1.25.501-2.001-.25-.751-.501-1.251-1.251-1.501l-1.251-1.001zM1404.361 488.236c.5-.75 1.001-1.25 1.752-1.5.75-.252 1.5-.252 2.252.25.75.5 1.25 1 1.25 1.75.25.751 0 1.502-.5 2.252-.5.751-1.001 1.251-1.752 1.501-.75.25-1.5.25-2.252-.25-.75-.5-1.25-1-1.25-1.751-.25-.5 0-1.251.5-2.252zm.75.751c-.25.5-.5 1.001-.5 1.501s.25 1.001.751 1.251 1.001.25 1.251 0c.5-.25.75-.751 1.251-1.251.25-.5.501-1.001.501-1.501 0-.501-.251-1.001-.752-1.251-.5-.25-1-.25-1.5 0-.25.25-.5.5-1.002 1.251zM1411.116 494.991c.251.25.751.25 1.001.25s.5-.25.751-.5l.75.5c-.25.5-.75.752-1.251.752-.75 0-1.251 0-1.751-.252-.751-.5-1.251-1-1.251-1.75 0-.751 0-1.502.5-2.252v-.25c.501-.751 1.001-1.251 1.752-1.501.75-.25 1.501-.25 2.252.25.5.25.75.5 1 1.001.25.25.5.75.5 1l-.75 1.251-.75-.501.25-1c0-.25-.25-.25-.25-.5l-.501-.501c-.5-.25-1.001-.25-1.501 0-.501.251-.751.751-1.001 1.251v.25c-.25.5-.5 1.001-.5 1.502 0 .25.25.75.75 1zM1417.871 490.238l.25-.751 1.752 1.001-2.502 4.503.5.25 2.002-.75-.5-.25.25-.751 2.252 1.251-.25.75-.751-.25-2.502.752.5 3.251.501.501-.251.5-2.251-1.251.25-.5.5.25-.5-2.501-.75-.25-1.002 1.75.752.501-.252.5-2.501-1.501.251-.5 1 .25 3.502-6.255-.25-.5zM1422.375 502.496c-.751-.5-1.251-1-1.251-1.75-.25-.751 0-1.502.5-2.252v-.25c.501-.751 1.001-1.251 1.751-1.501.752-.25 1.502-.25 2.002.25.75.5 1.251 1 1.251 1.501 0 .75 0 1.251-.501 2.002l-.25.5-3.502-2.002c-.25.501-.5 1.001-.25 1.502 0 .5.25.75.75 1 .25.25.75.25 1 .25h.752v.75h-1.002c-.5.502-1 .252-1.25 0zm2.502-5.003c-.25-.25-.75-.25-1.002 0-.5.25-.75.5-1 .751l2.502 1.501v-.25c.25-.501.25-.751.25-1.251 0 0-.25-.501-.75-.751zM1428.129 499.495l.25-.751 1.752 1.001-.25.751c.25-.251.5-.251 1-.251.25 0 .5 0 1.001.251 0 0 .251 0 .251.25 0 0 .25 0 .25.25l-.752.75-.5-.25c-.25-.25-.5-.25-.75-.25s-.5 0-.751.25l-1.751 3.002.751.501-.251.501-2.502-1.502.25-.5 1.001.25 2.252-3.753-1.251-.5z"/></g><g fill="none" stroke="#011F38" stroke-linecap="round" stroke-linejoin="round" stroke-miterlimit="10"><path d="M1887.969 415.826h-396.543M1887.969 156.925h-293.217"/></g><g><path d="M1292.092 740.903c-.548-.879-1.193-1.83-1.937-2.852s-1.544-2.051-2.403-3.089a45.76 45.76 0 0 0-2.695-2.984 28.92 28.92 0 0 0-2.813-2.522v11.447h-6.084v-27.027h6.084v10.158a249.76 249.76 0 0 0 4.767-5.156 889.48 889.48 0 0 0 4.472-5.002h7.22c-1.839 2.19-3.689 4.297-5.551 6.318s-3.82 4.056-5.876 6.104c2.162 1.804 4.248 3.942 6.257 6.418 2.008 2.476 3.939 5.204 5.794 8.188h-7.235zM1318.596 740.201c-.988.286-2.263.553-3.822.8-1.561.247-3.198.37-4.914.37-1.742 0-3.192-.233-4.349-.702-1.157-.468-2.073-1.124-2.749-1.969-.678-.845-1.158-1.853-1.443-3.022-.287-1.171-.43-2.457-.43-3.861v-11.428h5.812v10.726c0 1.872.247 3.225.741 4.056.493.833 1.416 1.248 2.769 1.248.416 0 .858-.02 1.326-.059s.884-.084 1.248-.136v-15.835h5.812v19.812zM1342.842 730.646c0 1.638-.241 3.12-.723 4.445-.48 1.326-1.176 2.457-2.086 3.394-.91.936-2.027 1.657-3.354 2.164-1.326.508-2.834.761-4.524.761-.702 0-1.437-.033-2.204-.098a40.503 40.503 0 0 1-2.262-.253 31.38 31.38 0 0 1-2.125-.371 22.57 22.57 0 0 1-1.795-.448v-28.665l5.812-.937v10.219a10.79 10.79 0 0 1 2.028-.663 10.402 10.402 0 0 1 2.262-.234c1.456 0 2.743.254 3.861.761a7.586 7.586 0 0 1 2.808 2.164c.754.937 1.326 2.062 1.716 3.374.39 1.313.586 2.775.586 4.387zm-5.929-.156c0-3.744-1.378-5.616-4.134-5.616a6.85 6.85 0 0 0-1.774.234c-.585.155-1.06.351-1.424.585v10.569c.286.052.649.097 1.093.136.441.039.922.059 1.442.059 1.585 0 2.782-.546 3.588-1.638s1.209-2.535 1.209-4.329zM1346.086 730.802c0-1.819.279-3.412.838-4.777s1.293-2.502 2.203-3.412 1.957-1.6 3.141-2.067a9.827 9.827 0 0 1 3.646-.702c2.911 0 5.213.892 6.902 2.672 1.69 1.781 2.535 4.401 2.535 7.858 0 .338-.014.709-.039 1.111-.025.403-.053.761-.078 1.073h-13.182c.13 1.196.688 2.145 1.677 2.847.987.702 2.313 1.053 3.978 1.053 1.066 0 2.113-.098 3.141-.292 1.026-.195 1.865-.436 2.516-.722l.779 4.719a8.064 8.064 0 0 1-1.248.468c-.52.156-1.099.293-1.735.41-.638.117-1.319.214-2.048.292s-1.456.117-2.184.117c-1.847 0-3.451-.272-4.816-.819-1.365-.546-2.496-1.293-3.393-2.242a8.893 8.893 0 0 1-1.99-3.373c-.428-1.301-.643-2.705-.643-4.214zm13.65-2.223a6.057 6.057 0 0 0-.254-1.443 3.646 3.646 0 0 0-.663-1.248c-.3-.363-.677-.662-1.132-.896s-1.02-.352-1.695-.352c-.65 0-1.209.111-1.678.332-.468.221-.857.514-1.17.878s-.553.786-.721 1.267a8.26 8.26 0 0 0-.371 1.463h7.684zM1381.971 725.537a41.968 41.968 0 0 0-1.834-.409 11.319 11.319 0 0 0-2.262-.215c-.364 0-.799.033-1.307.098-.507.065-.891.137-1.15.215v15.678h-5.811v-19.422c1.039-.364 2.268-.708 3.686-1.034 1.416-.324 2.996-.487 4.738-.487.312 0 .688.02 1.131.059a24.05 24.05 0 0 1 2.652.389c.441.092.818.202 1.131.332l-.974 4.796zM1385.928 721.091c.988-.285 2.263-.552 3.822-.799a31.415 31.415 0 0 1 4.914-.371c1.742 0 3.191.229 4.349.683 1.157.455 2.073 1.099 2.75 1.931.676.832 1.156 1.82 1.442 2.964.286 1.145.43 2.418.43 3.822v11.583h-5.812v-10.881c0-1.872-.247-3.198-.741-3.979s-1.417-1.17-2.769-1.17c-.417 0-.858.02-1.326.059s-.884.085-1.248.137v15.834h-5.812v-19.813zM1407.593 730.802c0-1.819.279-3.412.839-4.777.559-1.365 1.293-2.502 2.203-3.412s1.957-1.6 3.14-2.067 2.398-.702 3.646-.702c2.911 0 5.213.892 6.903 2.672 1.689 1.781 2.535 4.401 2.535 7.858 0 .338-.014.709-.039 1.111-.026.403-.053.761-.078 1.073h-13.182c.129 1.196.688 2.145 1.676 2.847s2.314 1.053 3.979 1.053a16.89 16.89 0 0 0 3.14-.292c1.026-.195 1.865-.436 2.516-.722l.78 4.719a8.064 8.064 0 0 1-1.248.468c-.521.156-1.1.293-1.736.41s-1.319.214-2.047.292c-.729.078-1.457.117-2.184.117-1.848 0-3.452-.272-4.816-.819-1.365-.546-2.496-1.293-3.394-2.242-.897-.948-1.56-2.073-1.989-3.373-.429-1.301-.644-2.705-.644-4.214zm13.65-2.223a6.006 6.006 0 0 0-.253-1.443 3.648 3.648 0 0 0-.664-1.248c-.299-.363-.676-.662-1.131-.896s-1.021-.352-1.696-.352c-.65 0-1.209.111-1.677.332a3.457 3.457 0 0 0-1.17.878 3.924 3.924 0 0 0-.722 1.267c-.169.481-.292.97-.37 1.463h7.683zM1430.888 715.28l5.812-.937v6.045h6.98v4.837h-6.98v7.215c0 1.223.214 2.197.643 2.925.43.729 1.293 1.092 2.594 1.092.624 0 1.268-.059 1.931-.175a9.842 9.842 0 0 0 1.813-.488l.818 4.524c-.701.286-1.481.533-2.34.741-.857.208-1.91.312-3.158.312-1.586 0-2.9-.214-3.939-.644-1.04-.429-1.872-1.026-2.496-1.794-.624-.767-1.06-1.696-1.307-2.788s-.37-2.302-.37-3.627V715.28zM1446.748 730.802c0-1.819.279-3.412.84-4.777.559-1.365 1.293-2.502 2.203-3.412s1.956-1.6 3.139-2.067a9.831 9.831 0 0 1 3.646-.702c2.912 0 5.213.892 6.904 2.672 1.689 1.781 2.535 4.401 2.535 7.858 0 .338-.014.709-.039 1.111-.027.403-.053.761-.078 1.073h-13.183c.13 1.196.688 2.145 1.677 2.847s2.314 1.053 3.979 1.053c1.065 0 2.111-.098 3.139-.292 1.027-.195 1.865-.436 2.516-.722l.78 4.719a8.047 8.047 0 0 1-1.247.468c-.521.156-1.1.293-1.736.41s-1.32.214-2.047.292a20.52 20.52 0 0 1-2.185.117c-1.847 0-3.452-.272-4.816-.819-1.365-.546-2.496-1.293-3.394-2.242a8.889 8.889 0 0 1-1.988-3.373c-.43-1.301-.645-2.705-.645-4.214zm13.65-2.223a5.957 5.957 0 0 0-.253-1.443 3.629 3.629 0 0 0-.663-1.248c-.299-.363-.676-.662-1.131-.896s-1.021-.352-1.697-.352c-.65 0-1.209.111-1.677.332s-.858.514-1.17.878-.553.786-.722 1.267c-.169.481-.292.97-.37 1.463h7.683zM1476.073 736.73c1.065 0 1.819-.104 2.263-.312.441-.207.662-.61.662-1.209 0-.468-.286-.877-.857-1.229-.572-.351-1.443-.747-2.613-1.189a26.255 26.255 0 0 1-2.477-1.053 7.284 7.284 0 0 1-1.892-1.307c-.521-.507-.923-1.111-1.209-1.813s-.429-1.547-.429-2.535c0-1.924.715-3.444 2.145-4.562s3.393-1.678 5.889-1.678c1.248 0 2.444.111 3.588.332 1.145.221 2.055.462 2.73.722l-1.014 4.523a21.838 21.838 0 0 0-2.203-.624c-.794-.182-1.684-.272-2.672-.272-1.82 0-2.73.507-2.73 1.521 0 .234.039.442.117.624.078.183.234.357.469.526.233.17.551.353.955.549.402.196.916.413 1.541.648 1.273.472 2.326.938 3.158 1.396.832.459 1.488.955 1.97 1.486a4.603 4.603 0 0 1 1.015 1.771c.194.648.292 1.401.292 2.257 0 2.023-.761 3.555-2.282 4.592-1.521 1.037-3.672 1.557-6.454 1.557-1.82 0-3.335-.156-4.544-.468-1.209-.312-2.047-.571-2.516-.78l.976-4.719c.987.39 2.002.695 3.042.916 1.038.22 2.066.33 3.08.33zM1511.173 741.449c-4.395 0-7.741-1.222-10.043-3.666-2.301-2.443-3.451-5.915-3.451-10.413 0-2.235.351-4.231 1.053-5.986s1.663-3.237 2.886-4.446 2.678-2.126 4.369-2.749c1.689-.624 3.521-.937 5.498-.937 1.145 0 2.185.085 3.121.254.936.169 1.754.364 2.457.585.701.221 1.286.448 1.754.683.469.233.807.416 1.015.546l-1.755 4.914c-.833-.442-1.801-.819-2.906-1.131-1.105-.312-2.359-.469-3.764-.469-.936 0-1.852.156-2.749.469a6.217 6.217 0 0 0-2.379 1.501c-.689.689-1.242 1.579-1.657 2.672-.416 1.092-.625 2.418-.625 3.978 0 1.248.137 2.412.41 3.491s.715 2.008 1.326 2.788c.61.78 1.41 1.397 2.398 1.853s2.184.683 3.588.683c.884 0 1.677-.052 2.379-.156.702-.104 1.326-.228 1.872-.37s1.026-.306 1.442-.487.793-.352 1.132-.508l1.677 4.875c-.857.521-2.066.989-3.627 1.404-1.561.414-3.367.622-5.421.622zM1531.461 741.293c-1.691-.025-3.062-.208-4.115-.546-1.053-.337-1.885-.812-2.496-1.423a4.721 4.721 0 0 1-1.248-2.224c-.221-.871-.331-1.853-.331-2.944v-22.581l5.812-.937v22.348c0 .521.039.988.117 1.404s.227.767.447 1.053.54.521.956.702c.415.182.976.299 1.677.351l-.819 4.797zM1552.723 740.201c-.988.286-2.262.553-3.821.8s-3.198.37-4.914.37c-1.743 0-3.192-.233-4.349-.702-1.157-.468-2.074-1.124-2.75-1.969s-1.156-1.853-1.443-3.022c-.285-1.171-.428-2.457-.428-3.861v-11.428h5.811v10.726c0 1.872.246 3.225.74 4.056.494.833 1.418 1.248 2.77 1.248.416 0 .858-.02 1.326-.059.469-.039.884-.084 1.248-.136v-15.835h5.811v19.812zM1563.83 736.73c1.065 0 1.819-.104 2.262-.312.442-.207.663-.61.663-1.209 0-.468-.286-.877-.857-1.229-.572-.351-1.443-.747-2.613-1.189-.91-.337-1.735-.688-2.477-1.053s-1.372-.8-1.892-1.307c-.521-.507-.923-1.111-1.209-1.813s-.429-1.547-.429-2.535c0-1.924.715-3.444 2.145-4.562s3.394-1.678 5.89-1.678c1.248 0 2.443.111 3.588.332 1.144.221 2.054.462 2.729.722l-1.014 4.523a21.989 21.989 0 0 0-2.203-.624c-.794-.182-1.685-.272-2.672-.272-1.82 0-2.73.507-2.73 1.521 0 .234.039.442.117.624.078.183.234.357.468.526.234.17.553.353.956.549.402.196.916.413 1.54.648 1.273.472 2.327.938 3.159 1.396.832.459 1.488.955 1.97 1.486a4.6 4.6 0 0 1 1.014 1.771c.195.648.293 1.401.293 2.257 0 2.023-.761 3.555-2.281 4.592-1.521 1.037-3.673 1.557-6.455 1.557-1.82 0-3.335-.156-4.544-.468-1.209-.312-2.047-.571-2.515-.78l.975-4.719c.987.39 2.002.695 3.042.916 1.039.22 2.066.33 3.08.33zM1576.337 715.28l5.811-.937v6.045h6.981v4.837h-6.981v7.215c0 1.223.215 2.197.644 2.925.43.729 1.294 1.092 2.594 1.092.624 0 1.268-.059 1.931-.175a9.842 9.842 0 0 0 1.813-.488l.819 4.524c-.702.286-1.482.533-2.34.741-.858.208-1.911.312-3.159.312-1.587 0-2.899-.214-3.939-.644-1.04-.429-1.872-1.026-2.496-1.794-.624-.767-1.06-1.696-1.307-2.788s-.37-2.302-.37-3.627V715.28zM1592.198 730.802c0-1.819.279-3.412.839-4.777.559-1.365 1.293-2.502 2.203-3.412s1.956-1.6 3.14-2.067a9.827 9.827 0 0 1 3.646-.702c2.912 0 5.213.892 6.903 2.672 1.689 1.781 2.535 4.401 2.535 7.858 0 .338-.014.709-.039 1.111-.026.403-.053.761-.078 1.073h-13.183c.13 1.196.689 2.145 1.678 2.847.987.702 2.313 1.053 3.978 1.053a16.89 16.89 0 0 0 3.14-.292c1.027-.195 1.865-.436 2.516-.722l.78 4.719a8.064 8.064 0 0 1-1.248.468c-.521.156-1.099.293-1.735.41-.638.117-1.32.214-2.048.292-.729.078-1.456.117-2.185.117-1.846 0-3.451-.272-4.816-.819-1.364-.546-2.496-1.293-3.393-2.242-.897-.948-1.561-2.073-1.989-3.373s-.644-2.705-.644-4.214zm13.651-2.223a6.007 6.007 0 0 0-.254-1.443 3.612 3.612 0 0 0-.663-1.248c-.299-.363-.676-.662-1.131-.896s-1.021-.352-1.696-.352c-.65 0-1.209.111-1.677.332s-.858.514-1.17.878a3.924 3.924 0 0 0-.722 1.267 8.26 8.26 0 0 0-.371 1.463h7.684zM1628.082 725.537c-.52-.13-1.131-.267-1.833-.409a11.319 11.319 0 0 0-2.262-.215c-.364 0-.8.033-1.307.098-.507.065-.891.137-1.15.215v15.678h-5.811v-19.422c1.039-.364 2.268-.708 3.686-1.034 1.416-.324 2.996-.487 4.738-.487.312 0 .688.02 1.131.059a24.05 24.05 0 0 1 2.652.389c.441.092.818.202 1.131.332l-.975 4.796z"/></g><g><path d="M1906.122 404.611c.441.764.934 1.697 1.476 2.802s1.095 2.265 1.657 3.479c.562 1.215 1.119 2.45 1.672 3.705a806.012 806.012 0 0 1 1.521 3.479c.462-1.064.964-2.225 1.507-3.479a166.734 166.734 0 0 1 3.313-7.184 47.461 47.461 0 0 1 1.476-2.802h3.42c.185 1.526.358 3.148.521 4.865.164 1.717.312 3.475.444 5.271.133 1.798.256 3.605.368 5.423.113 1.817.21 3.59.292 5.316h-3.735c-.082-2.43-.179-4.93-.292-7.501-.112-2.57-.281-5.061-.506-7.471a203.107 203.107 0 0 0-2.787 6.085c-.352.804-.692 1.582-1.023 2.335a275.59 275.59 0 0 0-.919 2.108c-.281.653-.522 1.21-.724 1.672h-2.831c-.201-.462-.442-1.024-.723-1.687-.282-.663-.588-1.371-.919-2.124-.332-.753-.673-1.531-1.024-2.335-.352-.803-.698-1.576-1.039-2.319l-.964-2.094a64.928 64.928 0 0 0-.783-1.642c-.226 2.41-.395 4.9-.507 7.471-.113 2.571-.21 5.071-.292 7.501h-3.735a460.834 460.834 0 0 1 .659-10.859c.133-1.817.281-3.58.445-5.287.163-1.707.337-3.283.521-4.729h3.511zM1933.143 409.341c1.204 0 2.219.15 3.042.452.823.301 1.48.723 1.974 1.265.491.543.843 1.2 1.054 1.974s.316 1.622.316 2.545v9.55c-.562.12-1.411.267-2.545.437-1.136.171-2.416.256-3.841.256-.944 0-1.808-.09-2.591-.271s-1.451-.472-2.004-.874c-.552-.401-.983-.924-1.295-1.566s-.467-1.436-.467-2.38c0-.903.176-1.666.527-2.289.351-.622.828-1.13 1.431-1.521s1.3-.673 2.094-.844c.793-.17 1.621-.256 2.485-.256a11.274 11.274 0 0 1 2.681.332v-.603c0-.422-.051-.823-.15-1.205a2.51 2.51 0 0 0-.527-1.01 2.477 2.477 0 0 0-.994-.678c-.412-.16-.929-.24-1.552-.24-.843 0-1.616.06-2.319.181-.703.12-1.275.261-1.717.421l-.452-2.952c.462-.16 1.135-.32 2.019-.481a15.673 15.673 0 0 1 2.831-.243zm.3 13.586c1.124 0 1.978-.061 2.561-.181v-4.037a8.168 8.168 0 0 0-2.139-.271c-.402 0-.809.03-1.22.09a3.82 3.82 0 0 0-1.115.332 2.022 2.022 0 0 0-.798.678c-.201.291-.302.658-.302 1.1 0 .863.271 1.461.813 1.792s1.277.497 2.2.497zM1947.827 422.866c.964 0 1.667-.115 2.108-.346.442-.231.663-.628.663-1.19 0-.521-.236-.953-.708-1.295s-1.25-.713-2.334-1.115a18.194 18.194 0 0 1-1.823-.768 6.225 6.225 0 0 1-1.431-.949 3.878 3.878 0 0 1-.949-1.311c-.23-.512-.346-1.14-.346-1.883 0-1.445.531-2.585 1.597-3.419 1.063-.833 2.51-1.25 4.337-1.25.924 0 1.808.086 2.651.256.844.171 1.476.337 1.897.497l-.662 2.952c-.402-.181-.914-.346-1.536-.497-.623-.15-1.346-.226-2.169-.226-.744 0-1.346.126-1.808.377-.463.251-.693.638-.693 1.159 0 .262.046.492.136.693.091.2.246.387.467.557.221.171.513.342.874.513s.803.346 1.325.527c.863.321 1.597.638 2.199.948.603.312 1.1.663 1.491 1.055s.678.839.858 1.34c.181.503.271 1.105.271 1.808 0 1.507-.557 2.646-1.672 3.419-1.114.773-2.706 1.16-4.774 1.16-1.386 0-2.5-.116-3.344-.347-.843-.23-1.436-.416-1.777-.557l.633-3.043c.542.222 1.19.433 1.943.633.754.203 1.612.302 2.576.302zM1957.195 405.575l3.646-.603v4.76h5.603v3.043h-5.603v6.416c0 1.266.2 2.169.603 2.711.401.542 1.084.813 2.048.813.663 0 1.25-.07 1.763-.211.512-.14.918-.271 1.22-.392l.603 2.892c-.422.182-.975.367-1.657.558s-1.486.286-2.409.286c-1.125 0-2.063-.15-2.817-.452-.753-.301-1.351-.737-1.792-1.31-.442-.572-.753-1.266-.934-2.079s-.271-1.742-.271-2.786v-13.646zM1968.712 417.686c0-1.386.205-2.601.617-3.646.411-1.044.959-1.913 1.642-2.605s1.466-1.215 2.35-1.566 1.787-.527 2.711-.527c2.169 0 3.861.673 5.076 2.019s1.822 3.354 1.822 6.024c0 .201-.005.427-.015.678a12.35 12.35 0 0 1-.045.678h-10.394c.101 1.266.548 2.244 1.341 2.938.793.692 1.943 1.039 3.449 1.039.884 0 1.691-.08 2.425-.241.733-.16 1.311-.331 1.732-.512l.482 2.982c-.201.101-.478.206-.829.316s-.753.211-1.205.301c-.451.091-.938.166-1.461.226-.522.061-1.054.091-1.597.091-1.386 0-2.59-.206-3.614-.617-1.024-.412-1.868-.984-2.53-1.718-.663-.732-1.155-1.596-1.477-2.59s-.48-2.086-.48-3.27zm10.573-1.627c0-.502-.07-.979-.211-1.431a3.474 3.474 0 0 0-.617-1.175 2.907 2.907 0 0 0-.994-.783c-.392-.191-.859-.286-1.401-.286-.562 0-1.054.105-1.476.316-.422.21-.778.486-1.069.828a3.764 3.764 0 0 0-.678 1.175 6.386 6.386 0 0 0-.332 1.355h6.778zM1995.45 413.016c-.302-.1-.719-.205-1.251-.315s-1.149-.166-1.853-.166c-.401 0-.828.04-1.28.12-.451.081-.768.151-.948.211v12.622h-3.646v-15.002c.703-.261 1.582-.507 2.636-.737 1.055-.231 2.225-.347 3.51-.347.241 0 .521.015.844.045.32.03.643.07.964.12.32.051.633.111.934.182s.542.135.723.195l-.633 3.072z"/></g><g><path d="M1915.626 166.587a135.561 135.561 0 0 0-2.29-3.69 196.104 196.104 0 0 0-2.62-3.977c-.904-1.335-1.823-2.631-2.757-3.886s-1.822-2.385-2.666-3.389v14.941h-3.735V145.71h3.103c.804.844 1.667 1.843 2.591 2.998s1.853 2.355 2.787 3.6a133.888 133.888 0 0 1 2.711 3.75 93.068 93.068 0 0 1 2.334 3.509V145.71h3.766v20.876h-3.224zM1937.788 158.694c0 1.246-.181 2.38-.543 3.404-.361 1.024-.873 1.897-1.536 2.621-.662.723-1.461 1.286-2.395 1.687s-1.963.603-3.088.603-2.149-.201-3.072-.603c-.924-.401-1.717-.964-2.38-1.687s-1.18-1.597-1.552-2.621c-.371-1.024-.557-2.159-.557-3.404s.186-2.375.557-3.389c.372-1.014.894-1.883 1.566-2.606a6.933 6.933 0 0 1 2.396-1.672c.923-.392 1.938-.587 3.042-.587s2.124.196 3.058.587 1.732.949 2.395 1.672 1.18 1.592 1.552 2.606c.371 1.015.557 2.145.557 3.389zm-3.735 0c0-1.566-.337-2.806-1.01-3.72-.673-.914-1.611-1.371-2.816-1.371s-2.144.457-2.816 1.371c-.673.914-1.009 2.154-1.009 3.72 0 1.587.336 2.842 1.009 3.766.673.924 1.611 1.386 2.816 1.386s2.144-.462 2.816-1.386c.673-.923 1.01-2.179 1.01-3.766zM1954.684 166.105c-.723.221-1.632.422-2.726.603a21.13 21.13 0 0 1-3.449.271c-1.245 0-2.36-.191-3.344-.572a6.973 6.973 0 0 1-2.516-1.642c-.692-.713-1.225-1.577-1.597-2.591-.371-1.014-.557-2.154-.557-3.419 0-1.245.155-2.375.467-3.389.311-1.014.768-1.883 1.37-2.605.603-.723 1.336-1.28 2.199-1.672s1.857-.587 2.982-.587c.763 0 1.436.09 2.019.271a9.064 9.064 0 0 1 1.506.603v-7.561l3.645-.603v22.893zm-10.453-7.44c0 1.607.381 2.867 1.145 3.78.763.914 1.817 1.371 3.163 1.371.582 0 1.079-.025 1.491-.075.411-.05.748-.105 1.009-.166v-9.037c-.321-.221-.748-.427-1.28-.618s-1.1-.286-1.702-.286c-1.325 0-2.294.452-2.907 1.355-.613.904-.919 2.129-.919 3.676zM1958.232 158.785c0-1.386.205-2.601.617-3.645.411-1.044.959-1.913 1.642-2.605s1.466-1.215 2.35-1.566a7.285 7.285 0 0 1 2.711-.527c2.169 0 3.861.673 5.076 2.019 1.215 1.346 1.822 3.354 1.822 6.024 0 .201-.005.427-.015.678-.011.251-.025.477-.045.678h-10.394c.101 1.265.548 2.244 1.341 2.937s1.943 1.039 3.449 1.039c.884 0 1.691-.08 2.425-.241s1.311-.332 1.732-.512l.482 2.982a5.751 5.751 0 0 1-.829.316 11.5 11.5 0 0 1-1.205.301c-.451.09-.938.166-1.461.226s-1.054.09-1.597.09c-1.386 0-2.59-.206-3.614-.618-1.024-.411-1.868-.983-2.53-1.717-.663-.733-1.155-1.597-1.477-2.591s-.48-2.083-.48-3.268zm10.574-1.627c0-.502-.07-.979-.211-1.431a3.483 3.483 0 0 0-.617-1.175 2.931 2.931 0 0 0-.994-.783c-.392-.19-.859-.286-1.401-.286-.562 0-1.054.105-1.476.316s-.778.487-1.069.829a3.764 3.764 0 0 0-.678 1.175 6.401 6.401 0 0 0-.332 1.355h6.778z"/></g></svg>