<svg xmlns="http://www.w3.org/2000/svg" width="1024" height="768" viewBox="0 0 1024 768"><linearGradient id="a" gradientUnits="userSpaceOnUse" x1="232.655" y1="689.012" x2="590.645" y2="68.954"><stop offset="0" stop-color="#326de6"/><stop offset="1" stop-color="#10ffc6"/></linearGradient><path opacity=".2" fill="url(#a)" stroke="#000" stroke-miterlimit="10" d="M232.654 689.012L53.66 378.982 232.654 68.954h357.991L769.64 378.982l-178.995 310.03z"/><path fill="#326CE5" d="M406.221 306.176a9.23 9.23 0 0 0-3.514.89l-47.949 22.91a9.11 9.11 0 0 0-4.962 6.169l-11.829 51.465a9.015 9.015 0 0 0 1.246 6.971c.161.249.334.491.52.725l33.189 41.266a9.202 9.202 0 0 0 7.168 3.422l53.225-.012a9.19 9.19 0 0 0 7.168-3.416l33.177-41.272a9.031 9.031 0 0 0 1.772-7.696l-11.849-51.463a9.105 9.105 0 0 0-4.961-6.17l-47.956-22.898a9.21 9.21 0 0 0-4.445-.891z"/><path fill="#FFF" stroke="#326DE6" stroke-width="1.6" stroke-linecap="round" stroke-linejoin="round" stroke-miterlimit="10" d="M505.218 306.853l-89.065-51.539V152.239l89.065-51.288 89.316 51.288v103.075z"/><path fill="#326DE6" d="M416.153 224.542v30.772l89.065 51.539 26.52-15.512z"/><path fill="#A0CAEA" d="M463.188 276.58l8.256-14.01 50.036 28.771-16.262 9.508z"/><g fill="#FFF"><path d="M477.948 271.326c1.001.501 1.501 1.251 1.751 2.252.25 1 0 1.751-.5 2.752l-.5 1.001c-.5 1.001-1.251 1.501-2.252 1.751s-1.751 0-2.751-.5l-3.003-1.751.25-.5 1.001.25 3.251-5.754-.75-.5.25-.751.75.5 2.503 1.25zm-1.501 0l-3.253 5.754 1.251.75c.75.501 1.25.501 2.001.25.75-.25 1.25-.75 1.502-1.25l.5-1.001c.5-.75.5-1.251.5-2.001-.25-.751-.5-1.251-1.251-1.501l-1.25-1.001zM479.449 278.081c.5-.75 1-1.25 1.751-1.501.75-.25 1.502-.25 2.252.25s1.25 1 1.25 1.751c.25.75 0 1.501-.5 2.251s-1 1.25-1.751 1.5c-.75.251-1.5.251-2.252-.25-.75-.5-1.25-1-1.25-1.75 0-.5 0-1.25.5-2.251zm1.001.751c-.25.5-.5 1-.5 1.501 0 .5.25 1 .751 1.25.5.25 1 .25 1.25 0 .5-.25.751-.75 1.251-1.25.25-.501.5-1.001.5-1.501s-.25-1.001-.75-1.251a1.596 1.596 0 0 0-1.501 0c-.5.25-.5.5-1.001 1.251zM486.455 284.837c.25.25.751.25 1.001.25.25 0 .5-.25.75-.501l1 .501c-.25.5-.75.75-1.25.75-.75 0-1.251 0-1.751-.25-.75-.5-1.251-1.001-1.251-1.751s0-1.501.501-2.251v-.25c.5-.75 1-1.25 1.751-1.502.75-.25 1.5-.25 2.25.251.501.25.751.5 1.001 1 .25.25.5.75.5 1l-.75 1.251-.751-.5.25-1.001c0-.25-.25-.25-.25-.5l-.5-.5c-.5-.25-1-.25-1.5 0-.501.25-.751.75-1.001 1.25v.25c-.25.501-.5 1.001-.5 1.501-.251.5-.001.75.5 1.002zM492.959 280.083l.25-.751 1.751 1.001-2.501 4.503.5.25 2.001-.751-.5-.25.25-.75 2.252 1.25-.25.751-.751-.25-2.502.75.5 3.252.501.501-.251.5-2.25-1.251.25-.5.5.25-.5-2.502-.751-.25-.25 1.752.751.5-.251.5-2.502-1.5.25-.501 1.001.25 3.502-6.254-1-.5zM497.463 292.342c-.75-.5-1.251-1.001-1.251-1.752 0-.75 0-1.501.501-2.251v-.25c.5-.75 1-1.251 1.75-1.501.751-.25 1.501-.25 2.002.25.751.501 1.251 1.001 1.251 1.501 0 .75 0 1.251-.5 2.001l-.25.5-3.503-2.002c-.25.501-.5 1.001-.25 1.501 0 .5.25.75.75 1 .25.251.75.251 1.001.251h.75v.75h-1.001c-.25.502-.75.252-1.25.002zm2.751-4.753c-.25-.25-.75-.25-1 0-.501.25-.751.5-1.001.75l2.502 1.501v-.25c.251-.501.251-.751.251-1.251l-.752-.75zM503.468 289.34l.25-.751 1.75 1.001-.25.75c.25-.25.501-.25 1.001-.25.25 0 .5 0 1 .25 0 0 .25 0 .25.25 0 0 .25 0 .25.25l-.75.751-.5-.251c-.25-.25-.5-.25-.75-.25-.251 0-.501 0-.751.25l-1.751 3.003.751.5-.25.5-2.502-1.501.25-.5 1 .25 2.251-3.752-1.249-.5z"/></g><g fill="#FFF"><path d="M429.412 243.306l.25-.75 1.751 1-2.501 4.503.5.25 2.001-.75-.5-.25.25-.75 2.252 1.251-.25.751-.75-.251-2.503.751.501 3.252.5.5-.25.501-2.251-1.251.25-.501.5.25-.5-2.501-.75-.25-1.001 1.751.751.5-.251.5-2.502-1.5.25-.5 1.001.25 3.502-6.255-.25-.501zM435.667 255.565c-.25.25-.75.25-1 .25-.251 0-.751 0-1.001-.25-.5-.25-1-.75-1-1.251s0-1.251.5-2.001l1.501-2.502-.501-.5.251-.75.5.25 1 .5-1.751 3.252c-.25.5-.5 1.001-.5 1.251s.25.5.5.751c.251.25.751.25 1.001.25s.5 0 .75-.25l1.752-3.003-.75-.5.25-.75.75.5 1 .5-2.752 4.503.501.5-.251.501-1.5-.751.75-.5zM443.924 258.067c-.501.75-1.001 1.25-1.752 1.5-.75.25-1.251.25-2.001-.25l-.75-.75c-.25-.25-.25-.5-.25-1.001l-.501.751-.75-.5 4.003-7.005-.751-.5.251-.751 1.75 1.001-1.75 3.002c.25-.25.5-.25 1-.25.25 0 .75 0 1 .25.751.5 1.001 1.001 1.001 1.751.25 1 0 1.751-.5 2.752zm-1.002-.751c.25-.5.5-1.251.5-1.751s-.25-1-.75-1.251c-.25-.25-.5-.25-1-.25-.25 0-.501.25-.751.25l-1.25 2.251c0 .25 0 .5.25.75s.25.5.75.751c.5.25 1.001.25 1.251 0 .5.251.75.001 1-.75zM445.925 262.57c-.751-.501-1.251-1.001-1.251-1.752 0-.75 0-1.501.5-2.251v-.25c.5-.751 1.001-1.251 1.751-1.501s1.502-.25 2.002.25c.75.5 1.25 1.001 1.25 1.501 0 .75 0 1.251-.5 2.001l-.25.5-3.502-2.001c-.251.5-.501 1.001-.251 1.501 0 .5.251.751.751 1.001.25.25.75.25 1 .25h.75v.751h-1c-.5.5-.75.25-1.25 0zm2.502-5.004c-.251-.25-.751-.25-1.001 0-.5.25-.75.501-1 .751l2.502 1.501v-.25c.25-.5.25-.75.25-1.25-.001-.001-.251-.502-.751-.752zM452.929 257.066l.251-.751 1.75 1.001-4.002 7.005.75.5-.25.5-2.501-1.501.25-.5 1 .25 3.503-6.255-.751-.249zM454.431 267.574c-.75-.5-1.25-1.001-1.25-1.751-.251-.751 0-1.501.5-2.252v-.25c.5-.75 1-1.251 1.751-1.501.75-.25 1.5-.25 2 .25.751.501 1.251 1.001 1.251 1.501 0 .75 0 1.251-.5 2.001l-.25.501-3.503-2.001c-.25.5-.5 1-.25 1.5 0 .501.25.751.75 1.001.251.25.751.25 1.001.25h.75v.75h-1c-.249.251-.75.251-1.25.001zm2.752-5.004c-.25-.25-.75-.25-1 0-.5.25-.75.5-1 .75l2.501 1.501v-.25c.25-.5.25-.751.25-1.251l-.751-.75zM463.188 263.571l-.75 1.251 1 .5-.5.751-1.001-.501-2 3.252c-.25.25-.25.501-.25.501 0 .25.25.25.25.5 0 0 .25 0 .25.25h.25l-.25.751h-.5c-.251 0-.501-.25-.501-.25-.5-.251-.75-.501-.75-1.001 0-.5 0-.751.25-1.251l2.001-3.252-.75-.5.5-.751.75.5.75-1.251 1.251.501z"/></g><path fill="#FFF" stroke="#326DE6" stroke-width="1.6" stroke-linecap="round" stroke-linejoin="round" stroke-miterlimit="10" d="M399.39 255.314l-89.315 51.539-89.066-51.539V152.489l89.066-51.538 89.315 51.538z"/><path fill="#326DE6" d="M283.555 291.341l26.52 15.512 89.315-51.539-.25-30.522z"/><path fill="#A0CAEA" d="M352.105 276.58l-8.005-14.01 50.037-29.022v18.764z"/><g fill="#FFF"><path d="M355.108 261.319c1-.501 1.751-.751 2.751-.501 1.001.25 1.501.751 2.252 1.752l.5 1c.5 1 .75 1.751.5 2.752s-.75 1.751-1.751 2.251l-3.002 1.751-.25-.5.75-.5-3.252-5.754-1.001.25-.25-.75.75-.5 2.003-1.251zm-.751 1.501l3.252 5.754 1.251-.75c.751-.5 1.001-1 1.251-1.501.25-.751 0-1.251-.5-2.001l-.501-1.001c-.5-.75-1-1.251-1.501-1.251-.75-.25-1.251-.25-2.001.251l-1.251.499zM361.863 263.571c-.5-.75-.5-1.501-.5-2.251.25-.751.5-1.251 1.25-1.752.751-.5 1.501-.5 2.252-.25s1.251.751 1.751 1.501c.5.751.5 1.502.5 2.252-.25.75-.5 1.251-1.251 1.751-.75.5-1.5.5-2.251.25-.75 0-1.251-.751-1.751-1.501zm1.001-.501c.25.5.75 1.001 1.25 1.251s1.001.25 1.501 0 .751-.75.751-1.251c0-.5 0-1.001-.501-1.501-.25-.501-.75-1.001-1.25-1.251s-1.001-.25-1.501 0c-.501.25-.751.75-.751 1.251 0 .5 0 .751.501 1.501zM371.12 260.818l.75-.75c.251-.25 0-.751 0-1.001l.751-.5c.25.5.25 1 0 1.501-.25.5-.5 1-1.251 1.501-.75.5-1.501.5-2.251.25-.751-.25-1.251-.75-1.751-1.501v-.25c-.501-.751-.501-1.501-.501-2.252s.501-1.25 1.251-1.751c.5-.25.751-.5 1.251-.5h1.251l.75 1.251-.75.5-.75-.75h-.5c-.25 0-.5 0-.75.25-.5.25-.75.75-.75 1.251 0 .5.25 1 .5 1.5v.251c.25.5.751 1 1.001 1.251.748.25 1.248.25 1.749-.251zM370.119 252.812l-.25-.75 1.751-1.001 2.502 4.503.5-.25.25-2.001-.5.25-.25-.751 2.251-1.251.251.751-.501.5-.5 2.502 3.002 1.251.75-.251.25.501-2.251 1.251-.25-.501.5-.25-2.502-1.001-.75.251 1.001 1.751 1-.25.251.5-2.502 1.501-.25-.501.75-.5-3.502-6.505-1.001.251zM383.128 255.064c-.75.5-1.5.5-2.251.25-.75-.25-1.251-.75-1.751-1.501l-.25-.25c-.5-.751-.5-1.501-.5-2.252.25-.75.5-1.251 1.25-1.751.751-.5 1.501-.5 2.002-.25.5.25 1.25.75 1.5 1.501l.251.5-3.502 2.002c.25.5.75.75 1 1 .5.25 1.001.25 1.251 0l.75-.75c.25-.25.25-.501.501-.751l.75.501c0 .25-.25.5-.5 1 .25.251-.251.501-.501.751zm-3.002-4.753c-.251.25-.501.5-.501 1s0 .751.251 1.251l2.501-1.501v-.25c-.25-.5-.5-.75-.75-.75-.751 0-1.001 0-1.501.25zM383.128 248.56l-.25-.751 1.752-1.001.5.751c0-.25 0-.751.25-1.001s.25-.5.751-.75h.5l.5 1-.5.25c-.25.25-.5.25-.5.5s-.25.5 0 .75l1.751 3.002 1-.25.251.5-2.502 1.501-.25-.5.75-.5-2.251-3.753-1.752.252z"/></g><g fill="#FFF"><path d="M306.321 289.59l-.25-.751 1.751-1 2.502 4.503.5-.25.251-2.001-.501.25-.25-.75 2.251-1.251.25.75-.5.501-.5 2.501 3.002 1.25.75-.25.251.5-2.252 1.251-.25-.5.5-.25-2.501-1.001-.751.25 1.001 1.751 1-.25.25.5-2.502 1.502-.25-.5.75-.501-3.502-6.254h-1zM320.082 290.09c0 .5 0 .75-.25 1l-.751.751c-.5.25-1.25.5-1.751.25-.5-.25-1-.751-1.5-1.501l-1.502-2.501-.75.25-.25-.75.5-.25 1.001-.501 1.751 3.253c.25.5.75 1 1.001 1 .25 0 .5 0 1-.25l.75-.75c.25-.25.25-.5.25-1.001l-1.751-3.002-.75.25-.25-.75.751-.5 1-.501 2.752 4.503.75-.25.25.501-1.501.75h-.75zM326.336 284.335c.5.751.5 1.501.5 2.252 0 .751-.5 1.251-1.001 1.501-.25.25-.75.25-1 .25s-.75 0-1-.25l.25.75-.751.501-4.002-7.006-1.001.251-.25-.751 1.751-1 1.751 3.002c0-.25.25-.75.25-1l.751-.751c.75-.5 1.251-.5 2.001 0 .751.501 1.251 1.251 1.751 2.251zm-1 .25c-.25-.5-.751-1-1.251-1.25-.501-.25-1.001-.25-1.251 0l-.751.75c0 .25-.25.5-.25.751l1.251 2.251c.25.25.5.25.751.25.25 0 .5 0 1-.25.501-.251.751-.501.751-1.001.25-.249.25-.749-.25-1.501zM331.34 284.837c-.75.5-1.501.5-2.251.25s-1.251-.751-1.751-1.501l-.25-.25c-.501-.75-.501-1.501-.501-2.252.25-.75.501-1.251 1.251-1.751.751-.5 1.501-.5 2.001-.25s1.251.75 1.501 1.501l.251.5-3.503 2.002c.251.5.751.75 1.001 1 .5.25 1.001.25 1.251 0l.75-.75c.25-.25.25-.5.501-.75l.75.5c0 .25-.25.5-.5 1 .25.249 0 .499-.501.751zm-3.003-4.754c-.25.25-.5.5-.5 1s0 .75.25 1.25l2.502-1.5v-.25c-.25-.501-.5-.751-.75-.751-.751 0-1.001 0-1.502.251zM330.089 276.08l-.25-.75 1.751-1.001 4.003 7.005 1.001-.25.25.5-2.502 1.501-.25-.5.75-.501-3.503-6.254-1.25.25zM340.097 279.832c-.751.501-1.501.501-2.251.251-.751-.251-1.251-.751-1.752-1.501l-.25-.25c-.5-.751-.5-1.501-.5-2.252.25-.75.5-1.251 1.251-1.751.75-.5 1.501-.5 2.001-.25s1.251.75 1.501 1.501l.25.5-3.502 2.001c.25.501.75.751 1.001 1.001.5.25 1 .25 1.25 0l.751-.75c.25-.251.25-.501.5-.751l.751.5c0 .251-.25.501-.501 1.001.25.25-.25.5-.5.75zm-3.003-4.752c-.25.25-.5.5-.5 1s0 .75.25 1.251l2.501-1.501v-.25c-.25-.5-.5-.751-.75-.751-.75 0-1.251 0-1.501.251zM340.847 270.326l.751 1.25 1.001-.5.5.751-1.001.5 2.002 3.252c.25.25.25.5.5.5h.5s.25 0 .25-.25l.251-.25.5.5s-.25.25-.25.5c-.25.25-.25.25-.501.25-.5.25-.75.25-1.25.25-.25 0-.75-.5-1.001-1l-1.751-3.252-.751.5-.5-.75.75-.5-.75-1.251.75-.5z"/></g><path fill="#FFF" stroke="#326DE6" stroke-width="1.6" stroke-linecap="round" stroke-linejoin="round" stroke-miterlimit="10" d="M309.074 646.854l-89.066-51.289V492.489l89.066-51.287 89.316 51.287v103.076z"/><path fill="#326DE6" d="M282.554 456.463l26.52-15.261 89.316 51.287-.251 30.773z"/><path fill="#A0CAEA" d="M351.104 471.225l-8.005 14.259 50.037 28.772v-18.765z"/><g fill="#FFF"><path d="M308.073 452.211l.25-.752 1.751 1.002-2.502 4.503.501.25 2.001-.751-.501-.25.25-.75 2.251 1.25-.25.751-.75-.25-2.502.75.5 3.252.5.502-.25.5-2.251-1.252.25-.5.5.25-.5-2.502-.75-.25-1.001 1.752.75.5-.25.5-2.501-1.5.25-.502 1 .251 3.503-6.254-.249-.5zM314.578 464.469c-.25.25-.75.25-1 .25s-.75 0-1.001-.25c-.5-.25-1-.75-1-1.251 0-.5 0-1.25.5-2.002l1.501-2.502-.5-.5.25-.75.5.25 1.001.5-1.751 3.254c-.25.5-.5 1-.5 1.25s.25.5.5.75c.25.251.75.251 1 .251s.501 0 .751-.251l1.751-3.002-.75-.5.25-.75.75.5 1 .5-2.752 4.503.5.501-.25.5-1.501-.75.751-.501zM322.834 466.971c-.5.75-1.001 1.25-1.751 1.502-.75.25-1.251.25-2.002-.252l-.75-.75c-.25-.25-.25-.5-.25-1l-.5.75-.751-.5 4.003-7.005-.751-.5.25-.752 1.751 1.002-1.751 3.002c.25-.25.5-.25 1-.25.25 0 .75 0 1.001.25.75.5 1 1 1 1.751.251 1.001.001 1.751-.499 2.752zm-1.001-.75c.25-.501.5-1.251.5-1.752 0-.5-.25-1.001-.75-1.251-.25-.25-.5-.25-1-.25-.25 0-.501.25-.751.25l-1.251 2.252c0 .25 0 .5.25.751.25.25.25.5.751.75.5.25 1.001.25 1.251 0 .25.25.75-.25 1-.75zM324.835 471.475c-.75-.5-1.251-1.002-1.251-1.752s0-1.502.501-2.252l.25-.25c.5-.75 1.001-1.251 1.751-1.501s1.501-.25 2.001.25c.751.501 1.251 1.001 1.251 1.501 0 .752 0 1.252-.5 2.002l-.25.5-3.502-2.002c-.25.502-.501 1.002-.25 1.502 0 .5.25.75.75 1 .25.252.75.252 1 .252h.751v.75h-1.001c-.75.25-1.25.25-1.501 0zm2.502-5.004c-.25-.25-.751-.25-1.001 0-.5.25-.75.5-1 .75l2.501 1.502v-.25c.25-.502.25-.752.25-1.252s-.25-.5-.75-.75zM331.841 465.97l.25-.75 1.751 1.001-4.003 7.005.75.5-.25.5-2.502-1.501.25-.5 1.001.25 3.502-6.254-.749-.251zM333.342 476.478c-.751-.5-1.251-1-1.251-1.751s0-1.501.5-2.252v-.25c.501-.75 1.001-1.25 1.751-1.5.75-.252 1.501-.252 2.001.25.75.5 1.251 1 1.251 1.5 0 .751 0 1.251-.5 2.002l-.25.5-3.502-2.001c-.25.5-.501 1-.25 1.501 0 .5.25.751.75 1.001.25.25.751.25 1.001.25h.75v.75h-1c-.251.25-.751.25-1.251 0zm2.751-5.003c-.25-.25-.75-.25-1 0s-.75.5-1 .75l2.502 1.501v-.25c.25-.5.25-.751.25-1.251l-.752-.75zM342.098 472.475l-.75 1.251 1.001.5-.501.751-1.001-.5-2.001 3.253c-.25.25-.25.5-.25.5 0 .25.25.25.25.5 0 0 .25 0 .25.25h.25l-.25.75h-.5c-.25 0-.5-.25-.5-.25-.5-.25-.751-.5-.751-1s0-.75.25-1.252l2.001-3.252-.75-.5.5-.751.751.501.75-1.251 1.251.5z"/></g><g fill="#FFF"><path d="M358.86 481.481c1.001.5 1.501 1.251 1.751 2.251.25 1.002 0 1.752-.5 2.752l-.5 1.002c-.501 1-1.251 1.501-2.252 1.751s-1.751 0-2.752-.501l-3.002-1.75.25-.502 1 .252 3.252-5.755-.75-.5.25-.752.75.501 2.503 1.251zm-1.751 0l-3.252 5.755 1.251.75c.75.5 1.25.5 2.001.25.75-.25 1.251-.75 1.501-1.25l.5-1.002c.501-.75.501-1.25.501-2.001-.25-.751-.501-1.251-1.251-1.501l-1.251-1.001zM360.361 488.236c.5-.75 1.001-1.25 1.751-1.5.751-.252 1.501-.252 2.252.25.75.5 1.25 1 1.25 1.75.25.751 0 1.502-.5 2.252-.5.751-1.001 1.251-1.751 1.501-.751.25-1.501.25-2.252-.25-.75-.5-1.25-1-1.25-1.751-.25-.5 0-1.251.5-2.252zm.751.751c-.25.5-.5 1.001-.5 1.501s.25 1.001.75 1.251 1 .25 1.25 0c.501-.25.751-.751 1.251-1.251.25-.5.5-1.001.5-1.501 0-.501-.25-1.001-.751-1.251-.5-.25-1.001-.25-1.501 0-.248.25-.498.5-.999 1.251zM367.116 494.991c.251.25.751.25 1.001.25s.5-.25.751-.5l.75.5c-.25.5-.75.752-1.251.752-.75 0-1.251 0-1.751-.252-.751-.5-1.251-1-1.251-1.75 0-.751 0-1.502.5-2.252v-.25c.501-.751 1.001-1.251 1.752-1.501.75-.25 1.501-.25 2.251.25.5.25.75.5 1.001 1.001.25.25.5.75.5 1l-.75 1.251-.75-.501.25-1c0-.25-.25-.25-.25-.5l-.5-.501c-.5-.25-1.001-.25-1.501 0-.501.251-.751.751-1.001 1.251v.25c-.25.5-.5 1.001-.5 1.502-.001.25.249.75.749 1zM373.872 490.238l.25-.751 1.751 1.001-2.502 4.503.5.25 2.001-.75-.5-.25.25-.751 2.251 1.251-.25.75-.75-.25-2.502.752.5 3.251.501.501-.251.5-2.251-1.251.25-.5.5.25-.5-2.501-.75-.25-1.001 1.75.751.501-.251.5-2.501-1.501.25-.5 1 .25 3.502-6.255-.248-.5zM378.375 502.496c-.751-.5-1.251-1-1.251-1.75-.25-.751 0-1.502.5-2.252v-.25c.5-.751 1.001-1.251 1.751-1.501.751-.25 1.501-.25 2.001.25.75.5 1.251 1 1.251 1.501 0 .75 0 1.251-.5 2.002l-.25.5-3.502-2.002c-.25.501-.5 1.001-.25 1.502 0 .5.25.75.75 1 .25.25.75.25 1 .25h.751v.75h-1.001c-.5.502-1 .252-1.25 0zm2.501-5.003c-.25-.25-.75-.25-1.001 0-.5.25-.75.5-1 .751l2.501 1.501v-.25c.25-.501.25-.751.25-1.251.001 0-.249-.501-.75-.751zM384.129 499.495l.25-.751 1.752 1.001-.25.751c.25-.251.5-.251 1.001-.251.25 0 .5 0 1 .251 0 0 .25 0 .25.25 0 0 .25 0 .25.25l-.751.75-.5-.25c-.25-.25-.5-.25-.75-.25s-.5 0-.751.25l-1.751 3.002.751.501-.251.501-2.501-1.502.25-.5 1 .25 2.252-3.753-1.251-.5z"/></g><g><path d="M248.092 740.903a48.333 48.333 0 0 0-1.937-2.852 62.935 62.935 0 0 0-2.403-3.089 46.343 46.343 0 0 0-2.695-2.984 28.927 28.927 0 0 0-2.814-2.522v11.447h-6.084v-27.027h6.084v10.158a247.004 247.004 0 0 0 4.767-5.156 887.244 887.244 0 0 0 4.471-5.002h7.22a183.022 183.022 0 0 1-5.551 6.318 196.51 196.51 0 0 1-5.876 6.104c2.162 1.804 4.248 3.942 6.256 6.418s3.939 5.204 5.794 8.188h-7.232zM274.595 740.201c-.988.286-2.262.553-3.822.8s-3.198.37-4.914.37c-1.743 0-3.192-.233-4.349-.702-1.157-.468-2.074-1.124-2.75-1.969-.677-.845-1.157-1.853-1.443-3.022-.286-1.171-.429-2.457-.429-3.861v-11.428h5.811v10.726c0 1.872.247 3.225.741 4.056.494.833 1.417 1.248 2.769 1.248.416 0 .858-.02 1.326-.059a21.64 21.64 0 0 0 1.248-.136v-15.835h5.811v19.812zM298.841 730.646c0 1.638-.241 3.12-.722 4.445-.481 1.326-1.177 2.457-2.086 3.394-.91.936-2.028 1.657-3.354 2.164-1.326.508-2.834.761-4.524.761-.702 0-1.437-.033-2.204-.098a40.503 40.503 0 0 1-2.262-.253 31.162 31.162 0 0 1-2.125-.371 22.537 22.537 0 0 1-1.794-.448v-28.665l5.811-.937v10.219c.65-.286 1.326-.508 2.028-.663a10.415 10.415 0 0 1 2.262-.234c1.456 0 2.743.254 3.861.761a7.586 7.586 0 0 1 2.808 2.164c.754.937 1.326 2.062 1.716 3.374.39 1.313.585 2.775.585 4.387zm-5.928-.156c0-3.744-1.378-5.616-4.134-5.616a6.85 6.85 0 0 0-1.774.234c-.585.155-1.06.351-1.424.585v10.569c.286.052.65.097 1.092.136.441.039.922.059 1.443.059 1.585 0 2.782-.546 3.588-1.638.806-1.091 1.209-2.535 1.209-4.329zM302.085 730.802c0-1.819.279-3.412.839-4.777.559-1.365 1.293-2.502 2.203-3.412s1.957-1.6 3.14-2.067 2.398-.702 3.646-.702c2.912 0 5.213.892 6.903 2.672 1.69 1.781 2.535 4.401 2.535 7.858 0 .338-.014.709-.039 1.111-.026.403-.053.761-.078 1.073h-13.182c.13 1.196.688 2.145 1.677 2.847.988.702 2.314 1.053 3.978 1.053a16.89 16.89 0 0 0 3.14-.292c1.027-.195 1.865-.436 2.516-.722l.78 4.719a8.025 8.025 0 0 1-1.248.468c-.521.156-1.099.293-1.736.41-.637.117-1.32.214-2.047.292-.729.078-1.457.117-2.184.117-1.847 0-3.452-.272-4.816-.819-1.365-.546-2.496-1.293-3.393-2.242-.897-.948-1.56-2.073-1.989-3.373-.43-1.301-.645-2.705-.645-4.214zm13.651-2.223a6.056 6.056 0 0 0-.253-1.443 3.646 3.646 0 0 0-.663-1.248c-.299-.363-.676-.662-1.131-.896s-1.021-.352-1.696-.352c-.65 0-1.209.111-1.677.332-.468.221-.858.514-1.17.878s-.553.786-.721 1.267c-.169.481-.292.97-.371 1.463h7.682zM337.97 725.537c-.521-.13-1.131-.267-1.833-.409s-1.457-.215-2.262-.215c-.364 0-.799.033-1.307.098-.507.065-.891.137-1.15.215v15.678h-5.811v-19.422c1.04-.364 2.268-.708 3.686-1.034 1.417-.324 2.997-.487 4.739-.487.312 0 .688.02 1.131.059a23.937 23.937 0 0 1 2.652.389c.442.092.819.202 1.131.332l-.976 4.796zM341.928 721.091c.988-.285 2.262-.552 3.822-.799s3.198-.371 4.914-.371c1.741 0 3.191.229 4.348.683 1.157.455 2.073 1.099 2.75 1.931.676.832 1.156 1.82 1.443 2.964.286 1.145.429 2.418.429 3.822v11.583h-5.811v-10.881c0-1.872-.247-3.198-.741-3.979-.494-.78-1.417-1.17-2.769-1.17-.417 0-.858.02-1.326.059-.468.039-.884.085-1.248.137v15.834h-5.811v-19.813zM363.593 730.802c0-1.819.279-3.412.839-4.777.559-1.365 1.293-2.502 2.203-3.412s1.957-1.6 3.14-2.067 2.398-.702 3.646-.702c2.912 0 5.213.892 6.903 2.672 1.69 1.781 2.535 4.401 2.535 7.858 0 .338-.014.709-.039 1.111-.026.403-.053.761-.078 1.073H369.56c.13 1.196.688 2.145 1.677 2.847.988.702 2.314 1.053 3.978 1.053a16.89 16.89 0 0 0 3.14-.292c1.027-.195 1.865-.436 2.516-.722l.78 4.719a8.025 8.025 0 0 1-1.248.468c-.521.156-1.099.293-1.736.41-.637.117-1.32.214-2.047.292-.729.078-1.457.117-2.184.117-1.847 0-3.452-.272-4.816-.819-1.365-.546-2.496-1.293-3.393-2.242-.897-.948-1.56-2.073-1.989-3.373-.43-1.301-.645-2.705-.645-4.214zm13.65-2.223a6.056 6.056 0 0 0-.253-1.443 3.646 3.646 0 0 0-.663-1.248c-.299-.363-.676-.662-1.131-.896s-1.021-.352-1.696-.352c-.65 0-1.209.111-1.677.332-.468.221-.858.514-1.17.878s-.553.786-.721 1.267c-.169.481-.292.97-.371 1.463h7.682zM386.888 715.28l5.811-.937v6.045h6.981v4.837h-6.981v7.215c0 1.223.214 2.197.644 2.925.429.729 1.293 1.092 2.593 1.092.624 0 1.268-.059 1.931-.175a9.842 9.842 0 0 0 1.813-.488l.819 4.524c-.702.286-1.482.533-2.34.741s-1.911.312-3.159.312c-1.586 0-2.899-.214-3.939-.644-1.04-.429-1.872-1.026-2.496-1.794-.624-.767-1.06-1.696-1.306-2.788-.248-1.092-.371-2.302-.371-3.627V715.28zM402.749 730.802c0-1.819.279-3.412.839-4.777.559-1.365 1.293-2.502 2.203-3.412s1.957-1.6 3.14-2.067 2.398-.702 3.646-.702c2.912 0 5.213.892 6.903 2.672 1.69 1.781 2.535 4.401 2.535 7.858 0 .338-.014.709-.039 1.111-.026.403-.053.761-.078 1.073h-13.182c.13 1.196.688 2.145 1.677 2.847.988.702 2.314 1.053 3.978 1.053a16.89 16.89 0 0 0 3.14-.292c1.027-.195 1.865-.436 2.516-.722l.78 4.719a8.025 8.025 0 0 1-1.248.468c-.521.156-1.099.293-1.736.41-.637.117-1.32.214-2.047.292-.729.078-1.457.117-2.184.117-1.847 0-3.452-.272-4.816-.819-1.365-.546-2.496-1.293-3.393-2.242-.897-.948-1.56-2.073-1.989-3.373-.431-1.301-.645-2.705-.645-4.214zm13.65-2.223a6.056 6.056 0 0 0-.253-1.443 3.646 3.646 0 0 0-.663-1.248c-.299-.363-.676-.662-1.131-.896s-1.021-.352-1.696-.352c-.65 0-1.209.111-1.677.332-.468.221-.858.514-1.17.878s-.553.786-.721 1.267c-.169.481-.292.97-.371 1.463h7.682zM432.073 736.73c1.066 0 1.82-.104 2.262-.312.441-.207.663-.61.663-1.209 0-.468-.286-.877-.858-1.229-.572-.351-1.443-.747-2.613-1.189a26.143 26.143 0 0 1-2.477-1.053 7.284 7.284 0 0 1-1.892-1.307 5.268 5.268 0 0 1-1.209-1.813c-.287-.702-.429-1.547-.429-2.535 0-1.924.715-3.444 2.145-4.562 1.43-1.118 3.393-1.678 5.889-1.678 1.248 0 2.444.111 3.588.332s2.054.462 2.73.722l-1.014 4.523a21.86 21.86 0 0 0-2.204-.624c-.793-.182-1.684-.272-2.671-.272-1.82 0-2.73.507-2.73 1.521 0 .234.039.442.117.624.078.183.234.357.468.526.234.17.552.353.956.549.403.196.917.413 1.541.648 1.273.472 2.326.938 3.159 1.396.832.459 1.488.955 1.97 1.486a4.588 4.588 0 0 1 1.014 1.771c.195.648.292 1.401.292 2.257 0 2.023-.761 3.555-2.282 4.592s-3.673 1.557-6.455 1.557c-1.82 0-3.334-.156-4.543-.468-1.209-.312-2.047-.571-2.516-.78l.975-4.719c.988.39 2.002.695 3.042.916 1.041.22 2.068.33 3.082.33zM467.173 741.449c-4.395 0-7.742-1.222-10.043-3.666-2.301-2.443-3.451-5.915-3.451-10.413 0-2.235.351-4.231 1.053-5.986s1.664-3.237 2.886-4.446c1.222-1.209 2.678-2.126 4.368-2.749 1.689-.624 3.522-.937 5.499-.937 1.144 0 2.184.085 3.12.254a20.23 20.23 0 0 1 2.457.585c.702.221 1.287.448 1.755.683.468.233.806.416 1.014.546l-1.755 4.914c-.833-.442-1.801-.819-2.905-1.131-1.105-.312-2.36-.469-3.764-.469-.936 0-1.853.156-2.75.469a6.217 6.217 0 0 0-2.379 1.501c-.689.689-1.242 1.579-1.658 2.672-.416 1.092-.624 2.418-.624 3.978 0 1.248.137 2.412.41 3.491s.715 2.008 1.326 2.788 1.41 1.397 2.399 1.853c.988.455 2.184.683 3.588.683.884 0 1.677-.052 2.379-.156.702-.104 1.326-.228 1.872-.37s1.027-.306 1.443-.487.793-.352 1.131-.508l1.677 4.875c-.858.521-2.067.989-3.627 1.404-1.56.414-3.367.622-5.421.622zM487.46 741.293c-1.69-.025-3.062-.208-4.114-.546-1.053-.337-1.886-.812-2.496-1.423a4.721 4.721 0 0 1-1.248-2.224c-.221-.871-.332-1.853-.332-2.944v-22.581l5.811-.937v22.348c0 .521.039.988.117 1.404s.227.767.448 1.053c.221.286.54.521.956.702.416.182.975.299 1.677.351l-.819 4.797zM508.723 740.201c-.988.286-2.262.553-3.822.8s-3.198.37-4.914.37c-1.743 0-3.192-.233-4.349-.702-1.157-.468-2.074-1.124-2.75-1.969-.677-.845-1.157-1.853-1.443-3.022-.286-1.171-.429-2.457-.429-3.861v-11.428h5.811v10.726c0 1.872.247 3.225.741 4.056.494.833 1.417 1.248 2.769 1.248.416 0 .858-.02 1.326-.059a21.64 21.64 0 0 0 1.248-.136v-15.835h5.811v19.812zM519.83 736.73c1.065 0 1.819-.104 2.262-.312.442-.207.663-.61.663-1.209 0-.468-.286-.877-.857-1.229-.572-.351-1.443-.747-2.613-1.189-.91-.337-1.735-.688-2.477-1.053s-1.372-.8-1.892-1.307c-.521-.507-.923-1.111-1.209-1.813s-.429-1.547-.429-2.535c0-1.924.715-3.444 2.145-4.562s3.394-1.678 5.89-1.678c1.248 0 2.443.111 3.588.332 1.144.221 2.054.462 2.729.722l-1.014 4.523a21.989 21.989 0 0 0-2.203-.624c-.794-.182-1.685-.272-2.672-.272-1.82 0-2.73.507-2.73 1.521 0 .234.039.442.117.624.078.183.234.357.468.526.234.17.553.353.956.549.402.196.916.413 1.54.648 1.273.472 2.327.938 3.159 1.396.832.459 1.488.955 1.97 1.486a4.6 4.6 0 0 1 1.014 1.771c.195.648.293 1.401.293 2.257 0 2.023-.761 3.555-2.281 4.592-1.521 1.037-3.673 1.557-6.455 1.557-1.82 0-3.335-.156-4.544-.468-1.209-.312-2.047-.571-2.515-.78l.975-4.719c.987.39 2.002.695 3.042.916 1.039.22 2.066.33 3.08.33zM532.337 715.28l5.811-.937v6.045h6.981v4.837h-6.981v7.215c0 1.223.215 2.197.644 2.925.43.729 1.294 1.092 2.594 1.092.624 0 1.268-.059 1.931-.175a9.842 9.842 0 0 0 1.813-.488l.819 4.524c-.702.286-1.482.533-2.34.741-.858.208-1.911.312-3.159.312-1.587 0-2.899-.214-3.939-.644-1.04-.429-1.872-1.026-2.496-1.794-.624-.767-1.06-1.696-1.307-2.788s-.37-2.302-.37-3.627V715.28zM548.198 730.802c0-1.819.279-3.412.839-4.777.559-1.365 1.293-2.502 2.203-3.412s1.956-1.6 3.14-2.067a9.827 9.827 0 0 1 3.646-.702c2.912 0 5.213.892 6.903 2.672 1.689 1.781 2.535 4.401 2.535 7.858 0 .338-.014.709-.039 1.111-.026.403-.053.761-.078 1.073h-13.183c.13 1.196.689 2.145 1.678 2.847.987.702 2.313 1.053 3.978 1.053a16.89 16.89 0 0 0 3.14-.292c1.027-.195 1.865-.436 2.516-.722l.78 4.719a8.064 8.064 0 0 1-1.248.468c-.521.156-1.099.293-1.735.41-.638.117-1.32.214-2.048.292-.729.078-1.456.117-2.185.117-1.846 0-3.451-.272-4.816-.819-1.364-.546-2.496-1.293-3.393-2.242-.897-.948-1.561-2.073-1.989-3.373s-.644-2.705-.644-4.214zm13.651-2.223a6.007 6.007 0 0 0-.254-1.443 3.612 3.612 0 0 0-.663-1.248c-.299-.363-.676-.662-1.131-.896s-1.021-.352-1.696-.352c-.65 0-1.209.111-1.677.332s-.858.514-1.17.878a3.924 3.924 0 0 0-.722 1.267 8.26 8.26 0 0 0-.371 1.463h7.684zM584.082 725.537c-.52-.13-1.131-.267-1.833-.409a11.319 11.319 0 0 0-2.262-.215c-.364 0-.8.033-1.307.098-.507.065-.891.137-1.15.215v15.678h-5.811v-19.422c1.039-.364 2.268-.708 3.686-1.034 1.416-.324 2.996-.487 4.738-.487.312 0 .688.02 1.131.059a24.05 24.05 0 0 1 2.652.389c.441.092.818.202 1.131.332l-.975 4.796z"/></g><g><path d="M875.271 378.191c0 1.808-.281 3.379-.844 4.715-.562 1.336-1.36 2.45-2.395 3.344s-2.279 1.557-3.735 1.988-3.067.647-4.835.647c-.843 0-1.797-.035-2.861-.105s-2.079-.216-3.043-.437V368.07a18.249 18.249 0 0 1 3.073-.422 52.043 52.043 0 0 1 2.892-.091c1.747 0 3.344.206 4.79.618 1.445.411 2.686 1.054 3.72 1.928 1.034.873 1.833 1.979 2.395 3.313.561 1.337.843 2.928.843 4.775zm-13.917 7.321c.221.021.512.035.874.045.361.011.853.016 1.476.016 2.55 0 4.453-.648 5.708-1.943s1.883-3.107 1.883-5.438c0-2.369-.612-4.188-1.837-5.452-1.226-1.266-3.123-1.897-5.693-1.897-1.125 0-1.928.029-2.41.09v14.579zM878.253 380.843c0-1.386.205-2.601.617-3.646.411-1.044.959-1.913 1.642-2.605s1.466-1.215 2.35-1.566 1.787-.527 2.711-.527c2.169 0 3.861.673 5.076 2.019s1.822 3.354 1.822 6.024c0 .201-.005.427-.015.678a12.35 12.35 0 0 1-.045.678h-10.394c.101 1.266.548 2.244 1.341 2.938.793.692 1.943 1.039 3.449 1.039.884 0 1.691-.08 2.425-.241.733-.16 1.311-.331 1.732-.512l.482 2.982c-.201.101-.478.206-.829.316s-.753.211-1.205.301c-.451.091-.938.166-1.461.226-.522.061-1.054.091-1.597.091-1.386 0-2.59-.206-3.614-.617-1.024-.412-1.868-.984-2.53-1.718-.663-.732-1.155-1.596-1.477-2.59s-.48-2.086-.48-3.27zm10.573-1.627c0-.502-.07-.979-.211-1.431a3.474 3.474 0 0 0-.617-1.175 2.907 2.907 0 0 0-.994-.783c-.392-.191-.859-.286-1.401-.286-.562 0-1.054.105-1.476.316-.422.21-.778.486-1.069.828a3.764 3.764 0 0 0-.678 1.175 6.386 6.386 0 0 0-.332 1.355h6.778zM910.202 380.782c0 1.205-.156 2.31-.467 3.313-.312 1.005-.759 1.868-1.341 2.591s-1.311 1.285-2.184 1.687c-.874.402-1.863.603-2.968.603-.743 0-1.426-.09-2.048-.271-.623-.181-1.135-.382-1.536-.603v6.115h-3.646v-20.815a29.041 29.041 0 0 1 2.741-.573 20.859 20.859 0 0 1 3.435-.271c1.245 0 2.359.191 3.344.572a6.982 6.982 0 0 1 2.515 1.642c.693.713 1.226 1.577 1.597 2.591.373 1.015.558 2.154.558 3.419zm-3.735.061c0-1.627-.366-2.893-1.1-3.796s-1.913-1.355-3.539-1.355c-.342 0-.698.015-1.069.045-.372.03-.738.096-1.1.196v9.007c.32.221.748.427 1.28.617.531.191 1.1.286 1.701.286 1.326 0 2.295-.451 2.907-1.355.613-.904.92-2.119.92-3.645zM919.163 388.945c-1.084-.02-1.983-.141-2.695-.361-.714-.221-1.28-.537-1.702-.948a3.355 3.355 0 0 1-.889-1.537c-.171-.612-.256-1.31-.256-2.093v-18.135l3.645-.603v18.044c0 .442.035.813.105 1.114.07.302.195.558.377.769.181.211.426.372.737.482s.708.195 1.19.256l-.512 3.012zM936.569 380.752c0 1.245-.181 2.38-.543 3.404-.361 1.024-.873 1.897-1.536 2.621-.662.723-1.461 1.285-2.395 1.687s-1.963.603-3.088.603-2.149-.201-3.072-.603a6.935 6.935 0 0 1-2.38-1.687c-.663-.724-1.18-1.597-1.552-2.621-.371-1.024-.557-2.159-.557-3.404s.186-2.374.557-3.389c.372-1.014.894-1.883 1.566-2.605a6.92 6.92 0 0 1 2.396-1.672c.923-.392 1.938-.588 3.042-.588s2.124.196 3.058.588 1.732.948 2.395 1.672c.663.723 1.18 1.592 1.552 2.605.371 1.015.557 2.144.557 3.389zm-3.735 0c0-1.566-.337-2.806-1.01-3.72s-1.611-1.371-2.816-1.371-2.144.457-2.816 1.371-1.009 2.153-1.009 3.72c0 1.587.336 2.842 1.009 3.766s1.611 1.386 2.816 1.386 2.144-.462 2.816-1.386 1.01-2.179 1.01-3.766zM952.736 372.89c-1.624 5.985-3.509 11.407-5.653 16.267a16.269 16.269 0 0 1-1.236 2.32 6.868 6.868 0 0 1-1.417 1.596 5.03 5.03 0 0 1-1.749.919c-.644.191-1.388.286-2.231.286-.563 0-1.121-.06-1.674-.181-.554-.12-.971-.251-1.252-.392l.663-2.922a5.923 5.923 0 0 0 2.148.422c.948 0 1.689-.226 2.224-.678.535-.452 1.004-1.15 1.408-2.094a84.044 84.044 0 0 1-3.313-7.229 79.073 79.073 0 0 1-2.828-8.314h3.886c.201.844.448 1.758.74 2.741a85.499 85.499 0 0 0 2.041 6.025 59.087 59.087 0 0 0 1.149 2.801 82.259 82.259 0 0 0 1.8-5.708c.56-2.019 1.069-3.972 1.529-5.859h3.765zM964.364 380.36c0-1.646-.207-2.836-.618-3.569-.412-.733-1.18-1.1-2.305-1.1-.401 0-.843.03-1.325.09-.481.061-.844.111-1.084.151v12.712h-3.646v-15.242c.703-.201 1.622-.392 2.757-.573a22.84 22.84 0 0 1 3.6-.271c1.084 0 1.973.141 2.666.422.692.281 1.27.652 1.731 1.114.222-.16.502-.331.844-.512s.724-.347 1.145-.497c.422-.151.869-.276 1.341-.377s.949-.15 1.431-.15c1.225 0 2.234.176 3.027.527.794.352 1.416.843 1.868 1.476s.763 1.396.934 2.289c.171.895.256 1.873.256 2.938v8.856h-3.645v-8.284c0-1.646-.201-2.836-.603-3.569-.402-.733-1.175-1.1-2.319-1.1-.583 0-1.135.096-1.657.286-.522.191-.914.377-1.175.558.16.502.271 1.034.331 1.596.061.562.091 1.165.091 1.808v8.706h-3.645v-8.285zM980.333 380.843c0-1.386.205-2.601.617-3.646.411-1.044.959-1.913 1.642-2.605s1.466-1.215 2.35-1.566 1.787-.527 2.711-.527c2.169 0 3.861.673 5.076 2.019s1.822 3.354 1.822 6.024c0 .201-.005.427-.015.678a12.35 12.35 0 0 1-.045.678h-10.394c.101 1.266.548 2.244 1.341 2.938.793.692 1.943 1.039 3.449 1.039.884 0 1.691-.08 2.425-.241.733-.16 1.311-.331 1.732-.512l.482 2.982c-.201.101-.478.206-.829.316s-.753.211-1.205.301c-.451.091-.938.166-1.461.226-.522.061-1.054.091-1.597.091-1.386 0-2.59-.206-3.614-.617-1.024-.412-1.868-.984-2.53-1.718-.663-.732-1.155-1.596-1.477-2.59s-.48-2.086-.48-3.27zm10.573-1.627c0-.502-.07-.979-.211-1.431a3.474 3.474 0 0 0-.617-1.175 2.907 2.907 0 0 0-.994-.783c-.392-.191-.859-.286-1.401-.286-.562 0-1.054.105-1.476.316-.422.21-.778.486-1.069.828a3.764 3.764 0 0 0-.678 1.175 6.386 6.386 0 0 0-.332 1.355h6.778zM998.093 373.402c.703-.201 1.616-.392 2.741-.573 1.125-.181 2.37-.271 3.735-.271 1.285 0 2.359.176 3.224.527.863.352 1.551.843 2.063 1.476.512.633.873 1.396 1.084 2.289.211.895.316 1.873.316 2.938v8.856h-3.645v-8.284c0-.844-.056-1.562-.166-2.153-.11-.593-.291-1.074-.542-1.446a2.166 2.166 0 0 0-1.024-.813c-.432-.17-.959-.256-1.581-.256-.463 0-.944.03-1.446.09-.502.061-.874.111-1.114.151v12.712h-3.646v-15.243zM1015.233 368.732l3.646-.603v4.76h5.603v3.043h-5.603v6.416c0 1.266.2 2.169.603 2.711.401.542 1.084.813 2.048.813.663 0 1.25-.07 1.763-.211.512-.14.918-.271 1.22-.392l.603 2.892c-.422.182-.975.367-1.657.558s-1.486.286-2.409.286c-1.125 0-2.063-.15-2.817-.452-.753-.301-1.351-.737-1.792-1.31-.442-.572-.753-1.266-.934-2.079s-.271-1.742-.271-2.786v-13.646z"/><path fill="none" stroke="#011F38" stroke-linecap="round" stroke-linejoin="round" stroke-miterlimit="10" d="M843.969 378.982H447.426"/><g><circle fill="#06F7C9" stroke="#FFF" stroke-width=".3" stroke-linecap="round" stroke-linejoin="round" stroke-miterlimit="10" cx="406.7" cy="378.983" r="25.269"/><path fill="none" stroke="#000" stroke-width="2" stroke-linecap="round" stroke-linejoin="round" d="M415.394 364.723c4.754 3.001 8.006 8.255 8.006 14.51 0 9.258-7.506 16.762-16.763 16.762s-16.763-7.504-16.763-16.762c0-7.256 4.753-13.51 11.26-16.012"/><path d="M418.458 371.977l-2.251-6.754 6.755-2.252-3.752-2.002-7.006 2.252 2.252 6.755zM401.258 387.488v-16.763h5.755c2.001 0 3.752.751 5.004 2.001 1.25 1.252 2 3.004 2 5.006v2.752c0 2.002-.75 3.752-2 5.004-1.252 1.25-3.003 2-5.004 2h-5.755zm3.252-14.259v11.76h2.253c1.25 0 2.251-.502 2.751-1.252.751-.75 1.001-2.002 1.001-3.252v-2.752c0-1.252-.25-2.252-1.001-3.254-.75-.75-1.751-1.25-2.751-1.25h-2.253z"/></g></g><g><g fill="#06F7C9" stroke="#011F38" stroke-width=".8" stroke-linecap="round" stroke-linejoin="round" stroke-miterlimit="10"><path d="M283.555 187.662l24.267-14.01 24.268 14.01-24.268 14.01z"/><path d="M283.555 215.683v-28.021l24.267 14.01v28.021zM307.822 229.693v-28.021l24.268-14.01v28.021z"/></g></g><g><g fill="#06F7C9" stroke="#011F38" stroke-width=".8" stroke-linecap="round" stroke-linejoin="round" stroke-miterlimit="10"><path d="M481.076 187.661l24.268-14.01 24.267 14.01-24.267 14.012zM481.076 215.683v-28.022l24.268 14.012v28.019z"/><path d="M505.344 229.692v-28.019l24.267-14.012v28.022z"/></g></g><g opacity=".2"><g fill="#06F7C9" stroke="#011F38" stroke-width=".8" stroke-linecap="round" stroke-linejoin="round" stroke-miterlimit="10"><path d="M281.804 537.271l24.267-14.009 24.268 14.009-24.268 14.012z"/><path d="M281.804 565.293v-28.022l24.267 14.012v28.02zM306.071 579.303v-28.02l24.268-14.012v28.022z"/></g></g></svg>