<svg xmlns="http://www.w3.org/2000/svg" width="1024" height="768" viewBox="0 0 1024 768"><path fill="#FFF" stroke="#326DE6" stroke-width="1.6" stroke-linecap="round" stroke-linejoin="round" stroke-miterlimit="10" d="M394.341 647.771H166.364L52.182 449.782l114.073-197.599h228.182l114.178 197.765z"/><path fill="#326DE6" d="M132.274 588.632l34.09 59.139h227.977l33.701-59.139z"/><path fill="#A0CAEA" d="M280.164 636.248v-36.027H408.36l-20.67 36.031z"/><g fill="#FFF"><path d="M183.117 628.841a36.566 36.566 0 0 0-1.7-2.379 39.674 39.674 0 0 0-2.023-2.407 36.578 36.578 0 0 0-2.195-2.207 20.18 20.18 0 0 0-2.237-1.814v8.808h-3.568v-19.626h3.568v8.1a143.695 143.695 0 0 0 3.979-4.149c.67-.726 1.307-1.43 1.912-2.108.604-.68 1.151-1.294 1.643-1.841h4.276a161.826 161.826 0 0 1-4.136 4.573c-.736.784-1.478 1.563-2.223 2.337a99.985 99.985 0 0 1-2.194 2.208c.793.605 1.6 1.308 2.421 2.11a42.387 42.387 0 0 1 2.422 2.578 45.5 45.5 0 0 1 4.275 5.818h-4.22v-.001zM201.093 628.387c-.661.171-1.52.346-2.578.523-1.058.18-2.218.271-3.482.271-1.189 0-2.186-.172-2.987-.51-.803-.34-1.445-.812-1.926-1.416-.481-.604-.826-1.326-1.034-2.165a11.492 11.492 0 0 1-.311-2.762v-8.298h3.428v7.759c0 1.586.23 2.72.693 3.398.461.68 1.269 1.021 2.42 1.021.416 0 .854-.02 1.317-.057a6.83 6.83 0 0 0 1.034-.142V614.03h3.427l-.001 14.357zM218.573 621.449c0 1.189-.175 2.261-.524 3.216-.35.952-.85 1.77-1.501 2.45a6.512 6.512 0 0 1-2.365 1.558c-.925.357-1.973.537-3.144.537-1.133 0-2.214-.084-3.243-.255-1.03-.169-1.883-.357-2.562-.565v-20.957l3.426-.565v7.674a8.074 8.074 0 0 1 1.458-.564 6.73 6.73 0 0 1 1.911-.256c1.038 0 1.968.185 2.79.554a5.448 5.448 0 0 1 2.054 1.571c.547.679.967 1.496 1.261 2.45.292.948.439 2.001.439 3.152zm-3.512-.056c0-1.453-.288-2.606-.864-3.455-.576-.85-1.486-1.274-2.733-1.274-.566 0-1.1.085-1.6.254-.5.171-.902.359-1.203.567v8.523c.245.058.562.11.949.156.387.047.854.071 1.402.071 1.265 0 2.256-.429 2.974-1.289.717-.858 1.075-2.044 1.075-3.553zM221.21 621.506c0-1.303.192-2.445.58-3.427.387-.982.902-1.799 1.544-2.45a6.339 6.339 0 0 1 2.209-1.472 6.844 6.844 0 0 1 2.548-.496c2.039 0 3.629.633 4.772 1.896 1.142 1.265 1.714 3.154 1.714 5.664 0 .187-.005.4-.014.637-.009.237-.024.448-.042.637h-9.771c.095 1.19.514 2.11 1.26 2.762.745.651 1.826.977 3.243.977.831 0 1.59-.074 2.28-.227.689-.15 1.231-.312 1.628-.48l.453 2.804a5.89 5.89 0 0 1-.778.297c-.331.103-.708.197-1.133.282s-.884.156-1.375.212c-.492.058-.992.085-1.501.085-1.303 0-2.436-.193-3.398-.579-.962-.388-1.756-.927-2.379-1.615a6.605 6.605 0 0 1-1.387-2.436c-.303-.932-.453-1.957-.453-3.071zm9.94-1.529c0-.471-.066-.921-.198-1.346a3.232 3.232 0 0 0-.581-1.104 2.72 2.72 0 0 0-.934-.735c-.367-.181-.806-.27-1.316-.27-.53 0-.992.1-1.388.298a3.138 3.138 0 0 0-1.005.778 3.562 3.562 0 0 0-.637 1.103 5.921 5.921 0 0 0-.312 1.275l6.371.001zM243.122 629.124c-1.02-.019-1.864-.133-2.534-.339-.67-.209-1.204-.505-1.601-.893a3.17 3.17 0 0 1-.836-1.444c-.161-.576-.24-1.232-.24-1.969v-17.05l3.428-.564v16.965c0 .415.032.764.1 1.047.065.284.183.523.354.722.169.198.4.349.693.453.292.104.665.184 1.119.239l-.483 2.833zM245.373 621.506c0-1.303.193-2.445.58-3.427.387-.982.902-1.799 1.545-2.45a6.344 6.344 0 0 1 2.208-1.472 6.848 6.848 0 0 1 2.548-.496c2.04 0 3.63.633 4.773 1.896 1.142 1.265 1.714 3.154 1.714 5.664 0 .187-.005.4-.014.637-.008.237-.024.448-.042.637h-9.771c.094 1.19.514 2.11 1.261 2.762.745.651 1.826.977 3.243.977.831 0 1.59-.074 2.28-.227.689-.15 1.231-.312 1.628-.48l.453 2.804a5.835 5.835 0 0 1-.778.297c-.331.103-.708.197-1.133.282-.425.085-.883.156-1.374.212-.491.058-.992.085-1.501.085-1.303 0-2.436-.193-3.398-.579-.962-.388-1.756-.927-2.378-1.615a6.605 6.605 0 0 1-1.387-2.436c-.307-.932-.457-1.957-.457-3.071zm9.94-1.529c0-.471-.066-.921-.198-1.346a3.198 3.198 0 0 0-.581-1.104 2.72 2.72 0 0 0-.934-.735c-.368-.181-.806-.27-1.316-.27-.53 0-.992.1-1.388.298a3.127 3.127 0 0 0-1.005.778 3.543 3.543 0 0 0-.637 1.103 5.98 5.98 0 0 0-.312 1.275l6.371.001zM262.01 610.121l3.428-.566v4.476h5.268v2.859h-5.268v6.033c0 1.19.188 2.04.567 2.55.378.508 1.02.764 1.925.764.623 0 1.175-.066 1.656-.198s.864-.253 1.148-.366l.566 2.718c-.397.171-.917.346-1.559.524-.642.179-1.397.27-2.265.27-1.058 0-1.94-.143-2.647-.425-.708-.284-1.271-.694-1.687-1.234-.416-.538-.708-1.188-.878-1.952-.169-.766-.255-1.638-.255-2.621v-12.832h.001z"/></g><g fill="#FFF"><path d="M307.673 619.014c0 1.699-.266 3.176-.794 4.434-.528 1.254-1.279 2.303-2.251 3.143-.972.842-2.142 1.464-3.512 1.87-1.369.406-2.884.609-4.545.609-.793 0-1.689-.033-2.69-.099-1-.067-1.953-.202-2.86-.41v-19.062a17.399 17.399 0 0 1 2.889-.396 50.27 50.27 0 0 1 2.718-.085c1.642 0 3.143.193 4.503.581 1.359.388 2.525.99 3.498 1.812.973.822 1.723 1.861 2.251 3.116.527 1.252.793 2.749.793 4.487zm-13.085 6.882c.208.019.481.031.822.042.339.009.801.014 1.387.014 2.396 0 4.187-.61 5.368-1.828 1.179-1.216 1.77-2.921 1.77-5.112 0-2.227-.575-3.937-1.728-5.125-1.152-1.19-2.936-1.785-5.352-1.785-1.058 0-1.812.029-2.266.085v13.709zM324.771 621.421c0 1.17-.169 2.237-.509 3.2-.339.964-.822 1.783-1.444 2.464a6.466 6.466 0 0 1-2.251 1.586c-.878.378-1.845.566-2.903.566s-2.02-.188-2.889-.566c-.869-.377-1.614-.907-2.237-1.586s-1.109-1.5-1.458-2.464c-.35-.963-.525-2.03-.525-3.2s.174-2.233.525-3.187c.348-.953.84-1.771 1.472-2.45a6.525 6.525 0 0 1 2.251-1.571c.869-.367 1.822-.552 2.861-.552 1.038 0 1.996.185 2.874.552a6.377 6.377 0 0 1 2.252 1.571c.623.68 1.108 1.497 1.458 2.45.35.954.523 2.017.523 3.187zm-3.512 0c0-1.473-.317-2.638-.949-3.498-.633-.858-1.516-1.288-2.647-1.288s-2.016.43-2.648 1.288c-.633.86-.948 2.025-.948 3.498 0 1.492.316 2.672.948 3.539s1.516 1.304 2.648 1.304 2.015-.435 2.647-1.304c.634-.867.949-2.047.949-3.539zM327.392 621.449a9.08 9.08 0 0 1 .509-3.072 7.276 7.276 0 0 1 1.458-2.478 6.645 6.645 0 0 1 2.309-1.643c.906-.397 1.925-.595 3.059-.595 1.396 0 2.718.253 3.964.766l-.736 2.803a7.685 7.685 0 0 0-1.345-.424 7.241 7.241 0 0 0-1.6-.171c-1.341 0-2.361.42-3.059 1.259-.698.841-1.047 2.024-1.047 3.555 0 1.473.329 2.639.992 3.497.661.86 1.774 1.289 3.342 1.289.584 0 1.161-.057 1.728-.17a8.094 8.094 0 0 0 1.473-.425l.481 2.833c-.378.188-.949.358-1.713.509-.765.151-1.554.226-2.366.226-1.265 0-2.365-.192-3.298-.579-.934-.388-1.709-.926-2.323-1.615-.614-.688-1.072-1.512-1.373-2.465-.305-.953-.455-1.986-.455-3.1zM345.06 619.806c.434-.451.897-.937 1.389-1.458.49-.519.972-1.038 1.444-1.559.472-.518.92-1.02 1.345-1.5.425-.482.788-.902 1.09-1.262h4.051a246.883 246.883 0 0 1-2.981 3.286 147.58 147.58 0 0 1-3.151 3.313 19.44 19.44 0 0 1 1.78 1.714 30.995 30.995 0 0 1 1.809 2.139 43.35 43.35 0 0 1 1.64 2.266c.509.754.933 1.454 1.272 2.096h-3.965a28.543 28.543 0 0 0-1.175-1.839 23.518 23.518 0 0 0-1.431-1.871 30.958 30.958 0 0 0-1.558-1.714 13.289 13.289 0 0 0-1.558-1.373v6.797h-3.427V607.43l3.427-.564v12.94zM355.615 621.506c0-1.303.193-2.445.581-3.427.387-.982.902-1.799 1.544-2.45a6.344 6.344 0 0 1 2.208-1.472 6.844 6.844 0 0 1 2.548-.496c2.04 0 3.63.633 4.773 1.896 1.142 1.265 1.714 3.154 1.714 5.664 0 .187-.005.4-.014.637-.01.237-.024.448-.042.637h-9.771c.095 1.19.515 2.11 1.261 2.762.745.651 1.826.977 3.243.977.831 0 1.59-.074 2.28-.227.688-.15 1.231-.312 1.628-.48l.453 2.804a5.835 5.835 0 0 1-.778.297c-.331.103-.708.197-1.133.282-.425.085-.883.156-1.375.212a12.78 12.78 0 0 1-1.5.085c-1.303 0-2.436-.193-3.398-.579-.962-.388-1.756-.927-2.378-1.615a6.621 6.621 0 0 1-1.388-2.436c-.305-.932-.456-1.957-.456-3.071zm9.94-1.529a4.55 4.55 0 0 0-.197-1.346 3.232 3.232 0 0 0-.581-1.104 2.72 2.72 0 0 0-.934-.735c-.368-.181-.807-.27-1.317-.27-.53 0-.991.1-1.387.298-.397.197-.732.457-1.005.778s-.486.689-.637 1.103a5.919 5.919 0 0 0-.311 1.275l6.369.001zM380.833 617.115a11.177 11.177 0 0 0-1.175-.296 8.63 8.63 0 0 0-1.742-.156c-.377 0-.778.037-1.203.113s-.722.141-.892.198v11.866h-3.426v-14.104c.66-.245 1.486-.477 2.478-.693.991-.217 2.09-.327 3.298-.327.227 0 .491.016.794.041.301.029.603.069.906.115.301.046.595.104.878.171.283.065.509.127.68.183l-.596 2.889z"/></g><path fill="#FFF" stroke="#326DE6" stroke-width="1.6" stroke-linecap="round" stroke-linejoin="round" stroke-miterlimit="10" d="M853.054 647.771H625.078L510.897 449.782 624.97 252.181h228.18l114.179 197.766z"/><path fill="#326DE6" d="M590.988 588.632l34.09 59.139h227.976l33.701-59.139z"/><path fill="#A0CAEA" d="M738.877 636.247v-36.024h128.195l-20.669 36.026z"/><g fill="#FFF"><path d="M641.829 628.84a35.923 35.923 0 0 0-1.7-2.379 37.158 37.158 0 0 0-4.217-4.615 20.507 20.507 0 0 0-2.237-1.814v8.809h-3.567v-19.626h3.567v8.1a138.614 138.614 0 0 0 3.979-4.149c.669-.726 1.306-1.43 1.911-2.108.604-.68 1.152-1.294 1.645-1.841h4.275a162.126 162.126 0 0 1-4.134 4.573c-.738.784-1.479 1.562-2.225 2.337a99.985 99.985 0 0 1-2.194 2.208c.794.605 1.6 1.308 2.421 2.109a44.8 44.8 0 0 1 4.699 5.437 43.63 43.63 0 0 1 1.998 2.96h-4.221v-.001zM659.806 628.386c-.661.171-1.519.346-2.577.523-1.057.181-2.219.27-3.483.27-1.19 0-2.186-.171-2.988-.509-.803-.341-1.444-.812-1.925-1.417-.481-.603-.827-1.325-1.035-2.164-.208-.84-.31-1.763-.31-2.762v-8.299h3.426v7.761c0 1.585.231 2.719.693 3.396.463.681 1.271 1.021 2.421 1.021.414 0 .855-.019 1.316-.056.463-.037.808-.085 1.035-.143v-11.979h3.427v14.358zM677.286 621.448c0 1.19-.176 2.261-.525 3.216a6.92 6.92 0 0 1-1.5 2.449 6.482 6.482 0 0 1-2.366 1.558c-.925.358-1.973.537-3.144.537-1.133 0-2.213-.084-3.242-.254-1.029-.169-1.885-.357-2.563-.565v-20.957l3.427-.566v7.675a8.111 8.111 0 0 1 1.46-.565 6.766 6.766 0 0 1 1.911-.255c1.037 0 1.969.185 2.79.553a5.441 5.441 0 0 1 2.053 1.572c.547.679.967 1.496 1.26 2.449.291.953.439 2.002.439 3.153zm-3.513-.056c0-1.453-.289-2.606-.863-3.455-.577-.85-1.486-1.274-2.734-1.274-.565 0-1.1.084-1.6.254-.501.171-.902.359-1.204.567v8.523c.244.058.561.109.948.156.387.047.854.07 1.403.07 1.264 0 2.256-.429 2.974-1.288.718-.858 1.076-2.044 1.076-3.553zM679.923 621.505c0-1.303.191-2.445.579-3.428.388-.981.901-1.798 1.543-2.449a6.343 6.343 0 0 1 2.209-1.472 6.83 6.83 0 0 1 2.549-.496c2.039 0 3.63.633 4.773 1.896 1.141 1.265 1.712 3.154 1.712 5.664a15.19 15.19 0 0 1-.057 1.274h-9.77c.094 1.19.514 2.108 1.26 2.762.745.651 1.827.977 3.242.977.829 0 1.591-.074 2.279-.227.689-.15 1.232-.312 1.628-.481l.453 2.805a5.907 5.907 0 0 1-.778.296c-.33.104-.708.198-1.133.283-.425.086-.884.155-1.373.212a12.6 12.6 0 0 1-1.502.085c-1.304 0-2.435-.193-3.398-.58-.963-.388-1.756-.926-2.379-1.615a6.63 6.63 0 0 1-1.389-2.435c-.298-.933-.448-1.958-.448-3.071zm9.941-1.529c0-.472-.068-.921-.197-1.346a3.285 3.285 0 0 0-.581-1.104 2.746 2.746 0 0 0-.935-.735c-.369-.181-.808-.271-1.317-.271-.527 0-.989.1-1.389.298-.396.198-.729.458-1.004.779s-.487.688-.639 1.103a6.13 6.13 0 0 0-.31 1.275l6.372.001zM701.833 629.122c-1.021-.019-1.864-.132-2.534-.339-.671-.208-1.204-.504-1.601-.892a3.15 3.15 0 0 1-.835-1.444c-.161-.576-.24-1.232-.24-1.97v-17.049l3.427-.564v16.965c0 .415.033.764.1 1.046.066.284.185.523.353.722.17.198.401.35.695.454.292.104.664.183 1.118.239l-.483 2.832zM704.085 621.505c0-1.303.193-2.445.581-3.428.386-.981.9-1.798 1.542-2.449a6.361 6.361 0 0 1 2.209-1.472 6.82 6.82 0 0 1 2.548-.496c2.04 0 3.632.633 4.773 1.896 1.143 1.265 1.712 3.154 1.712 5.664a15.19 15.19 0 0 1-.056 1.274h-9.77c.093 1.19.513 2.108 1.259 2.762.745.651 1.828.977 3.243.977.829 0 1.59-.074 2.279-.227.688-.15 1.232-.312 1.628-.481l.453 2.805a5.852 5.852 0 0 1-.778.296c-.331.104-.709.198-1.134.283a16.6 16.6 0 0 1-1.373.212c-.492.059-.991.085-1.502.085-1.302 0-2.435-.193-3.398-.58-.963-.388-1.756-.926-2.379-1.615a6.629 6.629 0 0 1-1.388-2.435c-.299-.933-.449-1.958-.449-3.071zm9.94-1.529c0-.472-.067-.921-.198-1.346a3.247 3.247 0 0 0-.58-1.104 2.742 2.742 0 0 0-.934-.735c-.369-.181-.808-.271-1.317-.271-.528 0-.99.1-1.388.298s-.731.458-1.005.779a3.553 3.553 0 0 0-.638 1.103c-.151.416-.255.84-.312 1.275l6.372.001zM720.724 610.119l3.426-.565v4.475h5.268v2.86h-5.268v6.033c0 1.189.189 2.04.567 2.549s1.02.765 1.926.765a6.29 6.29 0 0 0 1.657-.198c.48-.132.864-.253 1.146-.368l.565 2.72a12.49 12.49 0 0 1-1.558.523c-.644.181-1.398.269-2.265.269-1.058 0-1.941-.141-2.647-.423-.708-.284-1.271-.696-1.686-1.234-.416-.538-.709-1.188-.877-1.952-.171-.766-.254-1.638-.254-2.621v-12.831z"/></g><g fill="#FFF"><path d="M766.386 619.014c0 1.699-.265 3.176-.793 4.434-.529 1.254-1.279 2.303-2.253 3.143-.972.842-2.144 1.464-3.512 1.87s-2.884.609-4.545.609a41.24 41.24 0 0 1-2.689-.099 18.19 18.19 0 0 1-2.859-.41v-19.062a17.384 17.384 0 0 1 2.889-.396 50.244 50.244 0 0 1 2.719-.085c1.643 0 3.145.193 4.502.581 1.358.389 2.525.99 3.497 1.812.974.822 1.724 1.861 2.253 3.116.526 1.252.791 2.749.791 4.487zm-13.084 6.882c.206.019.481.031.821.042.339.009.803.014 1.387.014 2.397 0 4.188-.61 5.367-1.828 1.181-1.216 1.77-2.921 1.77-5.112 0-2.227-.575-3.937-1.727-5.125-1.151-1.19-2.937-1.785-5.353-1.785-1.058 0-1.813.029-2.265.085v13.709zM783.485 621.421c0 1.17-.169 2.237-.508 3.2-.341.964-.823 1.783-1.444 2.464a6.46 6.46 0 0 1-2.254 1.586c-.877.378-1.845.566-2.9.566-1.059 0-2.021-.188-2.891-.566a6.528 6.528 0 0 1-2.236-1.586c-.622-.679-1.11-1.5-1.459-2.464-.351-.963-.523-2.03-.523-3.2s.174-2.233.523-3.187c.348-.953.84-1.771 1.473-2.45a6.51 6.51 0 0 1 2.252-1.571c.867-.367 1.821-.552 2.859-.552 1.037 0 1.995.185 2.875.552a6.373 6.373 0 0 1 2.251 1.571c.623.68 1.109 1.497 1.459 2.45s.523 2.017.523 3.187zm-3.511 0c0-1.473-.316-2.638-.948-3.498-.632-.858-1.516-1.288-2.646-1.288-1.133 0-2.016.43-2.648 1.288-.633.86-.948 2.025-.948 3.498 0 1.492.315 2.672.948 3.539s1.516 1.304 2.648 1.304c1.131 0 2.015-.435 2.646-1.304.631-.867.948-2.047.948-3.539zM786.105 621.449c0-1.094.169-2.119.508-3.072a7.248 7.248 0 0 1 1.46-2.478 6.66 6.66 0 0 1 2.308-1.643c.907-.397 1.927-.595 3.06-.595 1.396 0 2.718.254 3.963.766l-.735 2.803a7.724 7.724 0 0 0-1.346-.424 7.264 7.264 0 0 0-1.601-.171c-1.341 0-2.361.42-3.058 1.259-.699.841-1.047 2.024-1.047 3.555 0 1.473.33 2.639.989 3.497.661.86 1.775 1.289 3.342 1.289.585 0 1.162-.057 1.729-.17s1.056-.255 1.472-.425l.481 2.833c-.378.188-.947.358-1.714.509a12.17 12.17 0 0 1-2.363.226c-1.266 0-2.367-.192-3.301-.579-.935-.388-1.709-.926-2.321-1.615-.614-.688-1.071-1.512-1.374-2.465-.301-.953-.452-1.986-.452-3.1zM803.773 619.806c.434-.451.896-.937 1.387-1.458a141.35 141.35 0 0 0 2.791-3.059c.425-.482.787-.902 1.09-1.262h4.049a239.93 239.93 0 0 1-2.98 3.286 157.09 157.09 0 0 1-3.15 3.315 19.26 19.26 0 0 1 1.78 1.712 30.995 30.995 0 0 1 1.809 2.139c.584.755 1.13 1.512 1.639 2.266.51.755.934 1.454 1.272 2.096h-3.966a27.427 27.427 0 0 0-1.175-1.841 24.402 24.402 0 0 0-1.43-1.869 30.958 30.958 0 0 0-1.558-1.714 13.37 13.37 0 0 0-1.558-1.373v6.797h-3.428V607.43l3.428-.564v12.94zM814.329 621.506c0-1.303.192-2.445.58-3.427.388-.982.901-1.799 1.543-2.45a6.352 6.352 0 0 1 2.21-1.472 6.828 6.828 0 0 1 2.548-.496c2.039 0 3.63.633 4.773 1.896 1.142 1.265 1.712 3.154 1.712 5.664a14.928 14.928 0 0 1-.056 1.274h-9.771c.094 1.19.514 2.11 1.26 2.762.745.651 1.827.977 3.242.977.829 0 1.591-.074 2.278-.227.689-.15 1.234-.312 1.629-.48l.454 2.804c-.189.094-.45.191-.779.297-.33.103-.708.197-1.133.282-.425.086-.884.156-1.373.212-.492.058-.992.085-1.502.085-1.304 0-2.435-.193-3.398-.579-.963-.388-1.756-.927-2.379-1.615a6.607 6.607 0 0 1-1.388-2.436c-.3-.932-.45-1.957-.45-3.071zm9.941-1.529c0-.471-.067-.921-.197-1.346a3.283 3.283 0 0 0-.58-1.104 2.758 2.758 0 0 0-.935-.735c-.369-.181-.808-.27-1.317-.27-.528 0-.989.1-1.389.298a3.134 3.134 0 0 0-1.004.778 3.587 3.587 0 0 0-.639 1.103 6.297 6.297 0 0 0-.312 1.275l6.373.001zM839.545 617.117a10.626 10.626 0 0 0-1.175-.298 8.652 8.652 0 0 0-1.742-.156c-.378 0-.778.037-1.202.113-.426.077-.722.141-.893.198v11.866h-3.427v-14.104c.66-.245 1.486-.477 2.476-.693.992-.217 2.093-.327 3.302-.327.227 0 .49.016.791.043.302.027.605.067.907.113s.596.104.879.171c.282.065.51.127.679.183l-.595 2.891z"/></g><path d="M437.69 154.338c1.741 0 3.01-.293 3.804-.883.794-.59 1.193-1.422 1.193-2.499 0-.64-.135-1.192-.404-1.654-.269-.46-.654-.877-1.153-1.249-.499-.372-1.108-.718-1.826-1.038a27.25 27.25 0 0 0-2.46-.941c-.923-.333-1.813-.698-2.672-1.095s-1.616-.89-2.268-1.479c-.652-.589-1.179-1.295-1.576-2.114s-.597-1.807-.597-2.959c0-2.409.833-4.299 2.499-5.669 1.667-1.37 3.934-2.056 6.804-2.056 1.667 0 3.145.187 4.439.558 1.294.372 2.312.774 3.056 1.211l-1.499 3.92a11.533 11.533 0 0 0-2.864-1.116 13.409 13.409 0 0 0-3.211-.384c-1.305 0-2.325.27-3.056.808-.731.539-1.095 1.294-1.095 2.268 0 .589.122 1.095.365 1.517.243.422.59.801 1.038 1.135a9.03 9.03 0 0 0 1.576.923c.603.283 1.261.552 1.979.808 1.256.46 2.376.93 3.364 1.404.986.475 1.819 1.037 2.499 1.69a6.685 6.685 0 0 1 1.559 2.307c.357.884.538 1.956.538 3.211 0 2.41-.853 4.274-2.557 5.593-1.705 1.32-4.196 1.981-7.475 1.981a19.92 19.92 0 0 1-3.019-.212 19.185 19.185 0 0 1-2.42-.519 16.604 16.604 0 0 1-1.828-.634 11.245 11.245 0 0 1-1.23-.596l1.423-3.961c.692.386 1.626.77 2.806 1.153 1.179.38 2.603.571 4.268.571zM450.907 147.996c0-1.768.261-3.319.787-4.652.524-1.333 1.224-2.441 2.095-3.324s1.871-1.55 2.999-1.999a9.291 9.291 0 0 1 3.459-.672c2.768 0 4.927.859 6.478 2.577 1.55 1.717 2.325 4.28 2.325 7.687 0 .257-.006.545-.019.866-.014.321-.032.609-.058.865h-13.264c.129 1.616.7 2.864 1.711 3.749 1.012.883 2.479 1.326 4.401 1.326 1.128 0 2.158-.103 3.095-.308.935-.204 1.672-.422 2.21-.653l.615 3.805c-.257.129-.61.263-1.058.403-.448.14-.961.269-1.538.384a22.08 22.08 0 0 1-1.865.288c-.666.078-1.344.116-2.038.116-1.768 0-3.305-.263-4.611-.788-1.307-.526-2.384-1.255-3.229-2.192-.845-.934-1.474-2.037-1.884-3.306-.41-1.268-.611-2.66-.611-4.172zm13.491-2.077c0-.64-.089-1.249-.269-1.826s-.443-1.077-.788-1.5a3.712 3.712 0 0 0-1.268-.999c-.5-.244-1.096-.365-1.788-.365-.718 0-1.345.134-1.884.403a4.24 4.24 0 0 0-1.364 1.057 4.801 4.801 0 0 0-.865 1.5 8.057 8.057 0 0 0-.423 1.729l8.649.001zM485.025 142.037a14.759 14.759 0 0 0-1.596-.402c-.679-.141-1.466-.212-2.365-.212-.512 0-1.057.051-1.633.153-.576.104-.98.192-1.21.269v16.107h-4.653v-19.144c.897-.333 2.019-.647 3.364-.941 1.346-.294 2.839-.442 4.479-.442.308 0 .665.019 1.077.058.408.038.821.089 1.23.153.408.064.808.141 1.192.231.384.091.692.173.922.25l-.807 3.92zM495.533 157.952c-1.286-2.639-2.606-5.669-3.958-9.091-1.351-3.423-2.579-7.093-3.685-11.014h4.96c.284 1.127.611 2.339.984 3.632a108.67 108.67 0 0 0 1.197 3.883c.425 1.294.861 2.55 1.312 3.767s.869 2.312 1.254 3.286c.385-.974.797-2.069 1.235-3.286.438-1.217.869-2.473 1.293-3.767.425-1.295.829-2.588 1.216-3.883a85.7 85.7 0 0 0 1.002-3.632h4.807c-1.106 3.921-2.335 7.591-3.686 11.014-1.352 3.421-2.67 6.452-3.958 9.091h-3.973zM515.667 131.967c0 .872-.283 1.563-.846 2.075-.564.514-1.23.77-1.998.77-.795 0-1.475-.255-2.039-.77-.564-.511-.846-1.203-.846-2.075 0-.896.282-1.602.846-2.114.562-.512 1.243-.77 2.039-.77.77 0 1.434.257 1.998.77.563.512.846 1.217.846 2.114zm-.5 25.985h-4.653v-20.104h4.653v20.104zM519.606 147.919c0-1.485.231-2.876.691-4.171.461-1.294 1.12-2.416 1.979-3.364a9.068 9.068 0 0 1 3.135-2.229c1.229-.539 2.613-.808 4.15-.808 1.896 0 3.69.346 5.383 1.038l-1.001 3.805a10.595 10.595 0 0 0-1.825-.577 9.885 9.885 0 0 0-2.173-.23c-1.819 0-3.202.57-4.15 1.711s-1.422 2.747-1.422 4.823c0 1.999.448 3.583 1.345 4.749.896 1.167 2.41 1.749 4.537 1.749.794 0 1.575-.078 2.346-.231a10.883 10.883 0 0 0 1.997-.577l.654 3.845c-.513.256-1.288.487-2.325.691a16.453 16.453 0 0 1-3.21.308c-1.719 0-3.211-.263-4.479-.788-1.269-.526-2.318-1.256-3.152-2.193-.832-.934-1.455-2.049-1.864-3.343-.41-1.294-.616-2.696-.616-4.208zM537.424 147.996c0-1.768.261-3.319.786-4.652.524-1.333 1.224-2.441 2.097-3.324a8.687 8.687 0 0 1 2.998-1.999 9.291 9.291 0 0 1 3.459-.672c2.768 0 4.928.859 6.478 2.577 1.551 1.717 2.326 4.28 2.326 7.687 0 .257-.007.545-.021.866-.014.321-.031.609-.057.865h-13.264c.128 1.616.699 2.864 1.711 3.749 1.012.883 2.48 1.326 4.401 1.326 1.128 0 2.157-.103 3.095-.308.935-.204 1.672-.422 2.211-.653l.614 3.805a7.235 7.235 0 0 1-1.059.403c-.447.14-.961.269-1.537.384-.576.116-1.196.212-1.864.288-.666.078-1.345.116-2.038.116-1.769 0-3.305-.263-4.612-.788-1.306-.526-2.384-1.255-3.229-2.192-.846-.934-1.473-2.037-1.885-3.306-.41-1.268-.61-2.66-.61-4.172zm13.491-2.077c0-.64-.089-1.249-.27-1.826a4.414 4.414 0 0 0-.787-1.5 3.706 3.706 0 0 0-1.269-.999c-.5-.244-1.096-.365-1.787-.365-.718 0-1.345.134-1.885.403-.538.268-.991.62-1.363 1.057s-.661.936-.864 1.5a8.06 8.06 0 0 0-.424 1.729l8.649.001z"/><g opacity=".2"><g fill="#06F7C9" stroke="#011F38" stroke-width=".8" stroke-linecap="round" stroke-linejoin="round" stroke-miterlimit="10"><path d="M628.264 343.483l30.965-17.879 30.968 17.879-30.968 17.879z"/><path d="M628.264 379.241v-35.758l30.965 17.879v35.757zM659.229 397.119v-35.757l30.968-17.879v35.758z"/></g></g><g><g fill="#06F7C9" stroke="#011F38" stroke-width=".8" stroke-linecap="round" stroke-linejoin="round" stroke-miterlimit="10"><path d="M716.416 407.234l30.967-17.878 30.967 17.878-30.967 17.876zM716.416 442.992v-35.758l30.967 17.876v35.76zM747.383 460.87v-35.76l30.967-17.876v35.758z"/></g></g><g><g fill="#06F7C9" stroke="#011F38" stroke-width=".8" stroke-linecap="round" stroke-linejoin="round" stroke-miterlimit="10"><path d="M598.375 460.87l30.965-17.878 30.968 17.878-30.968 17.878z"/><path d="M598.375 496.628V460.87l30.965 17.878v35.758zM629.34 514.506v-35.758l30.968-17.878v35.758z"/></g></g><g><g fill="#06F7C9" stroke="#011F38" stroke-width=".8" stroke-linecap="round" stroke-linejoin="round" stroke-miterlimit="10"><path d="M716.416 507.955l30.967-17.878 30.967 17.878-30.967 17.877z"/><path d="M716.416 543.713v-35.758l30.967 17.877v35.759zM747.383 561.591v-35.759l30.967-17.877v35.758z"/></g></g><g><g fill="#06F7C9" stroke="#011F38" stroke-width=".8" stroke-linecap="round" stroke-linejoin="round" stroke-miterlimit="10"><path d="M177.304 292.081l30.967-17.876 30.969 17.876-30.969 17.878z"/><path d="M177.304 327.84v-35.759l30.967 17.878v35.758z"/><path d="M208.271 345.717v-35.758l30.969-17.878v35.759z"/></g></g><g opacity=".2"><g fill="#06F7C9" stroke="#011F38" stroke-width=".8" stroke-linecap="round" stroke-linejoin="round" stroke-miterlimit="10"><path d="M316.469 325.604l30.967-17.878 30.966 17.878-30.966 17.878zM316.469 361.362v-35.758l30.967 17.878v35.758zM347.436 379.24v-35.758l30.966-17.878v35.758z"/></g></g><g opacity=".2"><g fill="#06F7C9" stroke="#011F38" stroke-width=".8" stroke-linecap="round" stroke-linejoin="round" stroke-miterlimit="10"><path d="M125.411 404.237l30.965-17.878 30.969 17.878-30.969 17.878z"/><path d="M125.411 439.995v-35.758l30.965 17.878v35.758zM156.376 457.873v-35.758l30.969-17.878v35.758z"/></g></g><g opacity=".2"><g fill="#06F7C9" stroke="#011F38" stroke-width=".8" stroke-linecap="round" stroke-linejoin="round" stroke-miterlimit="10"><path d="M246.901 448.933l30.967-17.878 30.967 17.878-30.967 17.878z"/><path d="M246.901 484.69v-35.757l30.967 17.878v35.757zM277.868 502.568v-35.757l30.967-17.878v35.757z"/></g></g><g><g fill="#06F7C9" stroke="#011F38" stroke-width=".8" stroke-linecap="round" stroke-linejoin="round" stroke-miterlimit="10"><path d="M156.377 512.377l30.968-17.879 30.967 17.879-30.967 17.878zM156.377 548.136v-35.759l30.968 17.878v35.757z"/><path d="M187.345 566.012v-35.757l30.967-17.878v35.759z"/></g></g><g opacity=".2"><g fill="#06F7C9" stroke="#011F38" stroke-width=".8" stroke-linecap="round" stroke-linejoin="round" stroke-miterlimit="10"><path d="M738.872 291.441l30.967-17.876 30.968 17.876-30.968 17.879z"/><path d="M738.872 327.2v-35.759l30.967 17.879v35.758zM769.839 345.078V309.32l30.968-17.879V327.2z"/></g></g><g opacity=".2"><g fill="#06F7C9" stroke="#011F38" stroke-width=".8" stroke-linecap="round" stroke-linejoin="round" stroke-miterlimit="10"><path d="M844.523 448.931l30.966-17.877 30.968 17.877-30.968 17.879zM844.523 484.689v-35.758l30.966 17.879v35.757z"/><path d="M875.489 502.567V466.81l30.968-17.879v35.758z"/></g></g><g><path d="M435.244 183.355v4.757h-1.268v-4.757c0-.69-.122-1.197-.363-1.521-.242-.324-.621-.486-1.139-.486-.588 0-1.042.209-1.359.628-.317.417-.477 1.017-.477 1.799v4.339h-1.261v-7.677h1.261v1.151c.225-.439.528-.771.913-.996.384-.228.838-.34 1.363-.34.782 0 1.365.257 1.752.771.386.514.578 1.291.578 2.332zM443.737 183.733v4.379h-1.267v-1.138c-.27.457-.61.793-1.019 1.011-.408.217-.906.325-1.49.325-.781 0-1.406-.221-1.873-.661-.465-.442-.698-1.033-.698-1.773 0-.854.287-1.502.86-1.946.573-.443 1.415-.665 2.525-.665h1.693v-.199c-.005-.613-.16-1.057-.466-1.334-.306-.275-.795-.414-1.466-.414-.431 0-.864.061-1.303.185a5.645 5.645 0 0 0-1.283.541v-1.261a8.595 8.595 0 0 1 1.341-.401 6.097 6.097 0 0 1 1.245-.134c.635 0 1.177.093 1.627.28.449.188.815.469 1.093.844.174.229.296.51.369.848.077.336.112.841.112 1.513zm-2.446.52h-.417c-.736 0-1.29.129-1.662.387-.373.259-.559.643-.559 1.154 0 .462.138.821.417 1.076.28.255.665.384 1.158.384.695 0 1.242-.241 1.639-.723.398-.481.598-1.147.603-1.997v-.281h-1.179zM449.888 181.218c.156-.329.353-.571.594-.729.24-.157.528-.236.867-.236.615 0 1.052.239 1.304.716.254.479.381 1.376.381 2.698v4.448h-1.152v-4.394c0-1.083-.06-1.756-.181-2.019-.122-.263-.342-.395-.662-.395-.365 0-.616.141-.751.423-.134.281-.201.944-.201 1.991v4.394h-1.151v-4.394c0-1.096-.066-1.773-.195-2.029-.131-.257-.365-.385-.703-.385-.335 0-.566.141-.696.423-.131.281-.195.944-.195 1.991v4.394h-1.144v-7.677h1.144v.658c.151-.274.339-.484.565-.626a1.4 1.4 0 0 1 .771-.215c.347 0 .637.079.868.24.231.159.409.398.537.723zM461.73 183.644v.617h-5.463v.041c-.036 1.046.165 1.798.602 2.255.436.457 1.051.686 1.846.686.402 0 .823-.064 1.261-.192a7.653 7.653 0 0 0 1.407-.583v1.255a8.458 8.458 0 0 1-1.389.441 5.952 5.952 0 0 1-1.292.148c-1.193 0-2.125-.358-2.796-1.072-.672-.716-1.008-1.701-1.008-2.958 0-1.224.329-2.203.986-2.934.657-.731 1.535-1.096 2.631-1.096.979 0 1.75.331 2.313.994.564.661.866 1.461.902 2.398zm-1.261-.371a2.443 2.443 0 0 0-.579-1.374c-.332-.386-.808-.58-1.43-.58-.607 0-1.108.202-1.501.604-.393.402-.608.854-.644 1.356l4.154-.006zM464.534 180.443h2.139v2.474h-2.139v-2.474zm0 5.175h2.139v2.495h-2.139v-2.495zM483.13 181.218c.156-.329.352-.571.593-.729.24-.157.528-.236.868-.236.615 0 1.051.239 1.304.716.253.479.38 1.376.38 2.698v4.448h-1.151v-4.394c0-1.083-.06-1.756-.181-2.019-.122-.263-.342-.395-.663-.395-.365 0-.615.141-.75.423-.134.281-.202.944-.202 1.991v4.394h-1.15v-4.394c0-1.096-.067-1.773-.195-2.029-.131-.257-.365-.385-.704-.385-.334 0-.565.141-.695.423-.131.281-.195.944-.195 1.991v4.394h-1.144v-7.677h1.144v.658a1.66 1.66 0 0 1 .565-.626c.226-.145.484-.215.771-.215.347 0 .637.079.867.24.232.159.409.398.538.723zM492.906 185.645c-.21.535-.477 1.237-.801 2.11-.453 1.206-.756 1.942-.912 2.207a2.157 2.157 0 0 1-.788.801c-.316.179-.684.267-1.104.267h-1.015v-1.056h.748c.369 0 .66-.107.87-.322.211-.214.478-.771.803-1.665l-2.968-7.553h1.336l2.275 6.003 2.242-6.003h1.338l-2.024 5.211zM502.713 183.733v4.379h-1.267v-1.138c-.269.457-.61.793-1.019 1.011-.408.217-.906.325-1.491.325-.781 0-1.406-.221-1.872-.661-.466-.442-.698-1.033-.698-1.773 0-.854.287-1.502.86-1.946.573-.443 1.415-.665 2.525-.665h1.693v-.199c-.005-.613-.16-1.057-.466-1.334-.306-.275-.795-.414-1.466-.414-.43 0-.864.061-1.303.185a5.664 5.664 0 0 0-1.283.541v-1.261a8.595 8.595 0 0 1 1.341-.401 6.087 6.087 0 0 1 1.244-.134c.636 0 1.178.093 1.627.28s.815.469 1.093.844c.174.229.296.51.369.848.078.336.113.841.113 1.513zm-2.446.52h-.417c-.737 0-1.291.129-1.663.387-.373.259-.559.643-.559 1.154 0 .462.138.821.417 1.076.279.255.665.384 1.157.384.696 0 1.242-.241 1.639-.723.398-.481.599-1.147.604-1.997v-.281h-1.178zM506.531 187.146v3.885h-1.267v-10.596h1.267v.979c.211-.379.492-.668.84-.866a2.398 2.398 0 0 1 1.209-.298c.928 0 1.655.358 2.184 1.076.527.717.792 1.711.792 2.98 0 1.248-.266 2.227-.795 2.937s-1.255 1.065-2.18 1.065c-.465 0-.874-.1-1.224-.299a2.1 2.1 0 0 1-.826-.863zm3.702-2.866c0-.978-.153-1.716-.462-2.214-.308-.498-.767-.747-1.375-.747-.611 0-1.076.25-1.391.75-.315.5-.474 1.237-.474 2.21 0 .969.158 1.704.474 2.207.315.502.778.754 1.391.754.609 0 1.067-.249 1.375-.747.309-.496.462-1.235.462-2.213zM515.064 187.146v3.885h-1.268v-10.596h1.268v.979c.211-.379.491-.668.84-.866.35-.199.753-.298 1.21-.298.928 0 1.654.358 2.183 1.076.527.717.792 1.711.792 2.98 0 1.248-.266 2.227-.795 2.937-.53.71-1.256 1.065-2.18 1.065-.466 0-.874-.1-1.224-.299a2.093 2.093 0 0 1-.826-.863zm3.702-2.866c0-.978-.153-1.716-.462-2.214-.308-.498-.768-.747-1.375-.747-.611 0-1.075.25-1.391.75-.315.5-.474 1.237-.474 2.21 0 .969.158 1.704.474 2.207.315.502.778.754 1.391.754.609 0 1.067-.249 1.375-.747.308-.496.462-1.235.462-2.213zM521.859 183.15h7.264v1.159h-7.264v-1.159zM532.348 187.146v3.885h-1.267v-10.596h1.267v.979c.211-.379.491-.668.84-.866.35-.199.753-.298 1.211-.298.927 0 1.654.358 2.183 1.076.526.717.79 1.711.79 2.98 0 1.248-.264 2.227-.793 2.937-.53.71-1.257 1.065-2.18 1.065-.467 0-.875-.1-1.225-.299a2.08 2.08 0 0 1-.826-.863zm3.701-2.866c0-.978-.153-1.716-.462-2.214-.308-.498-.768-.747-1.375-.747-.61 0-1.075.25-1.391.75-.315.5-.474 1.237-.474 2.21 0 .969.158 1.704.474 2.207.315.502.779.754 1.391.754.609 0 1.067-.249 1.375-.747.309-.496.462-1.235.462-2.213zM545.647 182.019a2.872 2.872 0 0 0-.822-.459 2.803 2.803 0 0 0-.919-.145c-.785 0-1.387.247-1.802.74-.416.494-.624 1.206-.624 2.139v3.818h-1.268v-7.676h1.268v1.5c.21-.543.534-.96.971-1.25.436-.291.953-.435 1.551-.435.312 0 .603.038.873.116.269.078.527.199.772.364v1.288zM550.51 180.251c1.064 0 1.88.346 2.444 1.035.562.689.845 1.688.845 2.995 0 1.312-.282 2.311-.842 2.999-.562.688-1.378 1.031-2.447 1.031-1.064 0-1.879-.345-2.439-1.031-.562-.688-.843-1.687-.843-2.999 0-1.307.28-2.306.843-2.995.56-.689 1.374-1.035 2.439-1.035zm0 1.069c-.639 0-1.125.249-1.454.747s-.493 1.237-.493 2.214c0 .974.164 1.71.493 2.21.329.502.815.751 1.454.751.645 0 1.132-.25 1.461-.751.329-.5.493-1.236.493-2.21 0-.977-.164-1.716-.493-2.214s-.817-.747-1.461-.747zM560.76 181.416v-3.969h1.262v10.665h-1.262v-.966a2.204 2.204 0 0 1-.839.867 2.404 2.404 0 0 1-1.21.298c-.928 0-1.657-.36-2.189-1.08-.532-.718-.799-1.712-.799-2.977 0-1.248.268-2.226.803-2.936.534-.711 1.264-1.065 2.186-1.065.463 0 .869.099 1.222.298.348.196.626.486.826.865zm-3.707 2.864c0 .978.154 1.717.465 2.214.31.498.77.747 1.377.747s1.07-.252 1.388-.754c.318-.503.477-1.238.477-2.207 0-.973-.158-1.71-.477-2.21-.317-.502-.778-.75-1.388-.75-.608 0-1.067.249-1.377.747-.311.498-.465 1.236-.465 2.213zM434.71 197.548v1.234a4.872 4.872 0 0 0-1.09-.474 3.98 3.98 0 0 0-1.118-.158c-.57 0-.997.093-1.277.276-.282.187-.422.468-.422.848 0 .343.106.599.316.768.209.169.733.333 1.568.494l.506.096c.626.119 1.101.356 1.422.713.323.356.484.82.484 1.391 0 .758-.27 1.352-.809 1.779-.54.428-1.289.641-2.249.641a6.25 6.25 0 0 1-1.193-.12 10.533 10.533 0 0 1-1.35-.36v-1.303c.47.243.92.424 1.35.545.43.122.836.181 1.22.181.558 0 .989-.112 1.296-.339.305-.227.458-.543.458-.95 0-.584-.559-.989-1.679-1.213l-.055-.014-.472-.096c-.726-.141-1.256-.38-1.59-.717-.334-.335-.5-.793-.5-1.374 0-.737.248-1.303.747-1.703.499-.399 1.209-.6 2.133-.6.411 0 .806.039 1.185.112.381.079.753.192 1.119.343zM444.01 200.488v.616h-5.462v.041c-.036 1.046.164 1.798.601 2.254.437.458 1.052.686 1.847.686a4.53 4.53 0 0 0 1.261-.191 7.759 7.759 0 0 0 1.406-.583v1.254a8.39 8.39 0 0 1-1.388.442 5.965 5.965 0 0 1-1.293.147c-1.193 0-2.125-.357-2.796-1.071-.671-.716-1.008-1.701-1.008-2.958 0-1.224.329-2.203.986-2.934.657-.731 1.535-1.097 2.631-1.097.979 0 1.75.332 2.313.995.564.662.867 1.463.902 2.399zm-1.26-.37a2.443 2.443 0 0 0-.58-1.375c-.332-.385-.808-.58-1.43-.58-.607 0-1.107.202-1.5.604-.394.402-.609.854-.645 1.357l4.155-.006zM448.534 202.182c0 .566.104.994.312 1.281.208.287.515.431.922.431h1.473v1.063h-1.596c-.755 0-1.338-.241-1.752-.722-.413-.482-.62-1.167-.62-2.053v-6.943h-2.021v-.987h3.282v7.93zM459.563 200.488v.616H454.1v.041c-.036 1.046.165 1.798.601 2.254.437.458 1.052.686 1.847.686.402 0 .823-.064 1.26-.191a7.759 7.759 0 0 0 1.406-.583v1.254a8.361 8.361 0 0 1-1.388.442 5.958 5.958 0 0 1-1.293.147c-1.193 0-2.125-.357-2.795-1.071-.671-.716-1.008-1.701-1.008-2.958 0-1.224.33-2.203.986-2.934.657-.731 1.535-1.097 2.631-1.097.979 0 1.75.332 2.313.995.566.662.868 1.463.903 2.399zm-1.26-.37a2.437 2.437 0 0 0-.58-1.375c-.332-.385-.807-.58-1.429-.58-.607 0-1.107.202-1.5.604-.393.402-.609.854-.644 1.357l4.153-.006zM467.557 204.566c-.34.197-.687.345-1.045.442a4.162 4.162 0 0 1-1.101.147c-1.188 0-2.117-.356-2.787-1.069-.67-.713-1.004-1.7-1.004-2.96s.335-2.249 1.004-2.961c.669-.711 1.599-1.069 2.787-1.069.37 0 .731.048 1.083.145.352.095.708.244 1.063.445v1.323a3.425 3.425 0 0 0-1.004-.644 3.084 3.084 0 0 0-1.142-.2c-.79 0-1.398.257-1.823.769-.425.512-.637 1.243-.637 2.194 0 .945.213 1.675.641 2.189.427.514 1.034.771 1.819.771.439 0 .831-.067 1.18-.203a2.94 2.94 0 0 0 .967-.627l-.001 1.308zM472.918 195.101v2.179h2.864v.98h-2.864v4.168c0 .566.107.962.323 1.186.214.224.588.335 1.124.335h1.417v1.008h-1.542c-.944 0-1.613-.189-2.001-.569-.388-.379-.582-1.033-.582-1.96v-4.168h-2.049v-.98h2.049v-2.179h1.261zM480.956 197.095c1.064 0 1.88.346 2.444 1.035.564.689.846 1.688.846 2.995 0 1.312-.282 2.311-.843 2.999-.562.687-1.378 1.03-2.447 1.03-1.064 0-1.879-.344-2.44-1.03-.562-.688-.842-1.688-.842-2.999 0-1.307.28-2.306.842-2.995.561-.69 1.376-1.035 2.44-1.035zm0 1.069c-.639 0-1.124.249-1.454.747-.329.497-.494 1.236-.494 2.214 0 .973.165 1.71.494 2.21.33.502.814.75 1.454.75.644 0 1.132-.25 1.461-.75.329-.5.494-1.237.494-2.21 0-.978-.165-1.717-.494-2.214-.329-.498-.818-.747-1.461-.747zM492.561 198.864a2.84 2.84 0 0 0-.823-.459 2.795 2.795 0 0 0-.917-.145c-.787 0-1.387.247-1.803.74-.416.494-.624 1.206-.624 2.139v3.818h-1.267v-7.677h1.267v1.501c.211-.544.535-.96.971-1.25.437-.291.954-.436 1.552-.436.311 0 .602.039.871.117.27.078.527.199.774.363v1.289zM495.251 197.288h2.139v2.474h-2.139v-2.474zm0 5.174h2.139v2.495h-2.139v-2.495zM452.202 217.422v4.38h-1.267v-1.139c-.269.457-.61.794-1.019 1.011-.408.217-.906.325-1.49.325-.781 0-1.407-.22-1.872-.661-.466-.441-.698-1.032-.698-1.772 0-.854.287-1.503.86-1.946.573-.442 1.415-.665 2.525-.665h1.693v-.199c-.005-.612-.159-1.057-.466-1.333-.306-.276-.795-.415-1.466-.415-.43 0-.864.061-1.303.185s-.866.304-1.282.541v-1.261a8.524 8.524 0 0 1 1.341-.4 6.087 6.087 0 0 1 1.244-.134c.636 0 1.178.093 1.627.28.449.188.815.469 1.094.844.174.229.296.51.369.847.074.336.11.84.11 1.512zm-2.447.52h-.417c-.736 0-1.291.129-1.663.387-.373.259-.559.643-.559 1.155 0 .462.138.821.417 1.076.279.255.665.384 1.157.384.696 0 1.242-.241 1.639-.724.398-.481.599-1.147.604-1.997v-.281h-1.178zM456.02 220.834v3.886h-1.268v-10.596h1.268v.98c.21-.379.491-.669.84-.867a2.4 2.4 0 0 1 1.209-.298c.928 0 1.655.358 2.183 1.075.527.717.792 1.712.792 2.981 0 1.248-.266 2.227-.795 2.937-.529.711-1.255 1.065-2.179 1.065-.466 0-.875-.1-1.224-.298a2.105 2.105 0 0 1-.826-.865zm3.702-2.865c0-.977-.153-1.716-.462-2.214-.308-.498-.767-.747-1.375-.747-.611 0-1.075.25-1.391.75-.315.5-.474 1.237-.474 2.21 0 .969.158 1.704.474 2.206.315.503.778.755 1.391.755.609 0 1.067-.25 1.375-.747.308-.496.462-1.235.462-2.213zM464.553 220.834v3.886h-1.268v-10.596h1.268v.98c.21-.379.491-.669.84-.867a2.4 2.4 0 0 1 1.209-.298c.928 0 1.655.358 2.183 1.075.527.717.792 1.712.792 2.981 0 1.248-.266 2.227-.795 2.937-.53.711-1.256 1.065-2.18 1.065-.466 0-.875-.1-1.224-.298a2.09 2.09 0 0 1-.825-.865zm3.7-2.865c0-.977-.153-1.716-.461-2.214-.308-.498-.767-.747-1.375-.747-.611 0-1.076.25-1.391.75-.315.5-.473 1.237-.473 2.21 0 .969.158 1.704.473 2.206.315.503.778.755 1.391.755.608 0 1.066-.25 1.375-.747.308-.496.461-1.235.461-2.213zM472.456 214.131h2.139v2.474h-2.139v-2.474zm0 5.176h2.139v2.495h-2.139v-2.495zM491.053 214.905c.156-.329.352-.571.593-.729a1.55 1.55 0 0 1 .868-.236c.615 0 1.051.239 1.304.716.253.479.38 1.377.38 2.698v4.449h-1.151v-4.394c0-1.083-.06-1.756-.181-2.019-.122-.263-.342-.394-.662-.394-.365 0-.615.14-.75.422-.134.281-.202.944-.202 1.991v4.394h-1.151v-4.394c0-1.096-.067-1.772-.195-2.029-.131-.257-.365-.384-.703-.384-.335 0-.565.14-.695.422-.132.281-.195.944-.195 1.991v4.394h-1.144v-7.677h1.144v.659c.15-.275.339-.484.565-.627.226-.145.483-.215.771-.215.347 0 .637.079.867.24.23.158.408.398.537.722zM500.828 219.333c-.21.535-.477 1.238-.801 2.11-.453 1.207-.756 1.942-.912 2.207-.21.356-.474.625-.788.801-.316.179-.684.267-1.104.267h-1.014v-1.055h.748c.369 0 .66-.107.871-.322.21-.214.477-.771.802-1.666l-2.968-7.553h1.336l2.275 6.004 2.242-6.004h1.337l-2.024 5.211zM503.938 216.839h7.266v1.158h-7.266v-1.158zM519.003 217.422v4.38h-1.268v-1.139c-.27.457-.609.794-1.019 1.011-.408.217-.905.325-1.49.325-.78 0-1.406-.22-1.871-.661-.467-.441-.699-1.032-.699-1.772 0-.854.287-1.503.86-1.946.573-.442 1.415-.665 2.525-.665h1.693v-.199c-.005-.612-.159-1.057-.466-1.333-.307-.276-.795-.415-1.466-.415-.43 0-.864.061-1.303.185a5.71 5.71 0 0 0-1.282.541v-1.261a8.524 8.524 0 0 1 1.341-.4 6.087 6.087 0 0 1 1.244-.134c.636 0 1.178.093 1.627.28.449.188.815.469 1.094.844.174.229.296.51.368.847.076.336.112.84.112 1.512zm-2.446.52h-.418c-.735 0-1.289.129-1.662.387-.373.259-.559.643-.559 1.155 0 .462.138.821.416 1.076.28.255.666.384 1.158.384.695 0 1.242-.241 1.639-.724.398-.481.599-1.147.604-1.997v-.281h-1.178zM522.819 220.834v3.886h-1.267v-10.596h1.267v.98c.211-.379.491-.669.841-.867a2.396 2.396 0 0 1 1.208-.298c.929 0 1.656.358 2.184 1.075s.791 1.712.791 2.981c0 1.248-.265 2.227-.795 2.937-.529.711-1.255 1.065-2.18 1.065-.465 0-.873-.1-1.224-.298a2.096 2.096 0 0 1-.825-.865zm3.703-2.865c0-.977-.153-1.716-.463-2.214-.308-.498-.768-.747-1.374-.747-.612 0-1.076.25-1.391.75-.315.5-.474 1.237-.474 2.21 0 .969.158 1.704.474 2.206.314.503.777.755 1.391.755.607 0 1.066-.25 1.374-.747.308-.496.463-1.235.463-2.213zM531.353 220.834v3.886h-1.267v-10.596h1.267v.98a2.2 2.2 0 0 1 .84-.867 2.407 2.407 0 0 1 1.21-.298c.927 0 1.655.358 2.184 1.075.527.717.791 1.712.791 2.981 0 1.248-.266 2.227-.795 2.937-.529.711-1.256 1.065-2.18 1.065-.466 0-.875-.1-1.224-.298a2.086 2.086 0 0 1-.826-.865zm3.701-2.865c0-.977-.153-1.716-.463-2.214-.308-.498-.766-.747-1.374-.747-.61 0-1.075.25-1.391.75-.315.5-.474 1.237-.474 2.21 0 .969.158 1.704.474 2.206.315.503.778.755 1.391.755.609 0 1.066-.25 1.374-.747.309-.496.463-1.235.463-2.213zM541.008 219.024c0 .566.104.994.312 1.281s.515.432.921.432h1.475v1.063h-1.597c-.755 0-1.338-.242-1.752-.723-.414-.482-.62-1.167-.62-2.053v-6.943h-2.021v-.986h3.282v7.929zM546.478 214.153h3.227v6.669h2.502v.98h-6.264v-.98h2.501v-5.689h-1.966v-.98zm1.965-2.983h1.261v1.59h-1.261v-1.59zM559.705 221.411c-.34.196-.687.345-1.045.441a4.163 4.163 0 0 1-1.101.148c-1.188 0-2.117-.356-2.786-1.069-.671-.713-1.005-1.7-1.005-2.961 0-1.26.335-2.248 1.005-2.96.668-.712 1.599-1.069 2.786-1.069.37 0 .731.048 1.084.144.352.096.707.243 1.063.445v1.323a3.468 3.468 0 0 0-1.005-.644 3.096 3.096 0 0 0-1.143-.2c-.79 0-1.398.257-1.823.769s-.637 1.243-.637 2.194c0 .945.213 1.675.641 2.189.428.513 1.034.771 1.819.771a3.24 3.24 0 0 0 1.179-.203 2.95 2.95 0 0 0 .969-.626v1.308h-.001zM568.103 217.422v4.38h-1.267v-1.139c-.269.457-.61.794-1.02 1.011-.407.217-.904.325-1.49.325-.78 0-1.405-.22-1.871-.661-.467-.441-.698-1.032-.698-1.772 0-.854.286-1.503.86-1.946.572-.442 1.415-.665 2.525-.665h1.693v-.199c-.005-.612-.159-1.057-.466-1.333-.307-.276-.795-.415-1.467-.415-.43 0-.863.061-1.302.185a5.756 5.756 0 0 0-1.283.541v-1.261a8.534 8.534 0 0 1 1.342-.4 6.085 6.085 0 0 1 1.243-.134c.636 0 1.178.093 1.628.28.448.188.814.469 1.093.844.175.229.296.51.369.847.074.336.111.84.111 1.512zm-2.446.52h-.417c-.736 0-1.291.129-1.664.387-.373.259-.559.643-.559 1.155 0 .462.138.821.418 1.076.279.255.664.384 1.157.384.695 0 1.241-.241 1.638-.724.398-.481.6-1.147.604-1.997v-.281h-1.177zM573.319 211.945v2.18h2.863v.98h-2.863v4.167c0 .567.106.962.322 1.186.215.223.588.336 1.124.336h1.417v1.008h-1.543c-.943 0-1.612-.189-2-.569-.388-.379-.582-1.033-.582-1.96v-4.167h-2.05v-.98h2.05v-2.18h1.262zM579.233 214.153h3.228v6.669h2.502v.98h-6.265v-.98h2.502v-5.689h-1.967v-.98zm1.967-2.983h1.261v1.59H581.2v-1.59zM589.68 213.939c1.064 0 1.881.346 2.444 1.035.564.689.846 1.688.846 2.995 0 1.312-.281 2.311-.842 2.999-.562.688-1.379 1.031-2.448 1.031-1.063 0-1.878-.344-2.439-1.031-.561-.688-.842-1.687-.842-2.999 0-1.307.281-2.306.842-2.995.561-.689 1.375-1.035 2.439-1.035zm0 1.07c-.639 0-1.124.249-1.453.747-.328.498-.493 1.237-.493 2.214 0 .974.165 1.71.493 2.21.329.501.814.75 1.453.75.645 0 1.133-.25 1.462-.75s.494-1.237.494-2.21c0-.977-.165-1.716-.494-2.214-.33-.499-.818-.747-1.462-.747zM601.131 217.044v4.757h-1.267v-4.757c0-.69-.121-1.197-.363-1.521-.243-.324-.621-.486-1.139-.486-.588 0-1.042.209-1.359.628-.318.417-.478 1.017-.478 1.799v4.339h-1.261v-7.677h1.261v1.151c.225-.439.528-.771.912-.997.384-.228.839-.339 1.363-.339.783 0 1.366.258 1.752.771.387.513.579 1.291.579 2.332zM452.62 234.177v.616h-5.462v.042c-.036 1.046.165 1.797.601 2.255.437.457 1.052.685 1.847.685.402 0 .823-.063 1.261-.191a7.759 7.759 0 0 0 1.406-.583v1.254a8.39 8.39 0 0 1-1.388.442 6.03 6.03 0 0 1-1.293.148c-1.193 0-2.125-.357-2.796-1.072-.671-.716-1.008-1.701-1.008-2.958 0-1.224.329-2.203.986-2.934.658-.731 1.536-1.096 2.631-1.096.979 0 1.75.332 2.313.994.564.661.866 1.461.902 2.398zm-1.26-.37a2.44 2.44 0 0 0-.58-1.374c-.332-.386-.808-.58-1.43-.58-.607 0-1.107.201-1.5.603-.394.403-.609.854-.645 1.356l4.155-.005zM460.672 233.889v4.757h-1.267v-4.757c0-.69-.121-1.197-.362-1.521-.242-.324-.622-.486-1.14-.486-.588 0-1.041.209-1.359.627-.318.417-.477 1.018-.477 1.8v4.338h-1.261v-7.677h1.261v1.152c.224-.439.528-.771.912-.997.384-.227.838-.34 1.363-.34.782 0 1.366.258 1.752.771.387.514.578 1.291.578 2.333zM462.356 230.969h1.309l2.228 6.443 2.234-6.443h1.31l-2.73 7.677h-1.623l-2.728-7.677zM472.207 230.977h2.139v2.475h-2.139v-2.475zm0 5.174h2.139v2.495h-2.139v-2.495zM488.739 237.68v3.885h-1.268v-10.597h1.268v.98c.21-.379.491-.668.839-.866.35-.199.753-.298 1.21-.298.928 0 1.655.358 2.183 1.076.527.717.792 1.711.792 2.981 0 1.248-.266 2.227-.795 2.936-.529.711-1.255 1.066-2.179 1.066-.466 0-.875-.1-1.224-.299a2.077 2.077 0 0 1-.826-.864zm3.702-2.866c0-.978-.153-1.717-.462-2.214-.308-.498-.767-.747-1.375-.747-.611 0-1.075.25-1.391.75-.315.5-.474 1.236-.474 2.21 0 .968.158 1.703.474 2.206s.778.754 1.391.754c.609 0 1.067-.249 1.375-.747.307-.496.462-1.234.462-2.212zM502.038 232.553a2.791 2.791 0 0 0-.823-.459 2.795 2.795 0 0 0-.917-.145c-.786 0-1.388.246-1.803.74-.416.494-.624 1.206-.624 2.139v3.817h-1.267v-7.677h1.267v1.501c.21-.544.535-.961.971-1.25.436-.291.954-.436 1.552-.436.312 0 .603.039.872.116.269.078.527.199.773.364v1.29zM506.903 230.784c1.064 0 1.88.346 2.444 1.035.564.689.846 1.689.846 2.996 0 1.312-.282 2.311-.843 2.999-.562.688-1.378 1.031-2.447 1.031-1.064 0-1.878-.344-2.44-1.031-.562-.688-.842-1.687-.842-2.999 0-1.307.28-2.306.842-2.996.561-.69 1.375-1.035 2.44-1.035zm0 1.07c-.639 0-1.124.249-1.454.747-.329.497-.494 1.236-.494 2.214 0 .974.165 1.709.494 2.21.33.501.814.75 1.454.75.644 0 1.132-.25 1.461-.75.329-.5.494-1.236.494-2.21 0-.978-.165-1.717-.494-2.214-.329-.499-.818-.747-1.461-.747zM517.15 231.949v-3.968h1.262v10.664h-1.262v-.966c-.21.379-.489.668-.839.866a2.402 2.402 0 0 1-1.21.299c-.928 0-1.657-.36-2.189-1.08-.532-.718-.799-1.712-.799-2.977 0-1.248.268-2.227.803-2.936.534-.711 1.264-1.065 2.186-1.065.462 0 .869.099 1.221.298.351.196.628.486.827.865zm-3.706 2.865c0 .978.154 1.716.465 2.213.311.498.77.747 1.377.747.608 0 1.071-.251 1.39-.754.317-.503.475-1.237.475-2.206 0-.974-.158-1.71-.475-2.21-.318-.501-.78-.75-1.39-.75-.608 0-1.066.249-1.377.747-.31.498-.465 1.235-.465 2.213zM521.036 235.74v-4.757h1.26v4.757c0 .69.124 1.197.368 1.521.244.324.622.486 1.134.486.595 0 1.048-.208 1.364-.627.314-.417.473-1.017.473-1.799v-4.338h1.268v7.663h-1.268v-1.151c-.225.442-.528.778-.915 1.008-.387.229-.837.343-1.355.343-.784 0-1.37-.258-1.755-.771-.382-.516-.574-1.294-.574-2.335zM535.27 238.255c-.34.197-.688.345-1.046.442a4.099 4.099 0 0 1-1.1.148c-1.188 0-2.117-.356-2.787-1.07-.669-.713-1.005-1.7-1.005-2.96s.337-2.249 1.005-2.96c.669-.712 1.599-1.07 2.787-1.07.37 0 .73.049 1.083.145.354.096.707.244 1.063.446v1.323a3.408 3.408 0 0 0-1.005-.644 3.08 3.08 0 0 0-1.142-.199c-.79 0-1.399.256-1.824.769-.425.512-.637 1.242-.637 2.193 0 .946.213 1.675.642 2.189.427.513 1.033.771 1.819.771.439 0 .83-.067 1.18-.202.346-.134.668-.344.967-.627v1.306zM540.63 228.789v2.18h2.865v.98h-2.865v4.168c0 .566.107.962.323 1.186.214.223.588.335 1.124.335h1.418v1.008h-1.543c-.944 0-1.613-.188-2.001-.568-.388-.379-.582-1.033-.582-1.96v-4.168h-2.049v-.98h2.049v-2.18h1.261zM546.543 230.997h3.229v6.668h2.502v.98h-6.265v-.98h2.501v-5.689h-1.967v-.979zm1.967-2.982h1.262v1.59h-1.262v-1.59zM556.991 230.784c1.064 0 1.88.346 2.442 1.035.564.689.847 1.689.847 2.996 0 1.312-.282 2.311-.842 2.999-.562.688-1.378 1.031-2.447 1.031-1.064 0-1.879-.344-2.439-1.031-.562-.688-.843-1.687-.843-2.999 0-1.307.28-2.306.843-2.996.56-.69 1.375-1.035 2.439-1.035zm0 1.07c-.641 0-1.125.249-1.454.747-.329.497-.493 1.236-.493 2.214 0 .974.164 1.709.493 2.21.329.501.813.75 1.454.75.645 0 1.132-.25 1.461-.75s.493-1.236.493-2.21c0-.978-.164-1.717-.493-2.214-.329-.499-.816-.747-1.461-.747zM568.441 233.889v4.757h-1.268v-4.757c0-.69-.121-1.197-.362-1.521-.242-.324-.621-.486-1.14-.486-.588 0-1.041.209-1.359.627-.317.417-.477 1.018-.477 1.8v4.338h-1.262v-7.677h1.262v1.152c.224-.439.528-.771.912-.997.385-.227.838-.34 1.363-.34.782 0 1.365.258 1.752.771.387.514.579 1.291.579 2.333z"/></g><g><path fill="#202020" d="M571.204 149.187h40.149l-2.217 5.223 14.768-6.235-14.768-6.235 2.217 5.223h-40.149z"/></g><g><path d="M640.414 148.132v4.758h-1.267v-4.758c0-.69-.122-1.196-.362-1.521-.243-.324-.622-.486-1.141-.486-.588 0-1.041.209-1.358.628-.317.417-.478 1.017-.478 1.799v4.339h-1.261v-10.665h1.261v4.14c.225-.438.528-.771.912-.996.384-.228.839-.34 1.363-.34.782 0 1.365.258 1.753.771.386.511.578 1.29.578 2.331zM645.684 143.033v2.18h2.864v.98h-2.864v4.167c0 .567.107.962.323 1.186.214.223.588.336 1.124.336h1.417v1.008h-1.543c-.943 0-1.613-.189-2-.569-.39-.379-.582-1.033-.582-1.96v-4.167h-2.05v-.98h2.05v-2.18h1.261zM654.003 143.033v2.18h2.865v.98h-2.865v4.167c0 .567.107.962.323 1.186.214.223.588.336 1.124.336h1.418v1.008h-1.543c-.944 0-1.612-.189-2.001-.569-.388-.379-.582-1.033-.582-1.96v-4.167h-2.049v-.98h2.049v-2.18h1.261zM660.486 151.922v3.886h-1.268v-10.596h1.268v.98c.21-.379.49-.669.84-.867a2.399 2.399 0 0 1 1.21-.298c.927 0 1.654.358 2.183 1.075.527.717.79 1.711.79 2.981 0 1.248-.264 2.227-.793 2.937-.53.711-1.257 1.065-2.18 1.065-.467 0-.875-.1-1.224-.298a2.08 2.08 0 0 1-.826-.865zm3.702-2.864c0-.978-.153-1.716-.463-2.214-.308-.498-.768-.747-1.374-.747-.612 0-1.076.25-1.392.75-.314.5-.473 1.236-.473 2.21 0 .969.158 1.704.473 2.206.315.503.778.755 1.392.755.607 0 1.066-.25 1.374-.747.309-.497.463-1.236.463-2.213zM668.389 145.221h2.139v2.474h-2.139v-2.474zm0 5.175h2.139v2.495h-2.139v-2.495zM678.58 142.656h1.303l-5.386 11.536h-1.31l5.393-11.536zM684.764 142.656h1.302l-5.387 11.536h-1.31l5.395-11.536zM691.243 145.994c.155-.329.353-.571.595-.729.238-.157.528-.236.867-.236.614 0 1.052.239 1.303.716.255.479.382 1.376.382 2.697v4.449h-1.151v-4.394c0-1.083-.06-1.756-.181-2.019-.122-.263-.343-.394-.663-.394-.365 0-.615.14-.75.422-.135.281-.202.944-.202 1.991v4.394h-1.151v-4.394c0-1.096-.066-1.772-.194-2.029-.132-.257-.365-.384-.703-.384-.335 0-.565.14-.695.422-.132.281-.195.944-.195 1.991v4.394h-1.145v-7.677h1.145v.659a1.67 1.67 0 0 1 .564-.627 1.4 1.4 0 0 1 .771-.215c.346 0 .637.079.867.24.231.159.407.399.536.723zM701.018 150.422c-.21.535-.477 1.238-.801 2.11-.452 1.206-.757 1.942-.912 2.207a2.15 2.15 0 0 1-.788.801c-.316.179-.684.267-1.103.267h-1.016v-1.052h.749c.367 0 .659-.107.87-.321.21-.214.477-.771.802-1.666l-2.968-7.553h1.336l2.275 6.004 2.242-6.004h1.337l-2.023 5.207zM710.825 148.51v4.38h-1.267v-1.138c-.27.457-.611.793-1.019 1.01-.409.217-.906.326-1.49.326-.781 0-1.407-.221-1.872-.661-.466-.441-.699-1.033-.699-1.773 0-.854.288-1.503.861-1.946.572-.442 1.414-.665 2.524-.665h1.694v-.199c-.006-.612-.16-1.057-.467-1.333-.305-.276-.795-.415-1.465-.415-.431 0-.865.062-1.304.186a5.702 5.702 0 0 0-1.282.541v-1.26a8.564 8.564 0 0 1 1.341-.401 6.02 6.02 0 0 1 1.245-.134c.635 0 1.178.093 1.626.28.45.188.816.468 1.094.844.174.229.296.51.369.847.075.334.111.839.111 1.511zm-2.446.521h-.417c-.736 0-1.29.129-1.662.387-.373.259-.56.643-.56 1.155 0 .462.138.82.417 1.076.279.255.665.384 1.158.384.695 0 1.241-.241 1.639-.724.397-.481.598-1.147.603-1.997v-.281h-1.178zM714.642 151.922v3.886h-1.267v-10.596h1.267v.98a2.2 2.2 0 0 1 .84-.867c.35-.199.753-.298 1.21-.298.929 0 1.655.358 2.184 1.075.526.717.791 1.711.791 2.981 0 1.248-.266 2.227-.795 2.937-.53.711-1.256 1.065-2.18 1.065-.466 0-.874-.1-1.224-.298a2.092 2.092 0 0 1-.826-.865zm3.702-2.864c0-.978-.153-1.716-.462-2.214-.307-.498-.767-.747-1.374-.747-.611 0-1.076.25-1.392.75-.315.5-.473 1.236-.473 2.21 0 .969.157 1.704.473 2.206.315.503.778.755 1.392.755.608 0 1.067-.25 1.374-.747.308-.497.462-1.236.462-2.213zM723.175 151.922v3.886h-1.267v-10.596h1.267v.98c.211-.379.491-.669.841-.867a2.399 2.399 0 0 1 1.21-.298c.927 0 1.654.358 2.183 1.075.527.717.792 1.711.792 2.981 0 1.248-.267 2.227-.796 2.937-.529.711-1.256 1.065-2.179 1.065-.467 0-.875-.1-1.224-.298a2.076 2.076 0 0 1-.827-.865zm3.701-2.864c0-.978-.153-1.716-.462-2.214-.308-.498-.767-.747-1.375-.747-.61 0-1.075.25-1.391.75-.314.5-.474 1.236-.474 2.21 0 .969.159 1.704.474 2.206.315.503.778.755 1.391.755.608 0 1.067-.25 1.375-.747.309-.497.462-1.236.462-2.213zM729.968 147.927h7.265v1.158h-7.265v-1.158zM740.456 151.922v3.886h-1.268v-10.596h1.268v.98a2.2 2.2 0 0 1 .84-.867 2.401 2.401 0 0 1 1.21-.298c.928 0 1.655.358 2.184 1.075.527.717.79 1.711.79 2.981 0 1.248-.265 2.227-.794 2.937-.529.711-1.256 1.065-2.18 1.065-.466 0-.875-.1-1.224-.298a2.086 2.086 0 0 1-.826-.865zm3.701-2.864c0-.978-.153-1.716-.462-2.214-.309-.498-.768-.747-1.375-.747-.61 0-1.075.25-1.391.75-.315.5-.474 1.236-.474 2.21 0 .969.158 1.704.474 2.206.315.503.779.755 1.391.755.609 0 1.066-.25 1.375-.747s.462-1.236.462-2.213zM753.756 146.796a2.863 2.863 0 0 0-.823-.459 2.801 2.801 0 0 0-.918-.144c-.785 0-1.388.246-1.804.739-.415.494-.623 1.207-.623 2.139v3.818h-1.268v-7.677h1.268v1.5c.211-.543.535-.961.971-1.25.437-.291.954-.435 1.552-.435.312 0 .602.038.871.116.271.078.527.199.774.364v1.289zM758.618 145.028c1.064 0 1.879.346 2.443 1.035.563.689.845 1.688.845 2.995 0 1.312-.281 2.311-.841 2.999-.563.688-1.378 1.031-2.447 1.031-1.064 0-1.88-.345-2.44-1.031-.562-.688-.842-1.687-.842-2.999 0-1.307.28-2.306.842-2.995.56-.689 1.376-1.035 2.44-1.035zm0 1.069c-.64 0-1.126.249-1.454.747-.329.498-.494 1.236-.494 2.214 0 .974.165 1.71.494 2.21.328.501.814.751 1.454.751.645 0 1.132-.25 1.46-.751.329-.5.494-1.236.494-2.21 0-.978-.165-1.716-.494-2.214-.328-.498-.815-.747-1.46-.747zM768.866 146.193v-3.969h1.262v10.664h-1.262v-.966c-.21.379-.489.668-.838.867-.35.199-.754.299-1.21.299-.929 0-1.658-.36-2.19-1.08-.531-.718-.799-1.712-.799-2.977 0-1.248.269-2.227.803-2.936.535-.711 1.263-1.065 2.187-1.065.462 0 .868.1 1.221.298.35.196.626.485.826.865zm-3.707 2.865c0 .978.154 1.716.465 2.214.311.497.771.747 1.377.747.608 0 1.07-.252 1.389-.755.317-.502.476-1.237.476-2.206 0-.974-.158-1.71-.476-2.21-.318-.502-.779-.75-1.389-.75-.608 0-1.066.249-1.377.747-.311.498-.465 1.235-.465 2.213zM777.233 142.656h1.301l-5.386 11.536h-1.31l5.395-11.536z"/></g></svg>