<svg xmlns="http://www.w3.org/2000/svg" width="1024" height="768" viewBox="0 0 1024 768"><path fill="#FFF" stroke="#326DE6" stroke-width="1.6" stroke-linecap="round" stroke-linejoin="round" stroke-miterlimit="10" d="M533.744 585.634H292.248l-120.953-209.73 120.838-209.317h241.713l120.949 209.492z"/><path fill="#326DE6" d="M256.137 522.988l36.111 62.646h241.496l35.698-62.646z"/><path fill="#A0CAEA" d="M412.796 573.428v-38.163h135.798l-21.897 38.166z"/><g fill="#FFF"><path d="M309.994 565.581a38.91 38.91 0 0 0-1.8-2.52 39.808 39.808 0 0 0-4.47-4.891c-.8-.739-1.59-1.38-2.37-1.92v9.33h-3.78v-20.79h3.78v8.58a155.64 155.64 0 0 0 4.215-4.395c.71-.77 1.385-1.515 2.025-2.234s1.22-1.37 1.74-1.95h4.53c-.66.761-1.36 1.55-2.1 2.37-.74.82-1.5 1.646-2.28 2.475-.78.83-1.565 1.655-2.355 2.476s-1.565 1.6-2.325 2.34c.84.641 1.695 1.385 2.565 2.235.87.85 1.725 1.76 2.565 2.729a48.148 48.148 0 0 1 4.53 6.165h-4.47zM328.947 565.101c-.701.181-1.61.365-2.73.556a22.249 22.249 0 0 1-3.69.285c-1.26 0-2.315-.181-3.165-.54-.851-.36-1.53-.86-2.04-1.5-.51-.641-.875-1.405-1.095-2.295-.22-.89-.33-1.865-.33-2.926v-8.79h3.63v8.221c0 1.68.245 2.88.735 3.6.49.72 1.345 1.08 2.565 1.08.439 0 .905-.02 1.395-.06.49-.04.855-.091 1.095-.15v-12.69h3.63v15.209zM347.382 557.751c0 1.26-.185 2.396-.555 3.405s-.9 1.875-1.59 2.595-1.525 1.271-2.505 1.65-2.09.569-3.33.569c-1.2 0-2.345-.09-3.435-.27-1.09-.18-1.995-.38-2.715-.601V542.9l3.63-.601v8.13c.42-.22.935-.42 1.545-.6.61-.18 1.285-.27 2.025-.27 1.1 0 2.085.194 2.955.585.87.39 1.595.944 2.175 1.665.58.72 1.024 1.585 1.335 2.595.31 1.012.465 2.127.465 3.347zm-3.72-.06c0-1.54-.305-2.761-.915-3.66-.61-.9-1.575-1.351-2.895-1.351-.6 0-1.166.091-1.695.271s-.955.38-1.275.6v9.03c.26.06.595.115 1.005.165.41.05.905.075 1.485.075 1.339 0 2.39-.455 3.15-1.365.76-.91 1.14-2.165 1.14-3.765zM350.094 557.812c0-1.381.205-2.59.615-3.631.41-1.039.955-1.904 1.635-2.595.68-.689 1.46-1.21 2.34-1.56s1.78-.525 2.7-.525c2.16 0 3.845.67 5.055 2.01 1.209 1.341 1.815 3.341 1.815 6 0 .2-.005.426-.015.676-.01.25-.025.475-.045.675h-10.35c.1 1.26.545 2.234 1.335 2.925.79.689 1.935 1.035 3.435 1.035.88 0 1.685-.08 2.415-.24.73-.16 1.305-.33 1.725-.51l.48 2.97c-.2.101-.476.205-.825.315-.35.109-.75.21-1.2.3-.45.09-.936.165-1.455.225-.521.061-1.05.09-1.59.09-1.38 0-2.58-.205-3.6-.614-1.02-.41-1.86-.98-2.52-1.71a7.016 7.016 0 0 1-1.47-2.58c-.321-.992-.48-2.077-.48-3.256zm10.53-1.621c0-.5-.07-.976-.21-1.426-.14-.449-.345-.84-.615-1.17s-.6-.589-.99-.779c-.39-.19-.855-.285-1.395-.285-.56 0-1.05.104-1.47.314s-.775.485-1.065.825c-.29.341-.515.73-.675 1.17-.16.44-.27.891-.33 1.351h6.75zM373.224 565.881c-1.08-.02-1.975-.14-2.685-.359-.71-.221-1.275-.535-1.695-.945s-.715-.92-.885-1.53c-.17-.609-.255-1.305-.255-2.085v-18.06l3.63-.601v17.971c0 .439.035.81.105 1.109.07.3.195.556.375.766.18.21.425.37.735.479.31.11.705.195 1.185.255l-.51 3zM375.527 557.812c0-1.381.205-2.59.615-3.631.41-1.039.955-1.904 1.635-2.595.68-.689 1.46-1.21 2.34-1.56s1.78-.525 2.7-.525c2.16 0 3.845.67 5.055 2.01 1.209 1.341 1.815 3.341 1.815 6 0 .2-.005.426-.015.676-.01.25-.025.475-.045.675h-10.35c.1 1.26.545 2.234 1.335 2.925.79.689 1.935 1.035 3.435 1.035.88 0 1.685-.08 2.415-.24.73-.16 1.305-.33 1.725-.51l.48 2.97c-.2.101-.476.205-.825.315-.35.109-.75.21-1.2.3-.45.09-.936.165-1.455.225-.521.061-1.05.09-1.59.09-1.38 0-2.58-.205-3.6-.614-1.02-.41-1.86-.98-2.52-1.71a7.016 7.016 0 0 1-1.47-2.58c-.32-.992-.48-2.077-.48-3.256zm10.531-1.621c0-.5-.07-.976-.21-1.426-.14-.449-.345-.84-.615-1.17s-.6-.589-.99-.779c-.39-.19-.855-.285-1.395-.285-.56 0-1.05.104-1.47.314s-.775.485-1.065.825c-.29.341-.515.73-.675 1.17-.16.44-.27.891-.33 1.351h6.75zM393.081 545.751l3.63-.6v4.739h5.58v3.03h-5.58v6.391c0 1.26.2 2.159.6 2.699.4.54 1.08.811 2.04.811.66 0 1.245-.07 1.755-.21.51-.14.915-.271 1.215-.391l.6 2.88c-.42.181-.971.365-1.65.556-.68.189-1.48.285-2.4.285-1.12 0-2.055-.15-2.805-.45s-1.346-.735-1.785-1.305c-.44-.57-.75-1.261-.93-2.07-.18-.811-.27-1.735-.27-2.775v-13.59z"/></g><g fill="#FFF"><path d="M441.936 555.172c0 1.8-.28 3.365-.84 4.695-.56 1.33-1.355 2.44-2.385 3.33s-2.27 1.55-3.72 1.979c-1.45.43-3.055.646-4.815.646-.84 0-1.79-.035-2.85-.105a19.205 19.205 0 0 1-3.03-.435v-20.19c.96-.22 1.98-.359 3.06-.42 1.08-.06 2.04-.09 2.88-.09 1.74 0 3.33.205 4.77.615 1.44.41 2.674 1.05 3.705 1.92s1.825 1.97 2.385 3.3c.56 1.33.84 2.915.84 4.755zm-13.86 7.29c.22.021.51.035.87.045.36.011.85.016 1.47.016 2.54 0 4.435-.646 5.685-1.936s1.875-3.095 1.875-5.415c0-2.359-.61-4.17-1.83-5.43-1.22-1.26-3.11-1.891-5.67-1.891-1.12 0-1.92.03-2.4.091v14.52zM459.966 557.722c0 1.24-.18 2.37-.54 3.391-.36 1.02-.87 1.89-1.53 2.609a6.882 6.882 0 0 1-2.385 1.681c-.93.399-1.955.6-3.075.6-1.121 0-2.141-.2-3.06-.6-.92-.4-1.71-.96-2.37-1.681-.66-.72-1.175-1.59-1.545-2.609-.371-1.021-.555-2.15-.555-3.391 0-1.239.185-2.364.555-3.375.37-1.01.89-1.875 1.56-2.595.669-.72 1.465-1.275 2.385-1.665s1.93-.585 3.03-.585c1.1 0 2.115.195 3.045.585.93.39 1.725.945 2.385 1.665.66.72 1.175 1.585 1.545 2.595.37 1.01.555 2.135.555 3.375zm-3.72 0c0-1.56-.335-2.794-1.005-3.705-.67-.909-1.605-1.364-2.805-1.364-1.2 0-2.135.455-2.805 1.364-.67.911-1.005 2.146-1.005 3.705 0 1.58.334 2.831 1.005 3.75.67.921 1.605 1.38 2.805 1.38 1.2 0 2.134-.459 2.805-1.38.67-.919 1.005-2.17 1.005-3.75zM462.663 557.752c0-1.159.18-2.245.54-3.255s.875-1.885 1.545-2.625a7.092 7.092 0 0 1 2.445-1.74c.96-.42 2.04-.63 3.24-.63 1.48 0 2.88.271 4.2.811l-.78 2.97a8.155 8.155 0 0 0-1.425-.45 7.662 7.662 0 0 0-1.695-.18c-1.42 0-2.5.445-3.24 1.335-.74.89-1.11 2.145-1.11 3.765 0 1.561.35 2.795 1.05 3.705.7.91 1.88 1.365 3.54 1.365.62 0 1.23-.061 1.83-.181.6-.119 1.12-.27 1.56-.449l.51 3c-.4.2-1.005.38-1.815.54-.81.159-1.646.239-2.505.239-1.34 0-2.505-.205-3.495-.614-.99-.41-1.81-.98-2.46-1.71-.65-.73-1.135-1.601-1.455-2.61-.321-1.011-.48-2.105-.48-3.286zM481.301 556.012c.46-.479.95-.994 1.47-1.545a120.641 120.641 0 0 0 2.955-3.24c.45-.51.834-.954 1.155-1.335h4.29a266.312 266.312 0 0 1-3.158 3.48c-1.107 1.2-2.219 2.37-3.337 3.51.599.5 1.227 1.105 1.886 1.815s1.297 1.465 1.916 2.265 1.197 1.601 1.736 2.4.988 1.54 1.347 2.22h-4.2a29.5 29.5 0 0 0-1.245-1.95c-.47-.68-.975-1.34-1.515-1.979-.54-.641-1.09-1.245-1.65-1.815s-1.11-1.055-1.65-1.455v7.2h-3.63v-22.68l3.63-.601v13.71zM492.392 557.812c0-1.381.205-2.59.615-3.631.41-1.039.955-1.904 1.635-2.595.68-.689 1.46-1.21 2.34-1.56s1.78-.525 2.7-.525c2.16 0 3.845.67 5.055 2.01 1.209 1.341 1.815 3.341 1.815 6 0 .2-.005.426-.015.676-.01.25-.025.475-.045.675h-10.35c.1 1.26.545 2.234 1.335 2.925.79.689 1.935 1.035 3.435 1.035.88 0 1.685-.08 2.415-.24.73-.16 1.305-.33 1.725-.51l.48 2.97c-.2.101-.476.205-.825.315-.35.109-.75.21-1.2.3-.45.09-.936.165-1.455.225-.521.061-1.05.09-1.59.09-1.38 0-2.58-.205-3.6-.614-1.02-.41-1.86-.98-2.52-1.71a7.016 7.016 0 0 1-1.47-2.58c-.32-.991-.48-2.076-.48-3.256zm10.53-1.62c0-.5-.07-.976-.21-1.426-.14-.449-.345-.84-.615-1.17s-.6-.589-.99-.779c-.39-.19-.855-.285-1.395-.285-.56 0-1.05.104-1.47.314s-.775.485-1.065.825c-.29.341-.515.73-.675 1.17-.16.44-.27.891-.33 1.351h6.75zM519.023 553.162c-.3-.1-.715-.205-1.245-.315a9.237 9.237 0 0 0-1.845-.165c-.4 0-.825.041-1.275.12-.449.08-.765.15-.945.21v12.57h-3.629v-14.94c.7-.259 1.575-.505 2.625-.734 1.049-.229 2.215-.345 3.494-.345.24 0 .52.015.84.045.32.029.641.07.961.119.319.051.629.11.93.181.3.07.54.135.72.194l-.631 3.06z"/></g><g><g fill="#06F7C9" stroke="#011F38" stroke-width=".8" stroke-linecap="round" stroke-linejoin="round" stroke-miterlimit="10"><path d="M388.778 362.1l24.267-14.011 24.267 14.011-24.267 14.01z"/><path d="M388.778 390.121V362.1l24.267 14.01v28.021zM413.045 404.131V376.11l24.267-14.01v28.021z"/></g></g><g><path d="M863.462 364.4c3.032 0 5.357.553 6.974 1.657s2.425 2.831 2.425 5.181c0 1.226-.216 2.274-.647 3.148s-1.06 1.587-1.883 2.139c-.823.553-1.827.959-3.012 1.22-1.186.262-2.541.392-4.067.392h-1.897v7.351h-3.796v-20.574a18.898 18.898 0 0 1 2.938-.407 45.167 45.167 0 0 1 2.965-.107zm.271 3.285c-.964 0-1.758.029-2.38.09v7.109h1.838c1.827 0 3.232-.256 4.217-.769.984-.512 1.477-1.48 1.477-2.906 0-.683-.131-1.255-.392-1.718-.262-.461-.623-.823-1.085-1.084s-1.009-.447-1.642-.558-1.31-.164-2.033-.164zM890.118 377.595c0 1.245-.181 2.38-.543 3.404-.361 1.024-.873 1.897-1.536 2.621-.662.723-1.461 1.285-2.395 1.687s-1.963.603-3.088.603-2.149-.201-3.072-.603a6.935 6.935 0 0 1-2.38-1.687c-.663-.724-1.18-1.597-1.552-2.621-.371-1.024-.557-2.159-.557-3.404s.186-2.374.557-3.389c.372-1.014.894-1.883 1.566-2.605a6.92 6.92 0 0 1 2.396-1.672c.923-.392 1.938-.588 3.042-.588s2.124.196 3.058.588 1.732.948 2.395 1.672c.663.723 1.18 1.592 1.552 2.605.371 1.015.557 2.144.557 3.389zm-3.735 0c0-1.566-.337-2.806-1.01-3.72s-1.611-1.371-2.816-1.371-2.144.457-2.816 1.371-1.009 2.153-1.009 3.72c0 1.587.336 2.842 1.009 3.766s1.611 1.386 2.816 1.386 2.144-.462 2.816-1.386 1.01-2.179 1.01-3.766zM907.014 385.005c-.723.222-1.632.422-2.726.603a21.13 21.13 0 0 1-3.449.271c-1.245 0-2.36-.191-3.344-.572a6.973 6.973 0 0 1-2.516-1.642c-.692-.713-1.225-1.576-1.597-2.591-.371-1.014-.557-2.154-.557-3.419 0-1.245.155-2.375.467-3.389.311-1.015.768-1.883 1.37-2.606.603-.723 1.336-1.28 2.199-1.672s1.857-.587 2.982-.587c.763 0 1.436.09 2.019.271a9.151 9.151 0 0 1 1.506.603v-7.561l3.645-.603v22.894zm-10.452-7.441c0 1.607.381 2.867 1.145 3.781.763.914 1.817 1.37 3.163 1.37.582 0 1.079-.024 1.491-.075.411-.05.748-.105 1.009-.166v-9.037c-.321-.221-.748-.426-1.28-.617a5.026 5.026 0 0 0-1.702-.286c-1.325 0-2.294.452-2.907 1.355-.614.904-.919 2.13-.919 3.675z"/><path fill="none" stroke="#011F38" stroke-linecap="round" stroke-linejoin="round" stroke-miterlimit="10" d="M843.969 375.826H432.665"/></g><g><path d="M436.526 410.316c0 .443.082.778.245 1.004s.403.338.722.338h1.155v.833h-1.251c-.592 0-1.049-.188-1.373-.566s-.486-.914-.486-1.608v-5.441h-1.584v-.773h2.572v6.213zM445.02 409.059v3.433h-.993v-.892a2.048 2.048 0 0 1-.798.792c-.32.171-.71.255-1.168.255-.612 0-1.102-.172-1.467-.518s-.547-.809-.547-1.389c0-.67.225-1.178.674-1.525s1.109-.521 1.979-.521h1.327v-.155c-.004-.479-.125-.828-.365-1.045-.24-.216-.623-.325-1.149-.325-.337 0-.677.049-1.021.146s-.679.238-1.005.425v-.988a6.644 6.644 0 0 1 1.051-.314c.335-.07.659-.105.975-.105.498 0 .923.074 1.275.221s.639.367.857.66c.136.18.232.4.289.664.057.26.086.655.086 1.181zm-1.917.408h-.327c-.577 0-1.011.102-1.303.304s-.438.505-.438.905c0 .361.108.643.327.844.219.2.521.301.907.301.545 0 .973-.189 1.284-.567s.469-.899.473-1.565v-.221h-.923zM448.013 407.244c.157-.294.375-.52.652-.678.277-.157.599-.236.964-.236.724 0 1.293.279 1.708.836s.623 1.324.623 2.301c0 .992-.209 1.771-.626 2.334-.417.564-.989.846-1.716.846-.358 0-.674-.077-.948-.233a1.713 1.713 0 0 1-.657-.679v.757h-.988v-8.357h.988v3.109zm2.905 2.244c0-.766-.122-1.344-.365-1.734s-.604-.586-1.079-.586c-.48 0-.844.196-1.091.589-.247.392-.37.97-.37 1.731 0 .76.123 1.336.37 1.73.247.394.61.59 1.091.59.476 0 .836-.195 1.079-.585s.365-.968.365-1.735zM458.751 408.989v.483h-4.281v.032c-.028.819.129 1.409.471 1.767.342.358.824.537 1.447.537.315 0 .645-.05.988-.15.344-.1.711-.252 1.102-.456v.983a6.7 6.7 0 0 1-1.088.346c-.35.077-.687.115-1.013.115-.935 0-1.665-.279-2.191-.84s-.79-1.333-.79-2.318c0-.959.258-1.726.773-2.299.516-.572 1.203-.859 2.062-.859.767 0 1.371.26 1.813.779s.679 1.147.707 1.88zm-.988-.29a1.913 1.913 0 0 0-.454-1.077c-.26-.302-.633-.454-1.12-.454-.476 0-.868.158-1.176.473-.308.315-.477.67-.505 1.064l3.255-.006zM462.296 410.316c0 .443.082.778.245 1.004s.403.338.722.338h1.155v.833h-1.251c-.592 0-1.049-.188-1.373-.566s-.486-.914-.486-1.608v-5.441h-1.584v-.773h2.572v6.213zM470.177 406.686v.967c-.283-.165-.568-.289-.854-.371s-.578-.123-.876-.123c-.447 0-.781.072-1.001.217-.221.146-.331.366-.331.664 0 .268.083.469.248.602.164.132.574.261 1.229.387l.397.074c.49.094.862.279 1.114.559.253.279.379.643.379 1.091 0 .595-.211 1.06-.634 1.394-.423.335-1.01.502-1.762.502-.297 0-.608-.031-.935-.094s-.679-.156-1.058-.281v-1.021c.368.19.721.332 1.058.428.337.095.655.143.956.143.437 0 .775-.089 1.016-.267.239-.177.359-.425.359-.743 0-.459-.438-.775-1.316-.951l-.043-.011-.37-.075c-.569-.111-.984-.298-1.246-.562-.262-.263-.392-.622-.392-1.077 0-.576.194-1.021.585-1.334.391-.313.947-.471 1.671-.471a4.76 4.76 0 0 1 1.806.353zM472.947 406.48h1.676v1.939h-1.676v-1.939zm0 4.056h1.676v1.955h-1.676v-1.955zM451.599 422.26v3.432h-.993v-.892c-.211.358-.478.622-.798.792s-.71.256-1.168.256c-.612 0-1.102-.174-1.467-.519-.365-.346-.547-.809-.547-1.389 0-.669.225-1.179.674-1.525s1.109-.521 1.979-.521h1.327v-.156c-.004-.48-.125-.828-.365-1.045s-.623-.324-1.149-.324c-.337 0-.677.048-1.021.145s-.679.238-1.005.424v-.988a6.853 6.853 0 0 1 1.051-.313c.335-.07.659-.104.975-.104.498 0 .923.072 1.275.22s.639.367.857.661c.136.179.232.399.289.663.057.261.086.655.086 1.183zm-1.917.408h-.327c-.577 0-1.011.101-1.303.303-.292.203-.438.504-.438.905 0 .362.108.643.327.843.219.201.521.301.907.301.545 0 .973-.188 1.284-.566.312-.377.469-.899.473-1.565v-.22h-.923zM454.591 424.934v3.046h-.993v-8.304h.993v.768c.165-.297.385-.523.658-.679.274-.156.59-.233.948-.233.727 0 1.297.281 1.711.843.413.562.62 1.341.62 2.337 0 .977-.208 1.744-.623 2.301s-.984.836-1.708.836c-.365 0-.685-.078-.959-.234a1.669 1.669 0 0 1-.647-.681zm2.9-2.245c0-.767-.12-1.346-.362-1.735-.241-.39-.601-.585-1.077-.585-.479 0-.843.195-1.09.588-.247.392-.371.969-.371 1.732 0 .759.124 1.335.371 1.729.247.395.61.592 1.09.592.477 0 .836-.195 1.077-.586.242-.391.362-.969.362-1.735zM461.277 424.934v3.046h-.993v-8.304h.993v.768c.165-.297.385-.523.658-.679.274-.156.59-.233.948-.233.727 0 1.297.281 1.711.843.413.562.62 1.341.62 2.337 0 .977-.208 1.744-.623 2.301s-.984.836-1.708.836c-.365 0-.685-.078-.959-.234a1.675 1.675 0 0 1-.647-.681zm2.901-2.245c0-.767-.12-1.346-.362-1.735-.241-.39-.601-.585-1.077-.585-.479 0-.843.195-1.09.588-.247.392-.371.969-.371 1.732 0 .759.124 1.335.371 1.729.247.395.61.592 1.09.592.477 0 .836-.195 1.077-.586.242-.391.362-.969.362-1.735zM467.471 419.682h1.676v1.938h-1.676v-1.938zm0 4.054h1.676v1.955h-1.676v-1.955zM482.043 420.288c.122-.258.276-.448.465-.572.188-.123.414-.185.68-.185.482 0 .824.187 1.022.561.199.375.298 1.079.298 2.113v3.486h-.902v-3.443c0-.848-.047-1.375-.142-1.581s-.268-.31-.519-.31c-.286 0-.482.11-.588.331-.105.22-.158.74-.158 1.56v3.443h-.902v-3.443c0-.859-.052-1.389-.153-1.59-.103-.2-.286-.301-.551-.301-.262 0-.443.11-.545.331-.103.22-.153.74-.153 1.56v3.443h-.896v-6.016h.896v.516c.118-.215.266-.379.443-.491a1.1 1.1 0 0 1 .604-.169c.272 0 .499.062.68.188s.32.314.421.569zM489.704 423.758c-.165.419-.374.971-.628 1.654-.355.945-.593 1.521-.715 1.729a1.684 1.684 0 0 1-.617.628c-.248.141-.536.21-.865.21h-.795v-.827h.586c.289 0 .517-.084.682-.252.165-.169.374-.604.629-1.306l-2.326-5.919h1.047l1.783 4.705 1.757-4.705h1.048l-1.586 4.083zM492.142 421.803h5.693v.908h-5.693v-.908zM503.946 422.26v3.432h-.993v-.892c-.211.358-.478.622-.798.792s-.71.256-1.168.256c-.612 0-1.102-.174-1.467-.519-.365-.346-.547-.809-.547-1.389 0-.669.225-1.179.674-1.525s1.109-.521 1.979-.521h1.327v-.156c-.004-.48-.125-.828-.365-1.045s-.623-.324-1.149-.324c-.337 0-.677.048-1.021.145s-.679.238-1.005.424v-.988a6.853 6.853 0 0 1 1.051-.313c.335-.07.659-.104.975-.104.498 0 .923.072 1.275.22s.639.367.857.661c.136.179.232.399.289.663.058.261.086.655.086 1.183zm-1.917.408h-.327c-.577 0-1.011.101-1.303.303-.292.203-.438.504-.438.905 0 .362.108.643.327.843.219.201.521.301.907.301.545 0 .973-.188 1.284-.566.312-.377.469-.899.473-1.565v-.22h-.923zM506.938 424.934v3.046h-.993v-8.304h.993v.768c.165-.297.385-.523.658-.679.274-.156.59-.233.948-.233.727 0 1.297.281 1.711.843.413.562.62 1.341.62 2.337 0 .977-.208 1.744-.623 2.301s-.984.836-1.708.836c-.365 0-.685-.078-.959-.234a1.669 1.669 0 0 1-.647-.681zm2.9-2.245c0-.767-.12-1.346-.362-1.735-.241-.39-.601-.585-1.077-.585-.479 0-.843.195-1.09.588-.247.392-.371.969-.371 1.732 0 .759.124 1.335.371 1.729.247.395.61.592 1.09.592.477 0 .836-.195 1.077-.586.242-.391.362-.969.362-1.735zM513.624 424.934v3.046h-.993v-8.304h.993v.768c.165-.297.385-.523.658-.679.274-.156.59-.233.948-.233.727 0 1.297.281 1.711.843.413.562.62 1.341.62 2.337 0 .977-.208 1.744-.623 2.301s-.984.836-1.708.836c-.365 0-.685-.078-.959-.234a1.669 1.669 0 0 1-.647-.681zm2.9-2.245c0-.767-.12-1.346-.362-1.735-.241-.39-.601-.585-1.077-.585-.479 0-.843.195-1.09.588-.247.392-.371.969-.371 1.732 0 .759.124 1.335.371 1.729.247.395.61.592 1.09.592.477 0 .836-.195 1.077-.586.242-.391.362-.969.362-1.735zM521.19 423.516c0 .444.082.779.245 1.005s.403.339.722.339h1.155v.832h-1.251c-.592 0-1.049-.189-1.373-.566-.324-.378-.486-.914-.486-1.609v-5.44h-1.584v-.773h2.572v6.212zM525.477 419.697h2.529v5.227h1.961v.768h-4.909v-.768h1.96v-4.459h-1.541v-.768zm1.541-2.336h.988v1.246h-.988v-1.246zM535.843 425.385c-.266.154-.538.27-.819.347s-.568.116-.862.116c-.931 0-1.659-.279-2.184-.838s-.787-1.332-.787-2.32.263-1.762.787-2.32 1.253-.838 2.184-.838c.29 0 .573.037.849.112s.554.191.833.349v1.037a2.725 2.725 0 0 0-.787-.505 2.425 2.425 0 0 0-.895-.155c-.619 0-1.096.2-1.429.602-.333.4-.499.974-.499 1.719 0 .74.167 1.312.502 1.716.335.402.81.604 1.426.604.344 0 .651-.053.924-.159.272-.105.524-.269.758-.491v1.024zM542.423 422.26v3.432h-.993v-.892c-.211.358-.478.622-.798.792s-.71.256-1.168.256c-.612 0-1.102-.174-1.467-.519-.365-.346-.547-.809-.547-1.389 0-.669.225-1.179.674-1.525s1.109-.521 1.979-.521h1.327v-.156c-.004-.48-.125-.828-.365-1.045s-.623-.324-1.149-.324c-.337 0-.677.048-1.021.145s-.679.238-1.005.424v-.988a6.853 6.853 0 0 1 1.051-.313c.335-.07.659-.104.975-.104.498 0 .923.072 1.275.22s.639.367.857.661c.136.179.232.399.289.663.058.261.086.655.086 1.183zm-1.917.408h-.327c-.577 0-1.011.101-1.303.303-.292.203-.438.504-.438.905 0 .362.108.643.327.843.219.201.521.301.907.301.545 0 .973-.188 1.284-.566.312-.377.469-.899.473-1.565v-.22h-.923zM546.511 417.968v1.708h2.245v.768h-2.245v3.266c0 .444.084.754.253.93.168.176.461.264.881.264h1.111v.789h-1.209c-.74 0-1.264-.148-1.568-.445-.304-.298-.456-.81-.456-1.537v-3.266h-1.606v-.768h1.606v-1.708h.988zM551.146 419.697h2.529v5.227h1.961v.768h-4.909v-.768h1.96v-4.459h-1.541v-.768zm1.541-2.336h.988v1.246h-.988v-1.246zM559.332 419.531c.834 0 1.473.27 1.915.811s.663 1.323.663 2.348c0 1.027-.221 1.811-.66 2.35-.441.539-1.08.809-1.918.809-.834 0-1.472-.27-1.912-.809s-.66-1.322-.66-2.35c0-1.024.22-1.807.66-2.348s1.078-.811 1.912-.811zm0 .838c-.501 0-.881.195-1.139.585s-.387.969-.387 1.735c0 .762.129 1.34.387 1.731.258.393.638.589 1.139.589.505 0 .887-.196 1.145-.589.258-.392.387-.97.387-1.731 0-.767-.129-1.346-.387-1.735s-.64-.585-1.145-.585zM568.306 421.964v3.728h-.993v-3.728c0-.54-.095-.938-.284-1.192-.19-.254-.487-.381-.893-.381-.461 0-.816.163-1.065.491-.249.327-.374.798-.374 1.409v3.4h-.988v-6.016h.988v.902a1.86 1.86 0 0 1 .715-.781c.301-.178.657-.266 1.068-.266.613 0 1.07.201 1.373.604.302.404.453 1.013.453 1.83zM451.927 435.389v.484h-4.281v.031c-.028.82.129 1.41.471 1.768s.824.537 1.447.537c.315 0 .645-.051.988-.15s.711-.252 1.102-.457v.983c-.377.153-.739.27-1.088.347a4.77 4.77 0 0 1-1.013.115c-.935 0-1.665-.28-2.191-.84-.526-.561-.79-1.334-.79-2.318 0-.959.258-1.727.773-2.299s1.203-.859 2.062-.859c.767 0 1.371.26 1.813.779.443.518.678 1.145.707 1.879zm-.989-.289a1.916 1.916 0 0 0-.454-1.078c-.26-.302-.633-.453-1.12-.453-.476 0-.868.158-1.176.473s-.477.67-.505 1.063l3.255-.005zM458.236 435.164v3.727h-.993v-3.727c0-.541-.095-.938-.284-1.193-.19-.254-.487-.381-.893-.381-.461 0-.816.164-1.065.492-.249.326-.374.797-.374 1.409v3.399h-.988v-6.016h.988v.902c.176-.344.414-.604.715-.781s.657-.266 1.068-.266c.613 0 1.07.201 1.373.604.303.405.453 1.015.453 1.831zM459.557 432.875h1.025l1.746 5.049 1.751-5.049h1.026l-2.139 6.016h-1.272l-2.137-6.016zM467.275 432.881h1.676v1.939h-1.676v-1.939zm0 4.055h1.676v1.955h-1.676v-1.955zM480.23 438.134v3.046h-.993v-8.305h.993v.769c.165-.298.385-.524.658-.679.274-.156.59-.234.948-.234.727 0 1.297.281 1.711.844.413.562.62 1.34.62 2.336 0 .978-.208 1.744-.623 2.301-.415.558-.984.836-1.708.836-.365 0-.685-.078-.959-.234a1.66 1.66 0 0 1-.647-.68zm2.901-2.245c0-.766-.12-1.345-.362-1.734-.241-.391-.601-.586-1.077-.586-.479 0-.843.195-1.09.588s-.371.97-.371 1.732c0 .76.124 1.336.371 1.729s.61.591 1.09.591c.477 0 .836-.195 1.077-.586.242-.39.362-.969.362-1.734zM490.652 434.116a2.24 2.24 0 0 0-.645-.36 2.226 2.226 0 0 0-.719-.112c-.616 0-1.087.193-1.413.58s-.489.945-.489 1.676v2.991h-.993v-6.016h.993v1.177c.165-.427.419-.753.761-.979.342-.229.747-.342 1.216-.342.244 0 .472.03.683.092.211.061.413.155.606.284v1.009zM494.464 432.73c.834 0 1.473.271 1.915.811.442.541.663 1.324.663 2.348 0 1.027-.221 1.811-.66 2.35-.441.539-1.08.809-1.918.809-.834 0-1.472-.27-1.912-.809s-.66-1.322-.66-2.35c0-1.023.22-1.807.66-2.348.44-.54 1.078-.811 1.912-.811zm0 .838c-.501 0-.881.195-1.139.586-.258.39-.387.969-.387 1.734 0 .763.129 1.34.387 1.732s.638.588 1.139.588c.505 0 .887-.195 1.145-.588s.387-.97.387-1.732c0-.766-.129-1.345-.387-1.734-.258-.39-.64-.586-1.145-.586zM502.495 433.644v-3.11h.988v8.357h-.988v-.757a1.709 1.709 0 0 1-.658.679 1.88 1.88 0 0 1-.948.234c-.727 0-1.299-.281-1.716-.846s-.626-1.342-.626-2.334c0-.978.21-1.744.629-2.301.419-.558.99-.836 1.713-.836.362 0 .681.078.957.234.275.155.492.382.649.68zm-2.905 2.245c0 .766.121 1.345.365 1.734.243.391.603.586 1.079.586s.839-.197 1.088-.591.373-.97.373-1.729c0-.763-.124-1.34-.373-1.732s-.611-.588-1.088-.588-.836.195-1.079.586c-.244.389-.365.968-.365 1.734zM505.539 436.613v-3.727h.988v3.727c0 .541.097.938.288 1.193.191.254.487.381.889.381.466 0 .821-.164 1.069-.492.246-.326.37-.797.37-1.409v-3.399h.993v6.004h-.993v-.902c-.176.348-.414.611-.717.79s-.656.269-1.062.269c-.615 0-1.074-.201-1.375-.604-.3-.405-.45-1.014-.45-1.831zM516.693 438.585a3.286 3.286 0 0 1-1.681.462c-.931 0-1.659-.279-2.184-.838s-.787-1.332-.787-2.32.263-1.762.787-2.32 1.253-.838 2.184-.838c.29 0 .573.037.849.113.275.074.554.191.833.349v1.036a2.7 2.7 0 0 0-.787-.504 2.424 2.424 0 0 0-.895-.156c-.619 0-1.096.201-1.429.602s-.499.975-.499 1.719c0 .741.167 1.312.502 1.717.335.402.81.604 1.426.604.344 0 .651-.053.924-.158s.524-.27.758-.492v1.024zM520.895 431.168v1.707h2.245v.769h-2.245v3.266c0 .444.084.754.253.929.168.176.461.264.881.264h1.111v.789h-1.209c-.74 0-1.264-.148-1.568-.445-.304-.297-.456-.809-.456-1.536v-3.266H518.3v-.769h1.606v-1.707h.989zM525.528 432.896h2.529v5.227h1.961v.768h-4.909v-.768h1.96v-4.458h-1.541v-.769zm1.541-2.335h.988v1.246h-.988v-1.246zM533.716 432.73c.834 0 1.473.271 1.915.811.442.541.663 1.324.663 2.348 0 1.027-.221 1.811-.66 2.35-.441.539-1.08.809-1.918.809-.834 0-1.472-.27-1.912-.809s-.66-1.322-.66-2.35c0-1.023.22-1.807.66-2.348.44-.54 1.078-.811 1.912-.811zm0 .838c-.501 0-.881.195-1.139.586-.258.39-.387.969-.387 1.734 0 .763.129 1.34.387 1.732s.638.588 1.139.588c.505 0 .887-.195 1.145-.588s.387-.97.387-1.732c0-.766-.129-1.345-.387-1.734-.258-.39-.64-.586-1.145-.586zM542.688 435.164v3.727h-.993v-3.727c0-.541-.095-.938-.284-1.193-.19-.254-.487-.381-.893-.381-.461 0-.816.164-1.065.492-.249.326-.374.797-.374 1.409v3.399h-.988v-6.016h.988v.902c.176-.344.414-.604.715-.781s.657-.266 1.068-.266c.613 0 1.07.201 1.373.604.303.405.453 1.015.453 1.831z"/></g></svg>