<svg xmlns="http://www.w3.org/2000/svg" width="1024" height="768" viewBox="0 0 1024 768"><symbol id="e" viewBox="-68.6 -66.9 137.2 133.801"><g stroke="#006DE9" stroke-linecap="round" stroke-linejoin="round" stroke-miterlimit="10"><g fill="none"><path d="M0-11.1V.7M5.9-5.2H-5.9"/></g><path fill="#FFF" stroke-width="6" d="M-29.2-63.9l-36.4 45.6 13 56.9L0 63.9l52.6-25.3 13-56.9-36.4-45.6z"/></g></symbol><g fill="#06F7C9" stroke="#011F38" stroke-width=".8" stroke-linecap="round" stroke-linejoin="round" stroke-miterlimit="10"><path d="M388.778 362.1l24.267-14.011 24.267 14.011-24.267 14.01z"/><path d="M388.778 390.121V362.1l24.267 14.01v28.021zM413.045 404.131V376.11l24.267-14.01v28.021z"/></g><path d="M455.651 351.046c0 .727.133 1.274.399 1.644s.661.554 1.183.554h1.89v1.362h-2.048c-.967 0-1.716-.309-2.245-.927-.531-.618-.796-1.496-.796-2.632v-8.903h-2.593v-1.266h4.21v10.168zM469.415 348.989v5.616h-1.626v-1.459c-.346.586-.781 1.018-1.305 1.296-.525.278-1.162.417-1.912.417-1.002 0-1.802-.283-2.399-.848s-.896-1.323-.896-2.272c0-1.096.367-1.928 1.103-2.496s1.815-.853 3.239-.853h2.171v-.255c-.006-.785-.205-1.355-.598-1.709s-1.02-.532-1.881-.532c-.551 0-1.107.079-1.67.237s-1.11.39-1.644.694v-1.617c.598-.229 1.17-.4 1.718-.514s1.08-.171 1.596-.171c.814 0 1.51.12 2.088.36.576.24 1.044.601 1.401 1.081.223.293.381.655.475 1.085s.14 1.079.14 1.94zm-3.138.668h-.536c-.943 0-1.654.166-2.132.497s-.716.825-.716 1.481c0 .592.179 1.052.536 1.38s.853.492 1.485.492c.891 0 1.591-.309 2.101-.927s.768-1.472.773-2.562v-.36h-1.511zM474.175 346.019c.258-.48.613-.85 1.067-1.107s.98-.387 1.578-.387c1.184 0 2.115.456 2.795 1.367s1.02 2.167 1.02 3.766c0 1.623-.342 2.896-1.023 3.819-.684.923-1.619 1.384-2.809 1.384-.586 0-1.104-.127-1.551-.382a2.801 2.801 0 0 1-1.077-1.112v1.239h-1.617V340.93h1.617v5.089zm4.755 3.673c0-1.254-.199-2.2-.598-2.839s-.987-.958-1.767-.958c-.785 0-1.38.321-1.784.962s-.606 1.586-.606 2.834c0 1.242.202 2.186.606 2.83s.999.967 1.784.967c.779 0 1.368-.319 1.767-.958s.598-1.584.598-2.838zM491.618 348.875v.791h-7.005v.053c-.047 1.342.209 2.306.769 2.892s1.35.879 2.369.879c.516 0 1.055-.082 1.617-.246s1.163-.413 1.802-.747v1.608a10.88 10.88 0 0 1-1.78.567 7.672 7.672 0 0 1-1.656.189c-1.529 0-2.725-.458-3.586-1.375s-1.292-2.181-1.292-3.792c0-1.57.422-2.824 1.266-3.762s1.969-1.406 3.375-1.406c1.254 0 2.242.425 2.966 1.274s1.108 1.874 1.155 3.075zM490 348.4a3.135 3.135 0 0 0-.742-1.762c-.426-.495-1.036-.743-1.833-.743-.779 0-1.421.258-1.925.773s-.779 1.096-.826 1.74L490 348.4zM497.242 351.046c0 .727.133 1.274.399 1.644s.661.554 1.183.554h1.89v1.362h-2.048c-.967 0-1.716-.309-2.245-.927-.531-.618-.796-1.496-.796-2.632v-8.903h-2.593v-1.266h4.21v10.168zM509.996 345.104v1.582c-.463-.27-.929-.472-1.397-.606s-.946-.202-1.433-.202c-.732 0-1.278.119-1.64.356-.359.237-.54.599-.54 1.085 0 .439.135.768.404.984s.94.428 2.013.633l.65.123c.803.152 1.41.457 1.824.914.412.457.619 1.052.619 1.784 0 .973-.346 1.733-1.037 2.281s-1.652.822-2.883.822c-.486 0-.996-.051-1.529-.154s-1.11-.256-1.731-.461v-1.67c.604.311 1.181.543 1.731.699s1.072.233 1.564.233c.715 0 1.269-.145 1.661-.435s.589-.696.589-1.217c0-.75-.718-1.269-2.153-1.556l-.07-.018-.606-.123c-.932-.182-1.611-.488-2.039-.918s-.642-1.018-.642-1.762c0-.943.319-1.671.958-2.184s1.55-.769 2.733-.769c.527 0 1.034.048 1.521.145s.964.241 1.433.434zM514.357 344.771h2.742v3.173h-2.742v-3.173zm0 6.635h2.742v3.199h-2.742v-3.199zM480.313 370.589v5.616h-1.626v-1.459c-.346.586-.781 1.018-1.305 1.296-.525.278-1.162.417-1.912.417-1.002 0-1.802-.283-2.399-.848s-.896-1.323-.896-2.272c0-1.096.367-1.928 1.103-2.496s1.815-.853 3.239-.853h2.171v-.255c-.006-.785-.205-1.355-.598-1.709s-1.02-.532-1.881-.532c-.551 0-1.107.079-1.67.237s-1.11.39-1.644.694v-1.617c.598-.229 1.17-.4 1.718-.514s1.08-.171 1.596-.171c.814 0 1.51.12 2.088.36.576.24 1.044.601 1.401 1.081.223.293.381.655.475 1.085s.14 1.079.14 1.94zm-3.138.668h-.536c-.943 0-1.654.166-2.132.497s-.716.825-.716 1.481c0 .592.179 1.052.536 1.38s.853.492 1.485.492c.891 0 1.591-.309 2.101-.927s.768-1.472.773-2.562v-.36h-1.511zM485.074 374.966v4.983h-1.626v-13.588h1.626v1.257c.27-.486.628-.857 1.077-1.112.447-.255.965-.382 1.551-.382 1.189 0 2.123.46 2.799 1.38.678.92 1.016 2.194 1.016 3.823 0 1.6-.34 2.855-1.02 3.766s-1.611 1.367-2.795 1.367c-.598 0-1.121-.127-1.568-.382a2.686 2.686 0 0 1-1.06-1.112zm4.746-3.674c0-1.254-.198-2.2-.593-2.839-.396-.639-.983-.958-1.763-.958-.785 0-1.38.321-1.784.962s-.606 1.586-.606 2.834c0 1.242.202 2.186.606 2.83s.999.967 1.784.967c.779 0 1.366-.319 1.763-.958.395-.637.593-1.584.593-2.838zM495.881 374.966v4.983h-1.626v-13.588h1.626v1.257c.27-.486.628-.857 1.077-1.112.447-.255.965-.382 1.551-.382 1.189 0 2.123.46 2.799 1.38.678.92 1.016 2.194 1.016 3.823 0 1.6-.34 2.855-1.02 3.766s-1.611 1.367-2.795 1.367c-.598 0-1.121-.127-1.568-.382a2.692 2.692 0 0 1-1.06-1.112zm4.746-3.674c0-1.254-.198-2.2-.593-2.839-.396-.639-.983-.958-1.763-.958-.785 0-1.38.321-1.784.962s-.606 1.586-.606 2.834c0 1.242.202 2.186.606 2.83s.999.967 1.784.967c.779 0 1.366-.319 1.763-.958.395-.637.593-1.584.593-2.838zM505.854 366.371h2.742v3.173h-2.742v-3.173zm0 6.635h2.742v3.199h-2.742v-3.199zM529.699 367.364c.199-.422.453-.734.76-.936.309-.202.678-.303 1.111-.303.791 0 1.35.306 1.676.918.324.612.486 1.765.486 3.458v5.704h-1.477v-5.634c0-1.389-.078-2.251-.232-2.588-.156-.337-.438-.505-.848-.505-.469 0-.791.18-.963.541-.174.36-.26 1.211-.26 2.553v5.634h-1.477v-5.634c0-1.406-.082-2.273-.25-2.602-.166-.328-.467-.492-.9-.492-.428 0-.725.18-.893.541-.166.36-.25 1.211-.25 2.553v5.634h-1.469v-9.844h1.469v.844c.193-.352.436-.62.725-.804.291-.185.619-.277.988-.277.445 0 .816.103 1.113.308.297.204.527.515.691.931zM542.102 373.042c-.27.686-.613 1.588-1.029 2.707-.58 1.547-.969 2.49-1.168 2.83-.27.457-.607.8-1.012 1.028s-.875.343-1.414.343h-1.301v-1.354h.957c.475 0 .848-.138 1.117-.413s.611-.987 1.027-2.136l-3.805-9.686h1.713l2.918 7.699 2.875-7.699h1.713l-2.591 6.681zM545.953 369.842h9.316v1.485h-9.316v-1.485zM565.143 370.589v5.616h-1.627v-1.459c-.346.586-.781 1.018-1.305 1.296-.525.278-1.162.417-1.912.417-1.002 0-1.801-.283-2.398-.848s-.896-1.323-.896-2.272c0-1.096.367-1.928 1.102-2.496.736-.568 1.816-.853 3.24-.853h2.17v-.255c-.006-.785-.205-1.355-.598-1.709s-1.02-.532-1.881-.532c-.551 0-1.107.079-1.67.237s-1.109.39-1.643.694v-1.617c.598-.229 1.17-.4 1.717-.514a7.836 7.836 0 0 1 1.596-.171c.814 0 1.51.12 2.088.36.576.24 1.045.601 1.402 1.081.223.293.381.655.475 1.085s.14 1.079.14 1.94zm-3.139.668h-.535c-.943 0-1.654.166-2.133.497-.477.331-.715.825-.715 1.481 0 .592.178 1.052.535 1.38s.854.492 1.486.492c.891 0 1.59-.309 2.1-.927s.768-1.472.773-2.562v-.36h-1.511zM569.902 374.966v4.983h-1.627v-13.588h1.627v1.257c.27-.486.627-.857 1.076-1.112.447-.255.965-.382 1.551-.382 1.189 0 2.123.46 2.799 1.38.678.92 1.016 2.194 1.016 3.823 0 1.6-.34 2.855-1.02 3.766s-1.611 1.367-2.795 1.367c-.598 0-1.121-.127-1.568-.382a2.69 2.69 0 0 1-1.059-1.112zm4.746-3.674c0-1.254-.199-2.2-.594-2.839-.396-.639-.982-.958-1.762-.958-.785 0-1.381.321-1.785.962s-.605 1.586-.605 2.834c0 1.242.201 2.186.605 2.83s1 .967 1.785.967c.779 0 1.365-.319 1.762-.958.395-.637.594-1.584.594-2.838zM580.711 374.966v4.983h-1.627v-13.588h1.627v1.257c.27-.486.627-.857 1.076-1.112.447-.255.965-.382 1.551-.382 1.189 0 2.123.46 2.799 1.38.678.92 1.016 2.194 1.016 3.823 0 1.6-.34 2.855-1.02 3.766s-1.611 1.367-2.795 1.367c-.598 0-1.121-.127-1.568-.382a2.684 2.684 0 0 1-1.059-1.112zm4.746-3.674c0-1.254-.199-2.2-.594-2.839-.396-.639-.982-.958-1.762-.958-.785 0-1.381.321-1.785.962s-.605 1.586-.605 2.834c0 1.242.201 2.186.605 2.83s1 .967 1.785.967c.779 0 1.365-.319 1.762-.958.395-.637.594-1.584.594-2.838zM592.914 372.646c0 .727.133 1.274.4 1.644.266.369.66.554 1.182.554h1.891v1.362h-2.049c-.967 0-1.715-.309-2.244-.927-.531-.618-.797-1.496-.797-2.632v-8.903h-2.592v-1.266h4.209v10.168zM599.785 366.397h4.139v8.552h3.209v1.257H599.1v-1.257h3.207v-7.295h-2.521v-1.257zm2.522-3.823h1.617v2.039h-1.617v-2.039zM616.6 375.705a5.612 5.612 0 0 1-1.342.567c-.459.126-.93.189-1.41.189-1.523 0-2.715-.457-3.572-1.371-.859-.914-1.287-2.18-1.287-3.797s.428-2.883 1.287-3.797c.857-.914 2.049-1.371 3.572-1.371.475 0 .938.062 1.389.185s.906.313 1.363.571v1.696c-.428-.381-.857-.656-1.289-.826a3.955 3.955 0 0 0-1.463-.255c-1.014 0-1.793.328-2.338.984s-.816 1.594-.816 2.812c0 1.213.273 2.149.82 2.808.549.659 1.326.989 2.334.989.562 0 1.066-.086 1.512-.259s.859-.441 1.24-.804v1.679zM627.23 370.589v5.616h-1.625v-1.459c-.346.586-.781 1.018-1.305 1.296-.525.278-1.162.417-1.912.417-1.002 0-1.803-.283-2.4-.848s-.896-1.323-.896-2.272c0-1.096.367-1.928 1.104-2.496.734-.568 1.814-.853 3.238-.853h2.172v-.255c-.006-.785-.205-1.355-.598-1.709s-1.02-.532-1.881-.532c-.551 0-1.107.079-1.67.237s-1.111.39-1.645.694v-1.617c.598-.229 1.17-.4 1.719-.514a7.821 7.821 0 0 1 1.596-.171c.814 0 1.51.12 2.088.36a3.28 3.28 0 0 1 1.4 1.081c.223.293.381.655.475 1.085s.14 1.079.14 1.94zm-3.136.668h-.537c-.943 0-1.654.166-2.131.497-.479.331-.717.825-.717 1.481 0 .592.18 1.052.537 1.38s.852.492 1.484.492c.891 0 1.592-.309 2.102-.927s.768-1.472.773-2.562v-.36h-1.511zM633.779 363.567v2.795h3.674v1.257h-3.674v5.344c0 .727.137 1.233.412 1.521s.756.431 1.441.431h1.82v1.292h-1.979c-1.213 0-2.068-.243-2.566-.729s-.746-1.324-.746-2.514v-5.344h-2.629v-1.257h2.629v-2.795h1.618zM641.209 366.397h4.139v8.552h3.209v1.257h-8.033v-1.257h3.207v-7.295h-2.521v-1.257zm2.521-3.823h1.617v2.039h-1.617v-2.039zM654.467 366.125c1.365 0 2.41.442 3.133 1.327.725.885 1.086 2.165 1.086 3.841 0 1.682-.359 2.963-1.08 3.845s-1.768 1.323-3.139 1.323c-1.365 0-2.408-.441-3.129-1.323s-1.08-2.164-1.08-3.845c0-1.676.359-2.956 1.08-3.841s1.764-1.327 3.129-1.327zm0 1.371c-.82 0-1.441.319-1.863.958s-.633 1.585-.633 2.839c0 1.248.211 2.193.633 2.834s1.043.962 1.863.962c.826 0 1.451-.321 1.873-.962s.633-1.586.633-2.834c0-1.254-.211-2.2-.633-2.839s-1.047-.958-1.873-.958zM669.018 370.106v6.1h-1.625v-6.1c0-.885-.156-1.535-.467-1.951s-.797-.624-1.459-.624c-.756 0-1.338.268-1.744.804-.408.536-.611 1.305-.611 2.307v5.563h-1.617v-9.844h1.617v1.477c.287-.562.678-.989 1.17-1.279s1.074-.435 1.748-.435c1.002 0 1.75.33 2.246.989.494.659.742 1.657.742 2.993zM480.849 392.075v.791h-7.005v.053c-.047 1.342.209 2.306.769 2.892s1.35.879 2.369.879c.516 0 1.055-.082 1.617-.246s1.163-.413 1.802-.747v1.608c-.615.252-1.208.441-1.78.566a7.61 7.61 0 0 1-1.656.189c-1.529 0-2.725-.459-3.586-1.375-.861-.918-1.292-2.182-1.292-3.793 0-1.57.422-2.824 1.266-3.762s1.969-1.406 3.375-1.406c1.254 0 2.242.425 2.966 1.274s1.108 1.876 1.155 3.077zm-1.617-.474a3.141 3.141 0 0 0-.742-1.763c-.426-.494-1.036-.742-1.833-.742-.779 0-1.421.258-1.925.773s-.779 1.096-.826 1.74l5.326-.008zM491.042 391.706v6.1h-1.626v-6.1c0-.885-.155-1.535-.466-1.951s-.797-.624-1.459-.624c-.756 0-1.338.268-1.745.805-.407.535-.61 1.305-.61 2.307v5.563h-1.617v-9.844h1.617v1.477c.287-.562.677-.989 1.169-1.278.492-.291 1.075-.436 1.749-.436 1.002 0 1.75.33 2.245.988.494.66.743 1.657.743 2.993zM493.059 387.962h1.679l2.856 8.262 2.865-8.262h1.679l-3.498 9.844h-2.083l-3.498-9.844zM505.528 387.971h2.742v3.173h-2.742v-3.173zm0 6.635h2.742v3.199h-2.742v-3.199zM526.727 396.566v4.983h-1.625v-13.588h1.625v1.257c.27-.486.629-.857 1.078-1.111.447-.256.965-.383 1.551-.383 1.189 0 2.123.46 2.799 1.38.678.92 1.016 2.194 1.016 3.823 0 1.6-.34 2.855-1.02 3.766-.68.912-1.611 1.367-2.795 1.367-.598 0-1.121-.127-1.568-.383a2.668 2.668 0 0 1-1.061-1.111zm4.746-3.673c0-1.254-.197-2.2-.592-2.839-.396-.639-.984-.958-1.764-.958-.785 0-1.379.32-1.783.963-.404.641-.607 1.586-.607 2.834 0 1.242.203 2.186.607 2.83s.998.967 1.783.967c.779 0 1.367-.319 1.764-.958.394-.639.592-1.586.592-2.839zM543.627 389.992c-.346-.27-.697-.466-1.055-.589s-.75-.185-1.178-.185c-1.008 0-1.777.316-2.311.949s-.801 1.547-.801 2.742v4.896h-1.625v-9.844h1.625v1.925c.27-.697.684-1.232 1.244-1.604.559-.373 1.223-.559 1.99-.559.398 0 .771.05 1.117.149s.676.255.992.466v1.654zM549.727 387.725c1.365 0 2.41.442 3.133 1.327.725.885 1.086 2.165 1.086 3.841 0 1.682-.359 2.963-1.08 3.846-.721.881-1.768 1.322-3.139 1.322-1.365 0-2.408-.441-3.129-1.322-.721-.883-1.08-2.164-1.08-3.846 0-1.676.359-2.956 1.08-3.841s1.763-1.327 3.129-1.327zm0 1.371c-.82 0-1.441.319-1.863.958s-.633 1.585-.633 2.839c0 1.248.211 2.193.633 2.834.422.643 1.043.963 1.863.963.826 0 1.451-.32 1.873-.963.422-.641.633-1.586.633-2.834 0-1.254-.211-2.2-.633-2.839s-1.047-.958-1.873-.958zM562.742 389.219v-5.089h1.617v13.676h-1.617v-1.239c-.27.486-.629.857-1.076 1.111-.449.256-.967.383-1.553.383-1.189 0-2.125-.461-2.807-1.385-.684-.922-1.025-2.195-1.025-3.818 0-1.6.344-2.855 1.029-3.766.686-.912 1.619-1.367 2.803-1.367.592 0 1.113.127 1.564.383a2.67 2.67 0 0 1 1.065 1.111zm-4.756 3.674c0 1.254.199 2.2.598 2.839s.988.958 1.768.958 1.371-.322 1.779-.967c.406-.645.611-1.588.611-2.83 0-1.248-.205-2.193-.611-2.834-.408-.643-1-.963-1.779-.963s-1.369.319-1.768.958-.598 1.585-.598 2.839zM567.588 394.079v-6.1h1.617v6.1c0 .885.156 1.535.469 1.951.314.416.799.624 1.455.624.762 0 1.346-.268 1.75-.805.404-.535.605-1.305.605-2.307v-5.563h1.627v9.826h-1.627v-1.477c-.287.568-.678.999-1.174 1.292-.494.293-1.072.439-1.734.439-1.008 0-1.758-.33-2.25-.988-.492-.659-.738-1.656-.738-2.992zM585.697 397.305a5.589 5.589 0 0 1-1.34.566c-.461.127-.93.189-1.41.189-1.523 0-2.715-.457-3.572-1.371-.859-.914-1.289-2.18-1.289-3.797s.43-2.883 1.289-3.797c.857-.914 2.049-1.371 3.572-1.371.475 0 .938.062 1.389.185s.904.313 1.361.571v1.696c-.428-.381-.855-.656-1.287-.826a3.955 3.955 0 0 0-1.463-.255c-1.014 0-1.793.328-2.338.984s-.818 1.594-.818 2.812c0 1.213.273 2.148.822 2.809.547.658 1.326.988 2.334.988.562 0 1.066-.086 1.512-.26.445-.172.857-.44 1.238-.804v1.681zM592.436 385.167v2.795h3.674v1.257h-3.674v5.344c0 .727.139 1.233.414 1.521s.756.431 1.441.431h1.818v1.292h-1.977c-1.213 0-2.068-.243-2.566-.729s-.748-1.324-.748-2.514v-5.344h-2.627v-1.257h2.627v-2.795h1.618zM599.865 387.997h4.141v8.552h3.207v1.257h-8.033v-1.257h3.209v-7.295h-2.523v-1.257zm2.524-3.823h1.617v2.039h-1.617v-2.039zM613.125 387.725c1.365 0 2.41.442 3.133 1.327.725.885 1.086 2.165 1.086 3.841 0 1.682-.359 2.963-1.08 3.846-.721.881-1.768 1.322-3.139 1.322-1.365 0-2.408-.441-3.129-1.322-.721-.883-1.08-2.164-1.08-3.846 0-1.676.359-2.956 1.08-3.841s1.764-1.327 3.129-1.327zm0 1.371c-.82 0-1.441.319-1.863.958s-.633 1.585-.633 2.839c0 1.248.211 2.193.633 2.834.422.643 1.043.963 1.863.963.826 0 1.451-.32 1.873-.963.422-.641.633-1.586.633-2.834 0-1.254-.211-2.2-.633-2.839s-1.047-.958-1.873-.958zM627.676 391.706v6.1h-1.627v-6.1c0-.885-.154-1.535-.465-1.951s-.797-.624-1.459-.624c-.756 0-1.338.268-1.746.805-.406.535-.609 1.305-.609 2.307v5.563h-1.617v-9.844h1.617v1.477c.287-.562.676-.989 1.168-1.278.492-.291 1.076-.436 1.75-.436 1.002 0 1.75.33 2.244.988.496.66.744 1.657.744 2.993z"/></svg>