<svg xmlns="http://www.w3.org/2000/svg" width="1024" height="768" viewBox="0 0 1024 768"><symbol id="e" viewBox="-68.6 -66.9 137.2 133.801"><g stroke="#006DE9" stroke-linecap="round" stroke-linejoin="round" stroke-miterlimit="10"><g fill="none"><path d="M0-11.1V.7M5.9-5.2H-5.9"/></g><path fill="#FFF" stroke-width="6" d="M-29.2-63.9l-36.4 45.6 13 56.9L0 63.9l52.6-25.3 13-56.9-36.4-45.6z"/></g></symbol><path fill="#FFF" stroke="#326DE6" stroke-width="1.6" stroke-linecap="round" stroke-linejoin="round" stroke-miterlimit="10" d="M533.744 585.634H292.248l-120.953-209.73 120.838-209.317h241.713l120.949 209.492z"/><path fill="#326DE6" d="M256.137 522.988l36.111 62.646h241.496l35.698-62.646z"/><path fill="#A0CAEA" d="M412.796 573.428v-38.163h135.798l-21.897 38.166z"/><g fill="#FFF"><path d="M309.994 565.581a38.91 38.91 0 0 0-1.8-2.52 39.808 39.808 0 0 0-4.47-4.891c-.8-.739-1.59-1.38-2.37-1.92v9.33h-3.78v-20.79h3.78v8.58a155.64 155.64 0 0 0 4.215-4.395c.71-.77 1.385-1.515 2.025-2.234s1.22-1.37 1.74-1.95h4.53c-.66.761-1.36 1.55-2.1 2.37-.74.82-1.5 1.646-2.28 2.475-.78.83-1.565 1.655-2.355 2.476s-1.565 1.6-2.325 2.34c.84.641 1.695 1.385 2.565 2.235.87.85 1.725 1.76 2.565 2.729a48.148 48.148 0 0 1 4.53 6.165h-4.47zM328.947 565.101c-.701.181-1.61.365-2.73.556a22.249 22.249 0 0 1-3.69.285c-1.26 0-2.315-.181-3.165-.54-.851-.36-1.53-.86-2.04-1.5-.51-.641-.875-1.405-1.095-2.295-.22-.89-.33-1.865-.33-2.926v-8.79h3.63v8.221c0 1.68.245 2.88.735 3.6.49.72 1.345 1.08 2.565 1.08.439 0 .905-.02 1.395-.06.49-.04.855-.091 1.095-.15v-12.69h3.63v15.209zM347.382 557.751c0 1.26-.185 2.396-.555 3.405s-.9 1.875-1.59 2.595-1.525 1.271-2.505 1.65-2.09.569-3.33.569c-1.2 0-2.345-.09-3.435-.27-1.09-.18-1.995-.38-2.715-.601V542.9l3.63-.601v8.13c.42-.22.935-.42 1.545-.6.61-.18 1.285-.27 2.025-.27 1.1 0 2.085.194 2.955.585.87.39 1.595.944 2.175 1.665.58.72 1.024 1.585 1.335 2.595.31 1.012.465 2.127.465 3.347zm-3.72-.06c0-1.54-.305-2.761-.915-3.66-.61-.9-1.575-1.351-2.895-1.351-.6 0-1.166.091-1.695.271s-.955.38-1.275.6v9.03c.26.06.595.115 1.005.165.41.05.905.075 1.485.075 1.339 0 2.39-.455 3.15-1.365.76-.91 1.14-2.165 1.14-3.765zM350.094 557.812c0-1.381.205-2.59.615-3.631.41-1.039.955-1.904 1.635-2.595.68-.689 1.46-1.21 2.34-1.56s1.78-.525 2.7-.525c2.16 0 3.845.67 5.055 2.01 1.209 1.341 1.815 3.341 1.815 6 0 .2-.005.426-.015.676-.01.25-.025.475-.045.675h-10.35c.1 1.26.545 2.234 1.335 2.925.79.689 1.935 1.035 3.435 1.035.88 0 1.685-.08 2.415-.24.73-.16 1.305-.33 1.725-.51l.48 2.97c-.2.101-.476.205-.825.315-.35.109-.75.21-1.2.3-.45.09-.936.165-1.455.225-.521.061-1.05.09-1.59.09-1.38 0-2.58-.205-3.6-.614-1.02-.41-1.86-.98-2.52-1.71a7.016 7.016 0 0 1-1.47-2.58c-.321-.992-.48-2.077-.48-3.256zm10.53-1.621c0-.5-.07-.976-.21-1.426-.14-.449-.345-.84-.615-1.17s-.6-.589-.99-.779c-.39-.19-.855-.285-1.395-.285-.56 0-1.05.104-1.47.314s-.775.485-1.065.825c-.29.341-.515.73-.675 1.17-.16.44-.27.891-.33 1.351h6.75zM373.224 565.881c-1.08-.02-1.975-.14-2.685-.359-.71-.221-1.275-.535-1.695-.945s-.715-.92-.885-1.53c-.17-.609-.255-1.305-.255-2.085v-18.06l3.63-.601v17.971c0 .439.035.81.105 1.109.07.3.195.556.375.766.18.21.425.37.735.479.31.11.705.195 1.185.255l-.51 3zM375.527 557.812c0-1.381.205-2.59.615-3.631.41-1.039.955-1.904 1.635-2.595.68-.689 1.46-1.21 2.34-1.56s1.78-.525 2.7-.525c2.16 0 3.845.67 5.055 2.01 1.209 1.341 1.815 3.341 1.815 6 0 .2-.005.426-.015.676-.01.25-.025.475-.045.675h-10.35c.1 1.26.545 2.234 1.335 2.925.79.689 1.935 1.035 3.435 1.035.88 0 1.685-.08 2.415-.24.73-.16 1.305-.33 1.725-.51l.48 2.97c-.2.101-.476.205-.825.315-.35.109-.75.21-1.2.3-.45.09-.936.165-1.455.225-.521.061-1.05.09-1.59.09-1.38 0-2.58-.205-3.6-.614-1.02-.41-1.86-.98-2.52-1.71a7.016 7.016 0 0 1-1.47-2.58c-.32-.992-.48-2.077-.48-3.256zm10.531-1.621c0-.5-.07-.976-.21-1.426-.14-.449-.345-.84-.615-1.17s-.6-.589-.99-.779c-.39-.19-.855-.285-1.395-.285-.56 0-1.05.104-1.47.314s-.775.485-1.065.825c-.29.341-.515.73-.675 1.17-.16.44-.27.891-.33 1.351h6.75zM393.081 545.751l3.63-.6v4.739h5.58v3.03h-5.58v6.391c0 1.26.2 2.159.6 2.699.4.54 1.08.811 2.04.811.66 0 1.245-.07 1.755-.21.51-.14.915-.271 1.215-.391l.6 2.88c-.42.181-.971.365-1.65.556-.68.189-1.48.285-2.4.285-1.12 0-2.055-.15-2.805-.45s-1.346-.735-1.785-1.305c-.44-.57-.75-1.261-.93-2.07-.18-.811-.27-1.735-.27-2.775v-13.59z"/></g><g fill="#FFF"><path d="M441.936 555.172c0 1.8-.28 3.365-.84 4.695-.56 1.33-1.355 2.44-2.385 3.33s-2.27 1.55-3.72 1.979c-1.45.43-3.055.646-4.815.646-.84 0-1.79-.035-2.85-.105a19.205 19.205 0 0 1-3.03-.435v-20.19c.96-.22 1.98-.359 3.06-.42 1.08-.06 2.04-.09 2.88-.09 1.74 0 3.33.205 4.77.615 1.44.41 2.674 1.05 3.705 1.92s1.825 1.97 2.385 3.3c.56 1.33.84 2.915.84 4.755zm-13.86 7.29c.22.021.51.035.87.045.36.011.85.016 1.47.016 2.54 0 4.435-.646 5.685-1.936s1.875-3.095 1.875-5.415c0-2.359-.61-4.17-1.83-5.43-1.22-1.26-3.11-1.891-5.67-1.891-1.12 0-1.92.03-2.4.091v14.52zM459.966 557.722c0 1.24-.18 2.37-.54 3.391-.36 1.02-.87 1.89-1.53 2.609a6.882 6.882 0 0 1-2.385 1.681c-.93.399-1.955.6-3.075.6-1.121 0-2.141-.2-3.06-.6-.92-.4-1.71-.96-2.37-1.681-.66-.72-1.175-1.59-1.545-2.609-.371-1.021-.555-2.15-.555-3.391 0-1.239.185-2.364.555-3.375.37-1.01.89-1.875 1.56-2.595.669-.72 1.465-1.275 2.385-1.665s1.93-.585 3.03-.585c1.1 0 2.115.195 3.045.585.93.39 1.725.945 2.385 1.665.66.72 1.175 1.585 1.545 2.595.37 1.01.555 2.135.555 3.375zm-3.72 0c0-1.56-.335-2.794-1.005-3.705-.67-.909-1.605-1.364-2.805-1.364-1.2 0-2.135.455-2.805 1.364-.67.911-1.005 2.146-1.005 3.705 0 1.58.334 2.831 1.005 3.75.67.921 1.605 1.38 2.805 1.38 1.2 0 2.134-.459 2.805-1.38.67-.919 1.005-2.17 1.005-3.75zM462.663 557.752c0-1.159.18-2.245.54-3.255s.875-1.885 1.545-2.625a7.092 7.092 0 0 1 2.445-1.74c.96-.42 2.04-.63 3.24-.63 1.48 0 2.88.271 4.2.811l-.78 2.97a8.155 8.155 0 0 0-1.425-.45 7.662 7.662 0 0 0-1.695-.18c-1.42 0-2.5.445-3.24 1.335-.74.89-1.11 2.145-1.11 3.765 0 1.561.35 2.795 1.05 3.705.7.91 1.88 1.365 3.54 1.365.62 0 1.23-.061 1.83-.181.6-.119 1.12-.27 1.56-.449l.51 3c-.4.2-1.005.38-1.815.54-.81.159-1.646.239-2.505.239-1.34 0-2.505-.205-3.495-.614-.99-.41-1.81-.98-2.46-1.71-.65-.73-1.135-1.601-1.455-2.61-.321-1.011-.48-2.105-.48-3.286zM481.301 556.012c.46-.479.95-.994 1.47-1.545a120.641 120.641 0 0 0 2.955-3.24c.45-.51.834-.954 1.155-1.335h4.29a266.312 266.312 0 0 1-3.158 3.48c-1.107 1.2-2.219 2.37-3.337 3.51.599.5 1.227 1.105 1.886 1.815s1.297 1.465 1.916 2.265 1.197 1.601 1.736 2.4.988 1.54 1.347 2.22h-4.2a29.5 29.5 0 0 0-1.245-1.95c-.47-.68-.975-1.34-1.515-1.979-.54-.641-1.09-1.245-1.65-1.815s-1.11-1.055-1.65-1.455v7.2h-3.63v-22.68l3.63-.601v13.71zM492.392 557.812c0-1.381.205-2.59.615-3.631.41-1.039.955-1.904 1.635-2.595.68-.689 1.46-1.21 2.34-1.56s1.78-.525 2.7-.525c2.16 0 3.845.67 5.055 2.01 1.209 1.341 1.815 3.341 1.815 6 0 .2-.005.426-.015.676-.01.25-.025.475-.045.675h-10.35c.1 1.26.545 2.234 1.335 2.925.79.689 1.935 1.035 3.435 1.035.88 0 1.685-.08 2.415-.24.73-.16 1.305-.33 1.725-.51l.48 2.97c-.2.101-.476.205-.825.315-.35.109-.75.21-1.2.3-.45.09-.936.165-1.455.225-.521.061-1.05.09-1.59.09-1.38 0-2.58-.205-3.6-.614-1.02-.41-1.86-.98-2.52-1.71a7.016 7.016 0 0 1-1.47-2.58c-.32-.991-.48-2.076-.48-3.256zm10.53-1.62c0-.5-.07-.976-.21-1.426-.14-.449-.345-.84-.615-1.17s-.6-.589-.99-.779c-.39-.19-.855-.285-1.395-.285-.56 0-1.05.104-1.47.314s-.775.485-1.065.825c-.29.341-.515.73-.675 1.17-.16.44-.27.891-.33 1.351h6.75zM519.023 553.162c-.3-.1-.715-.205-1.245-.315a9.237 9.237 0 0 0-1.845-.165c-.4 0-.825.041-1.275.12-.449.08-.765.15-.945.21v12.57h-3.629v-14.94c.7-.259 1.575-.505 2.625-.734 1.049-.229 2.215-.345 3.494-.345.24 0 .52.015.84.045.32.029.641.07.961.119.319.051.629.11.93.181.3.07.54.135.72.194l-.631 3.06z"/></g><g><g fill="#06F7C9" stroke="#011F38" stroke-width=".8" stroke-linecap="round" stroke-linejoin="round" stroke-miterlimit="10"><path d="M388.778 362.1l24.267-14.011 24.267 14.011-24.267 14.01z"/><path d="M388.778 390.121V362.1l24.267 14.01v28.021zM413.045 404.131V376.11l24.267-14.01v28.021z"/></g></g><g><path d="M863.462 364.4c3.032 0 5.357.553 6.974 1.657s2.425 2.831 2.425 5.181c0 1.226-.216 2.274-.647 3.148s-1.06 1.587-1.883 2.139c-.823.553-1.827.959-3.012 1.22-1.186.262-2.541.392-4.067.392h-1.897v7.351h-3.796v-20.574a18.898 18.898 0 0 1 2.938-.407 45.167 45.167 0 0 1 2.965-.107zm.271 3.285c-.964 0-1.758.029-2.38.09v7.109h1.838c1.827 0 3.232-.256 4.217-.769.984-.512 1.477-1.48 1.477-2.906 0-.683-.131-1.255-.392-1.718-.262-.461-.623-.823-1.085-1.084s-1.009-.447-1.642-.558-1.31-.164-2.033-.164zM890.118 377.595c0 1.245-.181 2.38-.543 3.404-.361 1.024-.873 1.897-1.536 2.621-.662.723-1.461 1.285-2.395 1.687s-1.963.603-3.088.603-2.149-.201-3.072-.603a6.935 6.935 0 0 1-2.38-1.687c-.663-.724-1.18-1.597-1.552-2.621-.371-1.024-.557-2.159-.557-3.404s.186-2.374.557-3.389c.372-1.014.894-1.883 1.566-2.605a6.92 6.92 0 0 1 2.396-1.672c.923-.392 1.938-.588 3.042-.588s2.124.196 3.058.588 1.732.948 2.395 1.672c.663.723 1.18 1.592 1.552 2.605.371 1.015.557 2.144.557 3.389zm-3.735 0c0-1.566-.337-2.806-1.01-3.72s-1.611-1.371-2.816-1.371-2.144.457-2.816 1.371-1.009 2.153-1.009 3.72c0 1.587.336 2.842 1.009 3.766s1.611 1.386 2.816 1.386 2.144-.462 2.816-1.386 1.01-2.179 1.01-3.766zM907.014 385.005c-.723.222-1.632.422-2.726.603a21.13 21.13 0 0 1-3.449.271c-1.245 0-2.36-.191-3.344-.572a6.973 6.973 0 0 1-2.516-1.642c-.692-.713-1.225-1.576-1.597-2.591-.371-1.014-.557-2.154-.557-3.419 0-1.245.155-2.375.467-3.389.311-1.015.768-1.883 1.37-2.606.603-.723 1.336-1.28 2.199-1.672s1.857-.587 2.982-.587c.763 0 1.436.09 2.019.271a9.151 9.151 0 0 1 1.506.603v-7.561l3.645-.603v22.894zm-10.452-7.441c0 1.607.381 2.867 1.145 3.781.763.914 1.817 1.37 3.163 1.37.582 0 1.079-.024 1.491-.075.411-.05.748-.105 1.009-.166v-9.037c-.321-.221-.748-.426-1.28-.617a5.026 5.026 0 0 0-1.702-.286c-1.325 0-2.294.452-2.907 1.355-.614.904-.919 2.13-.919 3.675z"/><path fill="none" stroke="#011F38" stroke-linecap="round" stroke-linejoin="round" stroke-miterlimit="10" d="M843.969 375.826H432.665"/></g><path fill="none" d="M432.665 404.131H642.5v97.035H432.665z"/></svg>