<svg xmlns="http://www.w3.org/2000/svg" height="1024" width="1280" xmlns:xlink="http://www.w3.org/1999/xlink" viewBox="0 0 338.66666 270.93334" style="background-color:#001f30"><defs><marker id="a" orient="auto" overflow="visible"><path stroke-linejoin="round" d="M1.926 1.21L-1.352.005 1.926-1.2c-.524.71-.52 1.685 0 2.41z" fill-rule="evenodd" stroke="#00a3d9" stroke-width=".1875" fill="#00a3d9"/></marker><path id="b" d="M0 .006h64v64H0z"/></defs><g fill="#fff"><path d="M100.61 103.562c-.048-.654-.59-1.172-1.256-1.172H51.188c-.667 0-1.208.518-1.257 1.172l-.01 32.544c0 .7.568 1.267 1.268 1.267h48.165c.7 0 1.268-.567 1.268-1.267l-.01-32.544zm-2.017 27.727H51.95v-26.872h46.643v26.87zM83.383 143.457c-2.028-.507-2.535-2.028-2.535-4.056v-.506H69.695v.507c0 2.03-.507 3.55-2.535 4.057-.493.123-.508 1.014 0 1.014h16.223c.507 0 .492-.89 0-1.013z"/></g><path d="M107.72 120.77l149.88.22" fill-rule="evenodd" marker-start="url(#a)" stroke="#00a3d9" stroke-linecap="square" stroke-width="2.712" fill="#00a3d9" transform="translate(0 -26.067) translate(-3.012 26.067)"/><g fill="#fff"><g transform="matrix(.196 0 0 .196 252.118 137.12)"><clipPath id="c"><use xlink:href="#b" height="100%" width="100%" overflow="visible"/></clipPath><path clip-path="url(#c)" d="M-21.206 38.503h7.706l-5.5 15.28L-3.664 34.43l-8.018-.024 1.922-3.157h-6.904z"/></g><path d="M288.272 101.037c-.443.172-10.63 5.017-10.63 5.017-.9.426-1.564 1.627-1.564 2.622v31.06c0 .605.197.966.66.966.17 0 .248-.048.448-.143l10.072-4.876c.9-.427 1.48-1.627 1.48-2.622v-31.06c0-.605.01-1.15-.466-.965zM286.923 100.52c1.044-.497.93-.837-.226-.837h-16.175c-1.156 0-2.96.33-4.01.816l-10.54 4.875c-1.05.486-1.838 1.795-1.838 2.95v31.393c0 1.157.806 2.165 1.963 2.165h16.56c1.155 0 2.155-1.008 2.155-2.165v-31.392c0-1.156.828-2.475 1.872-2.97l10.24-4.837zm-17.597 19.42h-10.972v-1.267h10.972v1.266zm0-2.955h-10.972v-1.266h10.972v1.265zm0-2.954h-10.972v-1.265h10.972v1.266z"/></g></svg>