<svg xmlns="http://www.w3.org/2000/svg" height="1024" width="1280" viewBox="0 0 338.66666 270.93334" style="background-color:#001f30"><defs><marker id="f" overflow="visible" orient="auto"><path stroke-linejoin="round" d="M1.926 1.21L-1.352.005 1.926-1.2c-.524.71-.52 1.685 0 2.41z" fill-rule="evenodd" stroke="#e31445" stroke-width=".1875" fill="#e31445"/></marker><marker id="g" orient="auto" overflow="visible"><path stroke-linejoin="round" d="M1.926 1.21L-1.352.005 1.926-1.2c-.524.71-.52 1.685 0 2.41z" fill-rule="evenodd" stroke="#e31445" stroke-width=".1875" fill="#e31445"/></marker><marker id="e" orient="auto" overflow="visible"><path stroke-linejoin="round" d="M1.926 1.21L-1.352.005 1.926-1.2c-.524.71-.52 1.685 0 2.41z" fill-rule="evenodd" stroke="#e31445" stroke-width=".1875" fill="#e31445"/></marker><marker id="d" orient="auto" overflow="visible"><path stroke-linejoin="round" d="M1.926 1.21L-1.352.005 1.926-1.2c-.524.71-.52 1.685 0 2.41z" fill-rule="evenodd" stroke="#00a3d9" stroke-width=".1875" fill="#00a3d9"/></marker><marker id="c" overflow="visible" orient="auto"><path stroke-linejoin="round" d="M1.926 1.21L-1.352.005 1.926-1.2c-.524.71-.52 1.685 0 2.41z" fill-rule="evenodd" stroke="#00a3d9" stroke-width=".1875" fill="#00a3d9"/></marker><marker id="b" orient="auto" overflow="visible"><path stroke-linejoin="round" d="M1.926 1.21L-1.352.005 1.926-1.2c-.524.71-.52 1.685 0 2.41z" fill-rule="evenodd" stroke="#00a3d9" stroke-width=".1875" fill="#00a3d9"/></marker><marker id="a" overflow="visible" orient="auto"><path stroke-linejoin="round" d="M1.926 1.21L-1.352.005 1.926-1.2c-.524.71-.52 1.685 0 2.41z" fill-rule="evenodd" stroke="#00a3d9" stroke-width=".1875" fill="#00a3d9"/></marker></defs><g fill-rule="evenodd" stroke="#00a3d9" stroke-linecap="square" stroke-width="2.646" fill="#00a3d9"><path d="M226.13 80.493l29.06 40.957" marker-start="url(#a)"/><path d="M171.43 138.21l46.5-61.126" marker-start="url(#b)"/><path d="M225.06 130.71l-55.16 12.53" marker-start="url(#c)"/><path d="M185 88.03l44.133 38.804" marker-start="url(#d)"/></g><g fill-rule="evenodd" stroke="#e31445" stroke-linecap="square" stroke-width="2.646" fill="#e31445"><path d="M104.02 120.34l36.81 13.174" marker-start="url(#e)"/><path d="M137.19 94.492L173.57 82.9" marker-start="url(#f)"/><path d="M139.34 124.86l-11.43-24.947" marker-start="url(#g)"/></g><g fill="#fff"><path d="M100.63 103.563c-.05-.655-.592-1.173-1.26-1.173H51.19c-.668 0-1.21.518-1.26 1.173l-.01 32.554c0 .7.57 1.268 1.27 1.268h48.18c.7 0 1.27-.567 1.27-1.268l-.01-32.554zM98.61 131.3H51.95v-26.88h46.66v26.88zM83.395 143.472c-2.03-.508-2.536-2.03-2.536-4.058v-.507H69.7v.507c0 2.03-.506 3.55-2.535 4.058-.492.122-.507 1.014 0 1.014h16.23c.507 0 .492-.892 0-1.014z"/><clipPath transform="matrix(.196 0 0 .196 252.12 137.12)"><path d="M0 .006h64v64H0z"/></clipPath><path d="M288.274 101.038c-.443.172-10.63 5.017-10.63 5.017-.9.426-1.564 1.627-1.564 2.622v31.06c0 .605.197.966.66.966.17 0 .248-.048.448-.143l10.072-4.875c.9-.427 1.48-1.627 1.48-2.622v-31.06c0-.605.01-1.15-.466-.965zM286.925 100.52c1.044-.496.93-.836-.226-.836h-16.176c-1.156 0-2.96.33-4.01.816l-10.54 4.876c-1.05.486-1.838 1.795-1.838 2.95v31.393c0 1.156.806 2.164 1.963 2.164h16.558c1.156 0 2.156-1.008 2.156-2.165v-31.393c0-1.156.828-2.475 1.872-2.97l10.24-4.837zm-17.597 19.42h-10.972v-1.266h10.972v1.266zm0-2.954h-10.972v-1.266h10.972v1.266zm0-2.954h-10.972v-1.266h10.972v1.266z"/><clipPath transform="matrix(.054 0 0 .054 216.36 76.832)"><path d="M0 .006h64v64H0z"/></clipPath><path d="M226.302 66.895c-.122.048-2.922 1.38-2.922 1.38-.248.117-.43.447-.43.72v8.538c0 .166.054.266.18.266.048 0 .07-.015.125-.04l2.768-1.34c.248-.118.407-.448.407-.722V67.16c0-.165.002-.315-.128-.265zM225.93 66.753c.288-.136.257-.23-.06-.23h-4.447c-.318 0-.814.09-1.102.225l-2.897 1.34c-.288.133-.505.493-.505.81v8.63c0 .318.222.595.54.595h4.55c.32 0 .594-.277.594-.595v-8.63c0-.317.227-.68.515-.816l2.814-1.33zm-4.836 5.338h-3.016v-.347h3.016v.348zm0-.81h-3.016v-.35h3.016v.35zm0-.813h-3.016v-.348h3.016v.347z"/><clipPath transform="matrix(.054 0 0 .054 228.43 134.34)"><path d="M0 .006h64v64H0z"/></clipPath><path d="M238.372 124.403c-.122.048-2.922 1.38-2.922 1.38-.248.117-.43.447-.43.72v8.538c0 .167.054.267.18.267.048 0 .07-.014.125-.04l2.768-1.34c.248-.117.407-.447.407-.72v-8.538c0-.167.002-.317-.128-.267zM238 124.26c.288-.135.257-.23-.06-.23h-4.447c-.318 0-.814.092-1.102.226l-2.897 1.34c-.288.133-.505.493-.505.81v8.63c0 .318.222.595.54.595h4.55c.32 0 .594-.276.594-.594v-8.63c0-.317.227-.68.515-.816l2.814-1.33zm-4.836 5.34h-3.016v-.35h3.016v.35zm0-.813h-3.016v-.348h3.016v.347zm0-.812h-3.016v-.348h3.016v.348z"/><clipPath transform="matrix(.054 0 0 .054 158.86 150.92)"><path d="M0 .006h64v64H0z"/></clipPath><path d="M168.802 140.983c-.122.048-2.922 1.38-2.922 1.38-.248.117-.43.447-.43.72v8.538c0 .167.054.267.18.267.048 0 .07-.014.125-.04l2.768-1.34c.248-.117.407-.447.407-.72v-8.538c0-.167.002-.317-.128-.267zM168.43 140.84c.288-.135.257-.23-.06-.23h-4.447c-.318 0-.814.092-1.102.226l-2.897 1.34c-.288.133-.505.493-.505.81v8.63c0 .318.222.595.54.595h4.55c.32 0 .594-.276.594-.594v-8.63c0-.317.227-.68.515-.816l2.814-1.33zm-4.836 5.34h-3.016v-.35h3.016v.35zm0-.813h-3.016v-.348h3.016v.347zm0-.812h-3.016v-.348h3.016v.348z"/><clipPath transform="matrix(.054 0 0 .054 173.51 85.447)"><path d="M0 .006h64v64H0z"/></clipPath><path d="M183.452 75.51c-.122.048-2.922 1.38-2.922 1.38-.248.117-.43.447-.43.72v8.538c0 .166.054.266.18.266.048 0 .07-.014.125-.04l2.768-1.34c.247-.117.407-.447.407-.72v-8.538c0-.166.002-.316-.128-.266zM183.08 75.368c.288-.136.257-.23-.06-.23h-4.447c-.318 0-.814.09-1.102.225l-2.897 1.34c-.288.133-.505.493-.505.81v8.63c0 .318.222.595.54.595h4.55c.32 0 .594-.277.594-.595v-8.63c0-.317.227-.68.515-.816l2.814-1.33zm-4.836 5.338h-3.016v-.348h3.016v.348zm0-.812h-3.016v-.348h3.016v.348zm0-.812h-3.016v-.348h3.016v.348z"/><clipPath transform="matrix(.054 0 0 .054 123.11 99.015)"><path d="M0 .006h64v64H0z"/></clipPath><path d="M133.052 89.078c-.122.048-2.922 1.38-2.922 1.38-.248.117-.43.447-.43.72v8.538c0 .166.054.266.18.266.048 0 .07-.014.125-.04l2.768-1.34c.247-.117.407-.447.407-.72v-8.538c0-.166.002-.316-.128-.266zM132.68 88.936c.288-.136.257-.23-.06-.23h-4.447c-.318 0-.814.09-1.102.225l-2.897 1.34c-.288.134-.505.494-.505.812v8.63c0 .317.222.594.54.594h4.55c.32 0 .594-.277.594-.595v-8.628c0-.318.227-.68.515-.817l2.814-1.33zm-4.836 5.338h-3.016v-.348h3.016v.348zm0-.812h-3.016v-.348h3.016v.348zm0-.812h-3.016v-.348h3.016v.348z"/><clipPath transform="matrix(.054 0 0 .054 139.69 136.92)"><path d="M0 .006h64v64H0z"/></clipPath><path d="M149.632 126.983c-.122.048-2.922 1.38-2.922 1.38-.248.117-.43.447-.43.72v8.538c0 .167.054.267.18.267.048 0 .07-.014.125-.04l2.768-1.34c.247-.117.407-.447.407-.72v-8.538c0-.167.002-.317-.128-.267zM149.26 126.84c.288-.135.257-.23-.06-.23h-4.447c-.318 0-.814.092-1.102.226l-2.897 1.34c-.288.133-.505.493-.505.81v8.63c0 .318.222.595.54.595h4.55c.32 0 .594-.276.594-.594v-8.63c0-.317.227-.68.515-.816l2.814-1.33zm-4.836 5.34h-3.016v-.35h3.016v.35zm0-.813h-3.016v-.348h3.016v.347zm0-.812h-3.016v-.348h3.016v.348z"/></g></svg>