<svg xmlns="http://www.w3.org/2000/svg" width="146" height="146" viewBox="438.012 439.541 146 146" enable-background="new 438.012 439.541 146 146"><g><path fill="#C50202" d="M439.012 512.54c0-39.77 32.23-72 72-72s72 32.23 72 72-32.23 72-72 72-72-32.23-72-72z"/><path fill="#fff" d="M511.73 481.19l-20.27 19.9H532l-20.27-19.9zm-20.168 21.69l20.106 18.79L532 502.875l-40.438.005zM491.46 560l20.228-36.375L532 560h-40.54zm5.79-48.75l12.13 11.66-17.84 32.71 5.71-44.37zm28.87.25l-12.34 11.375 18.14 32.745-5.8-44.12zm-36.15 48.21l.468-9.396L470 514.97l19.97 44.74zm20.5-80.22h-18.94v18.65m21.53-18.65H532v18.65m-40.498-36.892l.03 16.335h16.58l-16.61-16.335zm40.498-.082v16.46l-16.832-.043L532 461.166z"/></g><g fill="none" stroke="#000" stroke-miterlimit="10"><path d="M483.583 453.458M532 501.09M534.708 458.29M491.542 501.213"/></g></svg>