<?xml version="1.0" encoding="UTF-8" standalone="no"?>
<svg xmlns:rdf="http://www.w3.org/1999/02/22-rdf-syntax-ns#" xmlns="http://www.w3.org/2000/svg" height="20.004mm" width="20.004mm" version="1.1" xmlns:cc="http://creativecommons.org/ns#" xmlns:dc="http://purl.org/dc/elements/1.1/" viewBox="0 0 20.003643 20.003643">
 <g transform="translate(-27.04 -16.969)">
  <g fill-rule="evenodd" transform="matrix(23.812 0 0 23.812 -40.83 -29.129)" fill="#00a2e1">
   <path d="m3.2702 1.9359c0.23193 0 0.42002 0.18809 0.42002 0.42002s-0.18809 0.42002-0.42002 0.42002-0.42002-0.18809-0.42002-0.42002 0.18809-0.42002 0.42002-0.42002z" class="fil0 str1"/>
   <path d="m3.2702 1.9359c0.23193 0 0.42002 0.18809 0.42002 0.42002s-0.18809 0.42002-0.42002 0.42002-0.42002-0.18809-0.42002-0.42002 0.18809-0.42002 0.42002-0.42002z" class="fil9"/>
  </g>
  <path d="m40.362 21.221c0.53418 0.32364 0.25069 1.2481 0.41148 1.8577 0.09 0.36807 0.22526 0.82687-0.0902 1.1321-0.2939 0.22741-0.84825 0.19955-0.96853 0.54957-0.15478 0.45056 0.27892 1.1706 0.88473 1.1312 0.75207-0.2086 1.3575-0.7681 1.8936-1.3114 0.53052-0.5429 0.35316-0.96948 0.30273-1.6403-0.0226-0.29868 0.24122-0.67237 0.46977-0.50737 0.49049 0.35428-0.29606 1.1574 0.27937 1.3121 0.58902 0.15835 0.85115-1.5246 1.3985-0.82951 0.33749 0.42834-0.97829 0.81365-0.65128 1.1946 0.29466 0.31818 0.64613-0.58829 1.1902-0.26101 0.10763 0.06477 0.19407 0.22812 0.13335 0.33995-0.31904 0.5865-1.0631 0.07525-1.1443 0.5535-0.0948 0.55762 1.2101-0.03715 1.1108 0.69254-0.13002 0.95531-1.4592-0.38898-2.4524 0.16359-0.9827 0.54666-1.4032 1.7142-2.4239 2.1639-0.59315 0.26146-1.1167-0.35952-1.6727-0.51956-0.13335 0.89999-0.72599 1.5782-1.312 2.2267-0.52256 1.4136 2.9046-0.40134 2.4489 1.2784-0.29016 1.0693-1.7034 0.6482-2.5931 1.2588-0.11906 0.78853 0.55819 1.1072 1.1079 1.3875 0.86973 0.44344 0.24505 0.67847 0.0288 0.46106-0.46275-0.46527-0.49295-0.1324-0.41439-0.04477 0.31323 0.34969 0.12692 0.19883 0.76538 0.68325 0.33947 0.25753 0.0172 0.71409-0.30806 0.50823-0.47401-0.47992-0.57348-0.987-0.83851-0.9029-0.35476 0.12835 0.21717 0.46556 0.43377 1.2153 0.1874 0.64846-0.67808 0.71485-0.61641 0.12692 0.0688-0.65532-0.19407-1.0648-0.34828-1.0572-0.20788 0.01021 0.19788 1.2986-0.29287 1.2529-0.46566-0.04334-0.22027-0.84356-0.19384-0.93619 0.27263-0.9526 0.1143-0.94538-0.33037-1.8308-0.22479-0.44794-1.3905-1.3456-0.762-1.7428 2.1584-0.68156-0.28866-0.61162-0.48497-1.0937-0.00009-0.07596-0.007-0.08025-0.0731-0.04215-0.51561 0.07096-1.6785-2.0832-1.1896 0.12692-0.0298 0.74288-1.39 0.18217-1.8904 0.21146-0.98898 0.05763-1.062-0.0831-1.7506 0.62915-0.0669 0.0693-0.63732 0.68175-0.90768 0.30018-0.28502-0.402 1.0336-0.69487 0.93852-0.87994-0.0705-0.1374-0.5566-0.16026-1.0897 0.22693-0.47823 0.34735-0.85351-0.43548-0.19812-0.59729 0.7575-0.18717 1.3355 0.13954 1.2693-0.23193-0.0598-0.27168-0.54853-0.1043-1.2012-0.27477-0.34087-0.17883-0.10668-0.68616 0.28613-0.52087 0.73857 0.31068 0.51497 0.22479 0.97444 0.32128 0.11501 0.02405 0.38831-0.16835-0.24601-0.33657-0.29644-0.07858-0.40519-0.73707 0.41372-0.2055 0.51759 0.3359 1.1321 0.76302 1.7556 0.26568 0.0838-1.0759-0.98748-2.0891-0.20645-2.875 1.2268-1.2347 1.3686 2.6409 2.3315 1.4814 0.26867-0.83165 0.55969-1.684 1.2724-2.2494-0.41653-0.40153-1.216-0.5444-1.2862-1.1888-0.12097-1.1089 0.67997-2.0567 0.66206-3.1811-0.018-1.1364-1.8469-1.6155-1.0845-2.2057 0.58228-0.45094 0.71961 0.9766 1.1552 0.61565 0.37359-0.30947-0.4412-0.69825-0.0929-1.2677 0.0664-0.10858 0.25115-0.11525 0.36112-0.05453 0.55547 0.30759-0.0538 1.0652 0.36909 1.1613 0.49339 0.09263 0.16931-1.2394 0.70895-1.1614 0.87553 0.12644-0.45066 1.1949-0.0191 1.6259 0.4216 0.42103 0.72394-0.66177 1.2759-0.4141 0.25725 0.11549 0.0655 0.53071-0.20455 0.66056-0.60629 0.29166-1.0644 0.35138-1.2692 1.0823-0.20241 0.73595-0.38438 1.54-0.18883 2.2956 0.2687 0.5444 1.1091 0.55978 1.422 0.20074 0.24292-0.27918-0.0583-0.74531-0.008-1.1136 0.10668-0.42582 0.5715-0.53821 0.93526-0.64425 0.60834-0.1655 1.2671-0.87328 1.8146-0.57243z" class="fil5" stroke-width=".26458" fill="#fff"/>
  <ellipse fill-rule="evenodd" rx=".21190" ry=".27241" class="fil10" cy="23.672" cx="40.573" stroke-width="23.812" fill="#75c5f0"/>
  <ellipse ry=".27241" fill-rule="evenodd" rx=".21190" transform="matrix(-0.5 -.86603 -.86603 0.5 0 0)" class="fil10" cy="-21.893" cx="-38.347" stroke-width="17.022" fill="#75c5f0"/>
 </g>
</svg>
